<?xml version="1.0" encoding="UTF-8" standalone="no"?>
<svg width="48px" height="61px" viewBox="0 0 48 61" version="1.1" xmlns="http://www.w3.org/2000/svg" xmlns:xlink="http://www.w3.org/1999/xlink" xmlns:sketch="http://www.bohemiancoding.com/sketch/ns">
    <!-- Generator: Sketch 3.3.3 (12072) - http://www.bohemiancoding.com/sketch -->
    <title>Captain_1_star</title>
    <desc>Created with Sketch.</desc>
    <defs></defs>
    <g id="Levels-and-languages" stroke="none" stroke-width="1" fill="none" fill-rule="evenodd" sketch:type="MSPage">
        <g id="Captain_1_star" sketch:type="MSArtboardGroup" transform="translate(0.000000, 0.500000)">
            <g id="Warrior-badge-big" sketch:type="MSLayerGroup" transform="translate(3.000000, 14.000000)">
                <path d="M20.9586412,0.112408759 L20.9586412,0.110160584 L20.9535115,0.110160584 L20.9535115,0.112408759 L0.161587786,10.4174015 C0.161587786,35.3275036 20.6091756,43.5416934 20.9535115,43.6791533 L20.9535115,43.6817226 C20.9535115,43.6817226 20.9547939,43.680438 20.9560763,43.680438 C20.9573588,43.680438 20.9586412,43.6817226 20.9586412,43.6817226 L20.9586412,43.6791533 C21.3036183,43.5416934 41.7505649,35.3275036 41.7505649,10.4174015 L20.9586412,0.112408759" id="Fill-111" fill="#E74C3C" sketch:type="MSShapeGroup"></path>
                <path d="M35.9398168,30.8562044 L23.7543664,30.0314453 L38.0728397,27.115562 C38.1581221,26.9418102 38.2414809,26.7670949 38.3241985,26.5907737 L23.6206718,29.3287299 L40.3183969,21.2160292 C40.3661679,21.0467737 40.4132977,20.8768759 40.4588244,20.7050511 L23.3164122,28.6812555 L41.6646412,13.1248467 C41.6736183,12.981927 41.6848397,12.8412555 41.6922137,12.6976934 L22.861145,28.1301314 L37.0706107,8.09792701 L36.7932824,7.96046715 L22.2834046,27.7097226 L30.9758015,5.07670073 L30.6971908,4.93891971 L21.6194198,27.446365 L24.6103969,1.92218978 L24.3398015,1.78794161 L20.9108702,27.356438 L17.4873893,1.8300146 L17.2164733,1.96426277 L20.2023206,27.446365 L11.1399389,4.97649635 L10.860687,5.11459854 L19.5383359,27.7097226 L5.05218321,7.99290511 L4.77485496,8.1310073 L18.9605954,28.1301314 L0.225068702,12.7754161 C0.232442748,12.9202628 0.243664122,13.062219 0.253282443,13.205781 L18.5053282,28.6812555 L1.46551145,20.7525839 C1.51167939,20.9256934 1.5600916,21.0962336 1.60818321,21.2670949 L18.2010687,29.3287299 L3.59629008,26.6087591 C3.67964885,26.786365 3.76429008,26.9620438 3.84925191,27.1357956 L18.067374,30.0314453 L5.96912977,30.8504234 C6.07845802,31.0174307 6.18810687,31.1831533 6.29967939,31.3459854 L18.1122595,30.7457226 L8.29676336,33.9927299 C8.42244275,34.1443212 8.54908397,34.2943066 8.67572519,34.4417226 L18.3328397,31.425635 L10.5333435,36.4422774 C10.6702443,36.5781314 10.8068244,36.7136642 10.9434046,36.8453431 L18.7156489,32.0297518 L12.7445954,38.4739854 C12.8911145,38.5979562 13.0369924,38.7190365 13.1819084,38.8378686 L19.2363206,32.519854 L15.0478626,40.2722044 C15.2043206,40.3852555 15.3598168,40.4950949 15.5124275,40.6017226 L19.8621527,32.8647883 L17.6047328,41.9541606 C17.7762595,42.056292 17.9416947,42.1529635 18.1029618,42.245781 L20.5537099,33.0423942 L20.6418779,43.5474745 C20.8227023,43.6264818 20.9313893,43.6701606 20.9535115,43.6791533 L20.9535115,43.6817226 C20.9535115,43.6817226 20.9547939,43.680438 20.9560763,43.680438 C20.9573588,43.680438 20.9586412,43.6817226 20.9586412,43.6817226 L20.9586412,43.6791533 C20.9765954,43.6720876 21.0545038,43.6409343 21.179542,43.5869781 L21.2680305,33.0423942 L23.7306412,42.2907445 C23.8912672,42.1992117 24.0579847,42.102219 24.2288702,42.0004088 L21.9599084,32.8647883 L26.3346412,40.6466861 C26.4878931,40.5407007 26.6427481,40.432146 26.7995267,40.3200584 L22.5857405,32.519854 L28.680229,38.8796204 C28.825145,38.7611095 28.9707023,38.6406715 29.1172214,38.5170219 L23.1064122,32.0297518 L30.9331603,36.8793869 C31.0697405,36.747708 31.2063206,36.6134599 31.3432214,36.4772847 L23.4889008,31.425635 L33.2168702,34.4642044 C33.3438321,34.3167883 33.4701527,34.1677664 33.5964733,34.0164964 L23.7098015,30.7457226 L35.6095878,31.3504818 C35.7208397,31.1879708 35.8304885,31.0225693 35.9398168,30.8562044" id="Fill-112" fill="#AB382C" sketch:type="MSShapeGroup"></path>
                <path d="M20.9647328,0.115620438 L20.9586412,0.112408759 L20.9586412,0.110160584 L20.9535115,0.110160584 L20.9535115,0.112408759 L0.161587786,10.4174015 C0.161587786,35.3275036 20.6091756,43.5416934 20.9535115,43.6791533 L20.9535115,43.6817226 C20.9535115,43.6817226 20.9547939,43.680438 20.9560763,43.680438 C20.9573588,43.680438 20.9586412,43.6817226 20.9586412,43.6817226 L20.9586412,43.6791533 C20.9599237,43.6791533 20.9631298,43.6772263 20.9647328,43.6765839 L20.9647328,0.115620438" id="Fill-113" fill="#AB382C" sketch:type="MSShapeGroup"></path>
                <path d="M20.9647328,26.9549781 L20.9108702,27.356438 L17.4873893,1.8300146 L17.4812977,1.83322628 L17.2164733,1.96426277 L20.2023206,27.446365 L11.1399389,4.97649635 L10.9228855,5.08376642 L10.860687,5.11459854 L19.5383359,27.7097226 L5.05218321,7.99290511 L4.77485496,8.1310073 L18.9605954,28.1301314 L0.225068702,12.7754161 C0.227633588,12.8226277 0.231160305,12.8675912 0.233725191,12.9141606 C0.240137405,13.0111533 0.246870229,13.1078248 0.253282443,13.205781 L18.5053282,28.6812555 L1.46551145,20.7525839 C1.51007634,20.9189489 1.55624427,21.0824234 1.60241221,21.246219 C1.60433588,21.2532847 1.60625954,21.2600292 1.60818321,21.2670949 L18.2010687,29.3287299 L3.59629008,26.6087591 C3.5969313,26.6100438 3.59757252,26.6106861 3.59821374,26.6119708 C3.68029008,26.7870073 3.76364885,26.9601168 3.84732824,27.1319416 C3.84829008,27.1332263 3.84861069,27.1345109 3.84925191,27.1357956 L18.067374,30.0314453 L5.96912977,30.8504234 C6.07749618,31.0155036 6.18618321,31.1799416 6.29647328,31.3418102 C6.29775573,31.3430949 6.29839695,31.3447007 6.29967939,31.3459854 L18.1122595,30.7457226 L8.29676336,33.9927299 C8.29836641,33.9949781 8.30029008,33.9975474 8.30221374,33.9994745 C8.42629008,34.1488175 8.55068702,34.2962336 8.67572519,34.4417226 L18.3328397,31.425635 L10.5333435,36.4422774 C10.547771,36.4560876 10.5621985,36.470219 10.576626,36.4840292 C10.698458,36.6051095 10.8199695,36.7261898 10.9418015,36.8437372 C10.9421221,36.8440584 10.9427634,36.8447007 10.9434046,36.8453431 L18.7156489,32.0297518 L12.7445954,38.4739854 C12.7452366,38.4746277 12.7455573,38.4746277 12.7455573,38.4746277 C12.8920763,38.5985985 13.037313,38.7190365 13.1819084,38.8378686 L19.2363206,32.519854 L15.0478626,40.2722044 C15.1918168,40.3759416 15.3348092,40.4767883 15.4755573,40.5760292 C15.4877405,40.5840584 15.5002443,40.5933723 15.5124275,40.6017226 L19.8621527,32.8647883 L17.6047328,41.9541606 C17.6076183,41.9560876 17.6105038,41.9570511 17.6133893,41.9589781 C17.7817099,42.0595036 17.9442595,42.1542482 18.1029618,42.245781 L20.5537099,33.0423942 L20.6418779,43.5474745 C20.7746107,43.6056058 20.8675878,43.6444672 20.9172824,43.6647007 C20.9185649,43.6653431 20.9201679,43.6659854 20.9214504,43.6666277 C20.9371603,43.6727299 20.9480611,43.6772263 20.9535115,43.6791533 L20.9535115,43.6817226 C20.9535115,43.6817226 20.9547939,43.680438 20.9560763,43.680438 C20.9573588,43.680438 20.9586412,43.6817226 20.9586412,43.6817226 L20.9586412,43.6791533 C20.9599237,43.6791533 20.9631298,43.6772263 20.9647328,43.6765839 L20.9647328,26.9549781" id="Fill-114" fill="#E74C3C" sketch:type="MSShapeGroup"></path>
                <path d="M20.9586412,0.112408759 L20.9586412,0.110160584 L20.9535115,0.110160584 L20.9535115,0.112408759 L0.161587786,10.4174015 C0.161587786,35.3275036 20.6091756,43.5416934 20.9535115,43.6791533 L20.9535115,43.6817226 C20.9535115,43.6817226 20.9547939,43.680438 20.9560763,43.680438 C20.9573588,43.680438 20.9586412,43.6817226 20.9586412,43.6817226 L20.9586412,43.6791533 C21.3036183,43.5416934 41.7505649,35.3275036 41.7505649,10.4174015 L20.9586412,0.112408759 L20.9586412,0.112408759 Z M20.9583206,40.7176642 L20.9583206,40.7189489 L20.9560763,40.7189489 L20.9531908,40.7189489 L20.9531908,40.7176642 C20.6559847,40.5985109 2.98969466,33.4994161 2.98969466,11.9789197 L20.9531908,3.07389781 L20.9531908,3.0719708 L20.9560763,3.07325547 L20.9583206,3.0719708 L20.9583206,3.07389781 L38.9227786,11.9789197 C38.9227786,33.4994161 21.2558473,40.5985109 20.9583206,40.7176642 L20.9583206,40.7176642 Z" id="Fill-115" fill="#FBC13D" sketch:type="MSShapeGroup"></path>
                <path d="M20.9586412,0.110160584 L20.9535115,0.110160584 L20.9535115,0.112408759 L20.9326718,0.122686131 L20.9326718,3.08385401 L20.9531908,3.07389781 L20.9531908,3.0719708 L20.9560763,3.07325547 L20.9583206,3.0719708 L20.9583206,3.07389781 L38.9227786,11.9789197 C38.9227786,33.4994161 21.2558473,40.5985109 20.9583206,40.7176642 L20.9583206,40.7189489 L20.9560763,40.7189489 L20.9531908,40.7189489 L20.9531908,40.7176642 C20.9493435,40.7157372 20.9413282,40.7125255 20.9326718,40.7089927 L20.9326718,43.6708029 C20.940687,43.6740146 20.9496641,43.6778686 20.9535115,43.6791533 L20.9535115,43.6817226 C20.9535115,43.6817226 20.9547939,43.680438 20.9560763,43.680438 C20.9573588,43.680438 20.9586412,43.6817226 20.9586412,43.6817226 L20.9586412,43.6791533 C21.3036183,43.5416934 41.7505649,35.3275036 41.7505649,10.4174015 L20.9586412,0.112408759 L20.9586412,0.110160584" id="Fill-116" fill="#C27327" sketch:type="MSShapeGroup"></path>
                <path d="M20.9583206,0.865868613 L20.9583206,0.863941606 L20.9535115,0.863941606 L20.9535115,0.865868613 L0.881038168,10.8146861 C0.881038168,34.8627737 20.6210382,42.7927299 20.9535115,42.9256934 L20.9535115,42.9276204 C20.9535115,42.9276204 20.9547939,42.9263358 20.9560763,42.9263358 C20.9573588,42.9263358 20.9583206,42.9276204 20.9583206,42.9276204 L20.9583206,42.9256934 C21.2917557,42.7927299 41.0307939,34.8627737 41.0307939,10.8146861 L20.9583206,0.865868613 L20.9583206,0.865868613 Z M20.9583206,41.8523504 L20.9583206,41.853635 L20.9560763,41.853635 L20.9528702,41.853635 L20.9528702,41.8523504 C20.6380305,41.7264526 1.90635115,34.1989197 1.90635115,11.3809051 L20.9528702,1.93921168 L20.9528702,1.93728467 L20.9560763,1.93856934 L20.9583206,1.93728467 L20.9583206,1.93921168 L40.0058015,11.3809051 C40.0058015,34.1989197 21.2741221,41.7264526 20.9583206,41.8523504 L20.9583206,41.8523504 Z" id="Fill-117" fill="#C27327" sketch:type="MSShapeGroup"></path>
                <path d="M41.0307939,10.8146861 L20.9583206,0.865868613 L20.9583206,0.863941606 L20.9535115,0.863941606 L20.9535115,0.865868613 L20.9326718,0.876467153 L20.9326718,1.94916788 L20.9528702,1.93921168 L20.9528702,1.93728467 L20.9560763,1.93856934 L20.9583206,1.93728467 L20.9583206,1.93921168 L40.0058015,11.3809051 C40.0058015,34.1989197 21.2741221,41.7264526 20.9583206,41.8523504 L20.9583206,41.853635 L20.9560763,41.853635 L20.9528702,41.853635 L20.9528702,41.8523504 C20.9493435,41.8504234 20.940687,41.8475328 20.9326718,41.8443212 L20.9326718,42.9170219 C20.9410076,42.9205547 20.9496641,42.9237664 20.9535115,42.9256934 L20.9535115,42.9276204 C20.9535115,42.9276204 20.9547939,42.9263358 20.9560763,42.9263358 C20.9573588,42.9263358 20.9583206,42.9276204 20.9583206,42.9276204 L20.9583206,42.9256934 C21.2917557,42.7927299 41.0307939,34.8627737 41.0307939,10.8146861" id="Fill-118" fill="#FF9834" sketch:type="MSShapeGroup"></path>
                <path d="M32.5256336,21.3239416 C32.5256336,27.7643212 27.3137863,32.9858686 20.8845802,32.9858686 C14.455374,32.9858686 9.24384733,27.7643212 9.24384733,21.3239416 C9.24384733,14.8832409 14.455374,9.66169343 20.8845802,9.66169343 C27.3137863,9.66169343 32.5256336,14.8832409 32.5256336,21.3239416" id="Fill-120" fill="#AB382C" sketch:type="MSShapeGroup"></path>
                <path d="M20.9647328,9.66362044 C20.9378015,9.66362044 20.9115115,9.66169343 20.8845802,9.66169343 C14.455374,9.66169343 9.24384733,14.8832409 9.24384733,21.3239416 C9.24384733,27.7643212 14.455374,32.9858686 20.8845802,32.9858686 C20.9115115,32.9858686 20.9378015,32.9839416 20.9647328,32.9839416 L20.9647328,9.66362044" id="Fill-121" fill="#E74C3C" sketch:type="MSShapeGroup"></path>
                <path d="M31.8497863,21.3528467 C31.8497863,27.4187445 26.9402748,32.3364672 20.8845802,32.3364672 C14.8292061,32.3364672 9.91873282,27.4187445 9.91873282,21.3528467 C9.91873282,15.2856642 14.8292061,10.3685839 20.8845802,10.3685839 C26.9402748,10.3685839 31.8497863,15.2856642 31.8497863,21.3528467" id="Fill-122" fill="#3B3B3B" sketch:type="MSShapeGroup"></path>
                <path d="M26.3522748,13.506073 C27.2034962,15.2211095 26.4192824,16.9011387 25.738626,17.204 C25.1849313,17.4493723 24.2731145,17.4673577 23.9919389,16.6255766 C23.1596336,14.1390949 22.8223511,11.9525839 20.2706107,11.6869781 C19.0513282,11.562365 16.9519695,12.1488175 17.5172061,13.632292 C17.7502901,14.2425109 18.6130534,14.1744234 18.6130534,14.1744234 C18.6130534,14.1744234 17.9410534,13.7501606 18.5572672,13.632292 C19.1738015,13.513781 20.2052061,14.862365 19.4825496,16.1916788 C18.3264275,18.3181314 14.3841985,16.9933139 15.6175878,13.3294307 C15.6243206,13.3098394 15.6105344,13.1046131 15.6175878,13.0853431 C12.9263817,14.8373139 11.0944122,18.0451387 11.0944122,21.548438 C11.0944122,25.4708613 13.3322748,28.8595036 16.5755725,30.4521752 C16.5531298,30.4184526 16.6582901,30.2546569 16.6384122,30.2212555 C16.0549008,29.6768759 13.986,27.7530803 13.3989618,24.0175766 C13.3989618,24.0175766 14.5159695,27.2642628 16.1850687,29.093635 C16.1167786,28.5865109 16.1154962,28.2072117 16.2709924,27.7434453 C15.8311145,27.0047591 14.9276336,25.2087883 14.8888397,22.8883504 C15.2896031,24.9335474 15.9314656,26.3428321 16.5749313,27.0731679 C16.7352366,26.7963212 16.9269618,26.5467737 17.1388855,26.3376934 C16.9567786,25.9050803 16.7070229,24.9698394 16.5845496,22.9663942 C16.6746412,23.4536058 16.9263206,25.0645839 17.5319542,26.0142774 C18.0221679,25.6780146 18.5704122,25.5495474 19.0587023,25.7432117 C19.6745954,25.9898686 18.3453435,30.3901898 18.1414351,31.052438 C18.9721374,31.2904234 19.8477252,31.4221022 20.7544122,31.4221022 C21.7005344,31.4221022 22.614916,31.280146 23.4799237,31.02 C23.2436336,30.2533723 21.9656794,25.9860146 22.5719542,25.7432117 C23.0589618,25.5495474 23.6062443,25.6780146 24.0974198,26.0129927 C24.7027328,25.0632993 24.953771,23.4536058 25.0448244,22.9663942 C24.9220305,24.9685547 24.6725954,25.9050803 24.4901679,26.3376934 C24.7027328,26.5467737 24.8957405,26.7950365 25.0557252,27.0718832 C25.6988702,26.3402628 26.3404122,24.9322628 26.7405344,22.8883504 C26.7017405,25.206219 25.8001832,26.9989781 25.3596641,27.7411971 C25.5148397,28.2033577 25.5796031,28.7066277 25.512916,29.2134307 C27.1788092,27.3811679 28.2307328,24.0175766 28.2307328,24.0175766 C27.6478626,27.7254599 25.7261221,29.7754745 25.1265802,30.3381606 C25.123374,30.3449051 25.1198473,30.3513285 25.1166412,30.356146 C28.2592672,28.7284672 30.4144122,25.395708 30.4144122,21.548438 C30.4144122,18.2301314 28.8100763,15.2952993 26.3522748,13.506073 L26.3522748,13.506073 Z M18.827542,12.6212555 C18.827542,12.6212555 19.2725496,12.1501022 20.141084,12.5069197 C19.6784427,12.6899854 18.9169924,12.7917956 18.827542,12.6212555 L18.827542,12.6212555 Z" id="Fill-123" fill="#AB382C" sketch:type="MSShapeGroup"></path>
                <path d="M26.5725344,13.3425985 C27.4381832,15.0492847 26.6421069,16.7228905 25.9499084,17.0244672 C25.3862748,17.2685547 24.4609924,17.288146 24.174687,16.4489343 C23.3279542,13.9724088 22.9861832,11.7936058 20.3934046,11.5308905 C19.1552061,11.4065985 17.0202595,11.9901606 17.5947939,13.4672117 C17.8317252,14.0751825 18.6130534,14.1744234 18.6130534,14.1744234 C18.6130534,14.1744234 18.0263359,13.5854015 18.6524885,13.4672117 C19.2789618,13.3499854 20.3263969,14.6937518 19.5921985,16.0172847 C18.4171603,18.1350657 14.345084,16.7630365 15.5983511,13.1148905 C15.6047634,13.0940146 15.6111756,13.0760292 15.6188702,13.0551533 C12.8837405,14.8016642 11.0678015,17.864 11.0678015,21.3528467 C11.0678015,25.2595328 13.342855,28.6337226 16.6384122,30.2212555 C16.6156489,30.1875328 16.5983359,30.1522044 16.5771756,30.1184818 C15.9837252,29.5766715 14.0068397,27.5314745 13.4101832,23.8104234 C13.4101832,23.8104234 14.4810229,27.1679124 16.1770534,28.9918248 C16.1081221,28.4863066 16.1709618,27.984 16.3280611,27.5228029 C15.8824122,26.7857226 14.9638626,24.9981022 14.9244275,22.6860146 C15.3309618,24.7244672 15.9837252,26.1270073 16.637771,26.8547737 C16.8006412,26.5795328 16.9949313,26.3315912 17.2107023,26.1234745 C17.0260305,25.6918248 16.7717863,24.7591533 16.6470687,22.7650219 C16.7397252,23.2490219 16.9942901,24.854219 17.6105038,25.8003796 C18.1090534,25.4647591 18.665313,25.3359708 19.1616183,25.5312409 C19.7874504,25.7753285 18.4373588,30.1592701 18.2296031,30.8192701 C19.0744122,31.056292 19.9637863,31.1847591 20.8845802,31.1847591 C21.8470534,31.1847591 22.7752214,31.0450511 23.6543359,30.7865109 C23.4151603,30.0224526 22.1154046,25.7714745 22.7325802,25.5312409 C23.2272824,25.3359708 23.7832214,25.4647591 24.2827328,25.7990949 C24.8976641,24.8529343 25.1525496,23.2496642 25.2452061,22.7650219 C25.1198473,24.7591533 24.8665649,25.6905401 24.6809313,26.1221898 C24.8976641,26.3303066 25.0935573,26.5782482 25.2561069,26.8534891 C25.9091908,26.1247591 26.561313,24.7231825 26.9681679,22.6860146 C26.9284122,24.9955328 26.0121069,26.7818686 25.564855,27.5202336 C25.7225954,27.980146 25.7883206,28.4818102 25.7203511,28.9857226 C27.4134962,27.1614891 28.481771,23.8104234 28.481771,23.8104234 C27.8896031,27.5044964 25.9364427,29.5471241 25.3282443,30.1053139 C25.3240763,30.1133431 25.3215115,30.1197664 25.3176641,30.1255474 C28.5112672,28.5039708 30.7013588,25.1843796 30.7013588,21.3528467 C30.7013588,18.0470657 29.0700916,15.1250803 26.5725344,13.3425985 L26.5725344,13.3425985 Z M18.9269313,12.4606715 C18.9269313,12.4606715 19.2398473,12.134365 20.0888244,12.3694599 C19.6188092,12.5528467 19.0183053,12.6305693 18.9269313,12.4606715 L18.9269313,12.4606715 Z" id="Fill-124" fill="#1A1A1A" sketch:type="MSShapeGroup"></path>
                <path d="M31.8497863,21.3528467 C31.8497863,15.2856642 26.9402748,10.3685839 20.8845802,10.3685839 L20.8845802,32.3364672 C26.9402748,32.3364672 31.8497863,27.4187445 31.8497863,21.3528467" id="Fill-125" fill="#1A1A1A" sketch:type="MSShapeGroup"></path>
                <path d="M26.5725344,13.3425985 C26.6036336,13.4032993 26.5462443,13.553927 26.5725344,13.6139854 C27.2961527,15.2590073 26.616458,16.9306861 25.9499084,17.2216642 C25.3862748,17.4673577 24.4609924,17.4856642 24.174687,16.6451679 C23.3853435,14.3285839 23.0323511,12.2731095 20.8845802,11.7936058 L20.8845802,31.4221022 C21.8470534,31.4221022 22.7752214,31.280146 23.6543359,31.02 C23.4151603,30.2546569 22.1154046,25.9934015 22.7325802,25.7505985 C23.2272824,25.5569343 23.7832214,25.6841168 24.2827328,26.0190949 C24.8976641,25.0719708 25.1525496,23.4642044 25.2452061,22.9782774 C25.1198473,24.9778686 24.8665649,25.9118248 24.6809313,26.3441168 C24.8976641,26.5525547 25.0935573,26.8001752 25.2561069,27.0767007 C25.9091908,26.3466861 26.561313,24.9415766 26.9681679,22.8992701 C26.9284122,25.213927 26.0121069,27.0060438 25.564855,27.7460146 C25.7225954,28.2072117 25.7883206,28.7101606 25.7203511,29.216 C27.4134962,27.3853431 28.481771,24.0262482 28.481771,24.0262482 C27.8896031,27.7305985 25.9258626,29.5651095 25.3176641,30.1255474 C25.3141374,30.1316496 25.3215115,30.352292 25.3176641,30.3574307 C28.5112672,28.7310365 30.7013588,25.4037372 30.7013588,21.561927 C30.7013588,18.2471533 29.0700916,15.130219 26.5725344,13.3425985" id="Fill-126" fill="#E74C3C" sketch:type="MSShapeGroup"></path>
                <path d="M26.5725344,13.3425985 C27.4381832,15.0492847 26.6421069,16.7228905 25.9499084,17.0244672 C25.3862748,17.2685547 24.4609924,17.288146 24.174687,16.4489343 C23.3853435,14.1390949 23.0323511,12.088438 20.8845802,11.6105401 L20.8845802,31.1847591 C21.8470534,31.1847591 22.7752214,31.0450511 23.6543359,30.7865109 C23.4151603,30.0224526 22.1154046,25.7714745 22.7325802,25.5312409 C23.2272824,25.3359708 23.7832214,25.4647591 24.2827328,25.7990949 C24.8976641,24.8529343 25.1525496,23.2496642 25.2452061,22.7650219 C25.1198473,24.7591533 24.8665649,25.6905401 24.6809313,26.1221898 C24.8976641,26.3303066 25.0935573,26.5782482 25.2561069,26.8534891 C25.9091908,26.1247591 26.561313,24.7231825 26.9681679,22.6860146 C26.9284122,24.9955328 26.0121069,26.7818686 25.564855,27.5202336 C25.7225954,27.980146 25.7883206,28.4818102 25.7203511,28.9857226 C27.4134962,27.1614891 28.481771,23.8104234 28.481771,23.8104234 C27.8896031,27.5044964 25.9364427,29.5471241 25.3282443,30.1053139 C25.3240763,30.1133431 25.3215115,30.1197664 25.3176641,30.1255474 C28.5112672,28.5039708 30.7013588,25.1843796 30.7013588,21.3528467 C30.7013588,18.0470657 29.0700916,15.1250803 26.5725344,13.3425985" id="Fill-127" fill="#3B3B3B" sketch:type="MSShapeGroup"></path>
                <path d="M20.8845802,15.8351825 L21.9573435,19.1435328 L25.4298779,19.1435328 L22.620687,21.1877664 L23.6940916,24.4954745 L20.8845802,22.4518832 L18.0753893,24.4954745 L19.1484733,21.1877664 L16.3392824,19.1428905 L19.8118168,19.1435328 L20.8845802,15.8351825" id="Fill-129" fill="#3B3B3B" sketch:type="MSShapeGroup"></path>
                <path d="M23.6940916,24.4954745 L22.620687,21.1877664 L25.4298779,19.1435328 L21.9573435,19.1435328 L20.8845802,15.8351825 L20.8845802,22.4518832 L23.6940916,24.4954745" id="Fill-130" fill="#1A1A1A" sketch:type="MSShapeGroup"></path>
                <g id="Fill-133-+-Fill-181-+-Group" transform="translate(9.297710, 9.635036)" sketch:type="MSShapeGroup">
                    <path d="M23.3039084,11.6718832 C23.3039084,18.1177226 18.0869313,23.3431241 11.6522748,23.3431241 C5.21793893,23.3431241 0,18.1177226 0,11.6718832 C0,5.2260438 5.21793893,0 11.6522748,0 C18.0869313,0 23.3039084,5.2260438 23.3039084,11.6718832" id="Fill-133" fill="#FBC13D"></path>
                    <g id="Fill-181-+-Group" transform="translate(0.961832, 0.963504)">
                        <path d="M21.1603053,10.5988708 C21.1603053,16.4522254 16.4232192,21.1970803 10.5804828,21.1970803 C4.73774639,21.1970803 0,16.4522254 0,10.5988708 C0,4.74551627 4.73774639,0 10.5804828,0 C16.4232192,0 21.1603053,4.74551627 21.1603053,10.5988708" id="Fill-181" fill="#C27327"></path>
                        <g id="Group" transform="translate(1.322519, 1.324818)">
                            <path d="M14.3440116,1.91929325 C15.1384655,3.52433376 14.4067932,5.09581122 13.771528,5.37906624 C13.2548031,5.60887692 12.4041649,5.62619288 12.1417589,4.83842327 C11.3651818,2.51124279 11.0508479,0.465607117 8.66982706,0.217625365 C7.53230863,0.10090292 5.57309542,0.648814325 6.10067412,2.03751214 C6.31774967,2.6085115 7.1232702,2.54459206 7.1232702,2.54459206 C7.1232702,2.54459206 6.49630495,2.14803504 7.07112951,2.03751214 C7.64659252,1.92656168 8.60874796,3.18870328 7.93453685,4.43246004 C6.85533088,6.42208604 3.17760292,5.1819635 4.32852895,1.75404334 C4.33427507,1.73587226 4.32171874,1.54390018 4.32852895,1.52551533 C1.81747565,3.16540155 0.107686496,6.16683586 0.107686496,9.44489808 C0.107686496,13.1146005 2.19586812,16.2849189 5.22173098,17.7751609 C5.20151316,17.7437357 5.29919716,17.5902435 5.28068189,17.5586045 C4.73607765,17.0493868 2.80623348,15.2489537 2.25758568,11.754335 C2.25758568,11.754335 3.3006124,14.7921115 4.85802303,16.5036131 C4.79417728,16.0292411 4.79290037,15.6745845 4.93825586,15.2406164 C4.52751487,14.5490466 3.68453817,12.8687565 3.64814609,10.6982748 C4.02185654,12.6113685 4.62094248,13.9303749 5.22130534,14.6136074 C5.37091722,14.3545092 5.54968531,14.1210643 5.74803277,13.925458 C5.57799026,13.5205637 5.34495328,12.6455729 5.23066939,10.7709591 C5.31452014,11.2267325 5.54925967,12.733863 6.11450737,13.6227493 C6.57185575,13.3078552 7.08304738,13.1874985 7.53911885,13.368568 C8.11373059,13.5996613 6.87320769,17.7167997 6.68316017,18.3367541 C7.45846038,18.5590826 8.27547315,18.6822183 9.12100369,18.6822183 C10.0042032,18.6822183 10.8571824,18.5494626 11.6641927,18.3066115 C11.4441377,17.5889609 10.2514991,13.5955995 10.8167468,13.368568 C11.2715413,13.1874985 11.7820945,13.3078552 12.2402942,13.6216804 C12.8051162,12.7330078 13.0396429,11.2267325 13.1241321,10.7709591 C13.0098482,12.6440765 12.7770241,13.5205637 12.6069816,13.925458 C12.8051162,14.1210643 12.9851612,14.3534403 13.1347731,14.6121109 C13.7344975,13.9275958 14.3331578,12.6096583 14.7064426,10.6982748 C14.6702634,12.8666187 13.829202,14.5441297 13.4182482,15.2382649 C13.5627524,15.6707365 13.6234059,16.1414743 13.5612627,16.6152049 C15.1156939,14.9013517 16.0972158,11.754335 16.0972158,11.754335 C15.5532501,15.2235142 13.7600358,17.1417386 13.2005342,17.6680585 C13.1973419,17.674258 13.1943625,17.68003 13.191383,17.6853745 C16.1233926,16.1624245 18.1341081,13.0438401 18.1341081,9.44489808 C18.1341081,6.33914042 16.6373509,3.59359763 14.3440116,1.91929325 L14.3440116,1.91929325 Z M7.32353304,1.09197482 C7.32353304,1.09197482 7.7385304,0.650738321 8.54894578,0.984872354 C8.11713569,1.15589425 7.40717097,1.25102518 7.32353304,1.09197482 L7.32353304,1.09197482 Z" id="Fill-178" fill="#B32829"></path>
                            <path d="M14.5493821,1.76622865 C15.3572436,3.36357318 14.6145047,4.9297062 13.9690242,5.211251 C13.4433609,5.43977901 12.5797407,5.45816387 12.312227,4.6727458 C11.5224551,2.35561286 11.2040777,0.317459398 8.78411095,0.0718291971 C7.62892853,-0.0448932482 5.63694117,0.500880383 6.17324546,1.88337865 C6.39393893,2.45181268 7.1232702,2.54459206 7.1232702,2.54459206 C7.1232702,2.54459206 6.57547368,1.99390155 7.16008792,1.88337865 C7.74470216,1.77349708 8.72175494,3.03050803 8.03690287,4.26892035 C6.94024572,6.25063659 3.14078521,4.96711724 4.31022651,1.55373394 C4.31639826,1.5342802 4.3223572,1.51739179 4.32938023,1.49793805 C1.77725283,3.13162473 0.0829994735,5.99666907 0.0829994735,9.26104954 C0.0829994735,12.9164288 2.20587062,16.0734931 5.28068189,17.5586045 C5.25961279,17.5271792 5.24322572,17.4944713 5.22343354,17.4632598 C4.66946525,16.9555385 2.82517439,15.042231 2.26865228,11.5608665 C2.26865228,11.5608665 3.26741261,14.7021112 4.85057436,16.408696 C4.78587734,15.9358204 4.84440261,15.465724 4.99146065,15.0338937 C4.57518636,14.3446755 3.71837641,12.6720813 3.6815587,10.508013 C4.06080245,12.4153347 4.66946525,13.7287828 5.28025625,14.4085949 C5.43220913,14.1514207 5.61353106,13.9192585 5.81485799,13.7249349 C5.64247447,13.3213232 5.40560674,12.4484702 5.28898184,10.5821937 C5.37538642,11.0362568 5.61246696,12.536974 6.18750434,13.4222261 C6.65293985,13.1084009 7.17179297,12.9880443 7.63510029,13.1703964 C8.21886325,13.3989244 6.95918663,17.5002432 6.76573401,18.1184874 C7.55359055,18.3401745 8.38358529,18.460745 9.24273625,18.460745 C10.1406203,18.460745 11.0063686,18.3292719 11.8265737,18.0877035 C11.6035392,17.3726182 10.3911084,13.3952901 10.9665715,13.1703964 C11.4281762,12.9880443 11.947455,13.1084009 12.4131033,13.4205159 C12.9868638,12.5356913 13.2245828,11.0362568 13.3109874,10.5821937 C13.1943625,12.4484702 12.9577076,13.3200405 12.7846856,13.7234384 C12.9868638,13.9181896 13.1696754,14.150138 13.3216283,14.4077398 C13.9307168,13.7260037 14.5398052,12.414052 14.9188361,10.508013 C14.8818056,12.669516 14.026911,14.341255 13.6093598,15.0317559 C13.7564179,15.461876 13.8183482,15.9309036 13.7549281,16.4027102 C15.334472,14.6959117 16.3311041,11.5608665 16.3311041,11.5608665 C15.7788384,15.0167915 13.9558294,16.9279612 13.3884535,17.4504331 C13.3852613,17.4577016 13.3827074,17.4641149 13.3790895,17.4686042 C16.3589834,15.9520675 18.4026858,12.8460961 18.4026858,9.26104954 C18.4026858,6.16854608 16.8803904,3.43390593 14.5493821,1.76622865 L14.5493821,1.76622865 Z M7.41568373,0.941047993 C7.41568373,0.941047993 7.70831008,0.635773905 8.49999737,0.855537044 C8.06180271,1.02720027 7.50144986,1.10031214 7.41568373,0.941047993 L7.41568373,0.941047993 Z" id="Fill-177" fill="#FBC13D"></path>
                            <path d="M14.5493821,1.76622865 C15.3572436,3.36357318 14.6145047,4.9297062 13.9690242,5.211251 C13.4433609,5.43977901 12.5797407,5.45816387 12.312227,4.6727458 C11.5758727,2.51124279 11.2468543,0.593018431 9.24273625,0.1464375 L9.24273625,18.460745 C10.1406203,18.460745 11.0063686,18.3292719 11.8265737,18.0877035 C11.6035392,17.3726182 10.3911084,13.3952901 10.9665715,13.1703964 C11.4281762,12.9880443 11.947455,13.1084009 12.4131033,13.4205159 C12.9868638,12.5356913 13.2245828,11.0362568 13.3109874,10.5821937 C13.1943625,12.4484702 12.9577076,13.3200405 12.7846856,13.7234384 C12.9868638,13.9181896 13.1696754,14.150138 13.3216283,14.4077398 C13.9307168,13.7260037 14.5398052,12.414052 14.9188361,10.508013 C14.8818056,12.669516 14.026911,14.341255 13.6093598,15.0317559 C13.7564179,15.461876 13.8183482,15.9309036 13.7549281,16.4027102 C15.334472,14.6959117 16.3311041,11.5608665 16.3311041,11.5608665 C15.7788384,15.0167915 13.9558294,16.9279612 13.3884535,17.4504331 C13.3852613,17.4577016 13.3827074,17.4641149 13.3790895,17.4686042 C16.3589834,15.9520675 18.4026858,12.8460961 18.4026858,9.26104954 C18.4026858,6.16854608 16.8803904,3.43390593 14.5493821,1.76622865" id="Fill-175" fill="#FBC13D"></path>
                            <path d="M10.2438376,7.37745712 L13.4833709,7.19403613 L13.4833709,7.37745712 L10.8622901,9.29033704 L11.8640299,12.2015573 L11.8640299,12.3854058 L9.24273625,10.473381 L6.6212298,12.3854058 L6.6212298,12.2015573 L7.6229696,9.29033704 L5.00167597,7.37745712 L5.00167597,7.19403613 L8.24184772,7.37745712 L9.24273625,4.28281588 L10.2438376,7.37745712 Z" id="Fill-176" fill="#B32829"></path>
                            <path d="M10.2438376,7.16367974 L13.4833709,6.98025876 L13.4833709,7.16367974 L10.8622901,9.07655967 L11.8640299,11.9877799 L11.8640299,12.1716285 L9.24273625,10.2596036 L6.6212298,12.1716285 L6.6212298,11.9877799 L7.6229696,9.07655967 L5.00167597,7.16367974 L5.00167597,6.98025876 L8.24184772,7.16367974 L9.24273625,4.0690385 L10.2438376,7.16367974 Z" id="Fill-179" fill="#FF9834"></path>
                        </g>
                    </g>
                </g>
            </g>
            <polygon id="Star-40" fill="#E74C3C" sketch:type="MSShapeGroup" points="24.0027503 10.0266518 21.6516093 11.2627198 22.1006373 8.6446858 20.1985242 6.79058383 22.8271798 6.40861782 24.0027503 4.02665181 25.1783208 6.40861782 27.8069764 6.79058383 25.9048633 8.6446858 26.3538913 11.2627198 "></polygon>
        </g>
    </g>
</svg>