<svg xmlns="http://www.w3.org/2000/svg" viewBox="-12 18 48 48"><path fill="#E9EFF0" d="M-11.9,16.5c0,24.9,20.6,33.1,21,33.3c0.4-0.1,21-8.4,21-33.3L9,6.2L-11.9,16.5z" transform="translate(3 14)"/><path fill="#D9DFE0" d="M9,6.2L9,6.2L9,6.2L9,6.2l0,43.6l0,0v0l0,0l0,0v0c0.3-0.1,21-8.4,21-33.3L9,6.2L9,6.2" transform="translate(3 14)"/><path fill="#2C3E50" d="M9,6.2L9,6.2L9,6.2L9,6.2l-21,10.3c0,24.9,20.6,33.1,21,33.3v0l0,0l0,0v0 c0.3-0.1,21-8.4,21-33.3L9,6.2 M9,46.8L9,46.8L9,46.8L9,46.8C8.7,46.7-9.1,39.6-9.1,18.1L9,9.2v0l0,0l0,0v0l18.1,8.9 C27.2,39.6,9.3,46.7,9,46.8" transform="translate(3 14)"/><path fill="#1B2733" d="M9,8.1L9,8.1L9,8.1L9,8.1l-19.1,9.4c0,22.7,18.8,30.2,19.1,30.3v0l0,0l0,0v0 c0.3-0.1,19.1-7.6,19.1-30.3L9,8.1 M9,46.8L9,46.8L9,46.8L9,46.8C8.7,46.7-9.1,39.6-9.1,18.1L9,9.2v0l0,0l0,0v0l18.1,8.9 C27.2,39.6,9.3,46.7,9,46.8" transform="translate(3 14)"/><path fill="#222F3D" d="M9,9.2l18.1,8.9C27.2,39.6,9.3,46.7,9,46.8l0,3c0.4-0.1,21-8.3,21-33.3L14,8.7L9,6.2L9,9.2z" transform="translate(3 14)"/><path fill="#0D1218" d="M28.1,17.5L9,8.1v0h0v0l0,0v1l0,0v0l0,0l0,0v0l18.1,8.9C27.2,39.6,9.3,46.7,9,46.8v0h0v0 l0,0v1l0,0v0l0,0l0,0v0C9.4,47.7,28.1,40.2,28.1,17.5" transform="translate(3 14)"/><path fill="#3E566E" d="M-9.1,18.1l-1-0.5L9,8.1l0,1L-9.1,18.1" transform="translate(3 14)"/><path fill="#3D566E" d="M28.1,17.5l-1,0.5C27.2,39.6,9.3,46.7,9,46.8v0h0v0l0,0v1l0,0v0l0,0l0,0v0 C9.4,47.7,28.1,40.2,28.1,17.5" transform="translate(3 14)"/><g><path fill="#BCC3C7" d="M-3.1,12.1v0.7h-2.8v-0.7c0-0.9-0.5-1.4-1.4-1.4c-0.9,0-1.4,0.5-1.4,1.4v11.6 c0,0.9,0.5,1.4,1.4,1.4c0.9,0,1.4-0.5,1.4-1.4V23h2.8v0.7c0,2.8-1.4,4.1-4.1,4.1c-2.8,0-4.1-1.4-4.1-4.1V12.1 C-11.4,9.4-10,8-7.2,8C-4.5,8-3.1,9.4-3.1,12.1" transform="translate(14.022 23.224)"/><path fill="#E9EFF0" d="M3.3,11.1v-3h2v3h3v2h-3v3h-2v-3h-3v-2H3.3" transform="translate(14.022 23.224)"/><path fill="#E9EFF0" d="M3.3,21.7v-3h2v3h3v2h-3v3h-2v-3h-3v-2H3.3" transform="translate(14.022 23.224)"/><path fill="#2C3E50" d="M-3.1,11.5v0.7h-2.8v-0.7c0-0.9-0.5-1.4-1.4-1.4c-0.9,0-1.4,0.5-1.4,1.4v11.6 c0,0.9,0.5,1.4,1.4,1.4c0.9,0,1.4-0.5,1.4-1.4v-0.7h2.8v0.7c0,2.8-1.4,4.1-4.1,4.1c-2.8,0-4.1-1.4-4.1-4.1V11.5 c0-2.8,1.4-4.1,4.1-4.1C-4.5,7.4-3.1,8.8-3.1,11.5" transform="translate(14.022 23.224)"/><path fill="#222F3D" d="M3.3,10.5v-3h2v3h3v2h-3v3h-2v-3h-3v-2H3.3" transform="translate(14.022 23.224)"/><path fill="#222F3D" d="M3.3,21v-3h2v3h3v2h-3v3h-2v-3h-3v-2H3.3" transform="translate(14.022 23.224)"/></g></svg>