<svg xmlns="http://www.w3.org/2000/svg" viewBox="-12 19 48 48"><path fill="#F6F5F5" d="M-12,17.5c0,24.9,20.6,33.1,21,33.3c0.4-0.1,21-8.4,21-33.3L9,7.2L-12,17.5z" transform="translate(3 14.013)"/><path opacity=".125" fill="#AEAEAE" d="M9,7.2L9,7.2L9,7.2L9,7.2l0,43.6l0,0v0l0,0 l0,0v0c0.3-0.1,21-8.4,21-33.3L9,7.2L9,7.2" transform="translate(3 14.013)"/><path fill="#44BFA3" d="M9,7.2L9,7.2L9,7.2L9,7.2l-21,10.3c0,24.9,20.6,33.1,21,33.3v0l0,0l0,0v0 c0.3-0.1,21-8.4,21-33.3L9,7.2 M9,47.8L9,47.8L9,47.8L9,47.8C8.7,47.7-9.1,40.6-9.1,19.1L9,10.2v0l0,0l0,0v0l18.1,8.9 C27.1,40.6,9.3,47.7,9,47.8" transform="translate(3 14.013)"/><path fill="#37A48C" d="M9,9.1L9,9.1L9,9.1L9,9.1l-19.1,9.4c0,22.7,18.8,30.2,19.1,30.3v0l0,0l0,0v0 c0.3-0.1,19.1-7.6,19.1-30.3L9,9.1 M9,47.8L9,47.8L9,47.8L9,47.8C8.7,47.7-9.1,40.6-9.1,19.1L9,10.1v0l0,0l0,0v0l18.1,8.9 C27.1,40.6,9.3,47.7,9,47.8" transform="translate(3 14.013)"/><path fill="#1EAA8A" d="M9,10.2l18.1,8.9C27.1,40.6,9.3,47.7,9,47.8l0,3c0.4-0.1,21-8.3,21-33.3L14,9.6L9,7.2 L9,10.2z" transform="translate(3 14.013)"/><path fill="#358E7A" d="M28.1,18.5L9,9.1v0h0v0l0,0v1l0,0v0l0,0l0,0v0l18.1,8.9C27.1,40.6,9.3,47.7,9,47.8v0h0v0 l0,0v1l0,0v0l0,0l0,0v0C9.3,48.7,28.1,41.2,28.1,18.5" transform="translate(3 14.013)"/><path fill="#7AE3CB" d="M-9.1,19.1l-1-0.5L9,9.1l0,1L-9.1,19.1" transform="translate(3 14.013)"/><path fill="#7AE2CB" d="M28.1,18.5l-1,0.5C27.1,40.6,9.3,47.7,9,47.8v0h0v0l0,0v1l0,0v0l0,0l0,0v0 C9.3,48.7,28.1,41.2,28.1,18.5" transform="translate(3 14.013)"/><path fill="#1FAA8A" stroke="#FFF" d="M14.6,44.7c-0.1,1.8-0.7,3.2-1.8,4.1 s-2.6,1.4-4.6,1.4c-2,0-3.5-0.6-4.6-1.7S2,45.7,2,43.8v-3.3c0-1.9,0.6-3.5,1.7-4.7c1.1-1.2,2.6-1.8,4.5-1.8c2,0,3.6,0.5,4.6,1.4 s1.6,2.3,1.8,4.2H11c-0.1-1-0.3-1.7-0.7-2.1c-0.4-0.5-1.1-0.7-2.1-0.7c-0.8,0-1.5,0.3-1.9,1c-0.5,0.6-0.7,1.5-0.7,2.6v3.3 c0,1.1,0.2,2,0.6,2.7s1.1,1,2,1c0.9,0,1.6-0.2,2-0.7s0.7-1.1,0.7-2.1H14.6z" transform="translate(0 .013)"/><path fill="#1FAA8A" stroke="#FFF" d="M19.6,44.2h-1.1L18.1,47h-1.4l0.5-2.8h-1.5v-1.3 h1.7l0.3-1.8h-1.5v-1.3h1.7l0.5-2.8h1.4l-0.5,2.8h1.1l0.5-2.8h1.4l-0.5,2.8h1.6v1.3h-1.8l-0.3,1.8h1.6v1.3H21L20.5,47h-1.4 L19.6,44.2z M18.7,42.9h1.1l0.3-1.8H19L18.7,42.9z" transform="translate(0 .013)"/><path fill="#1FAA8A" d="M14.6,44.7c-0.1,1.8-0.7,3.2-1.8,4.1s-2.6,1.4-4.6,1.4 c-2,0-3.5-0.6-4.6-1.7S2,45.7,2,43.8v-3.3c0-1.9,0.6-3.5,1.7-4.7c1.1-1.2,2.6-1.8,4.5-1.8c2,0,3.6,0.5,4.6,1.4s1.6,2.3,1.8,4.2H11 c-0.1-1-0.3-1.7-0.7-2.1c-0.4-0.5-1.1-0.7-2.1-0.7c-0.8,0-1.5,0.3-1.9,1c-0.5,0.6-0.7,1.5-0.7,2.6v3.3c0,1.1,0.2,2,0.6,2.7 s1.1,1,2,1c0.9,0,1.6-0.2,2-0.7s0.7-1.1,0.7-2.1H14.6z" transform="translate(0 .013)"/><path fill="#1FAA8A" d="M19.6,44.2h-1.1L18.1,47h-1.4l0.5-2.8h-1.5v-1.3h1.7l0.3-1.8 h-1.5v-1.3h1.7l0.5-2.8h1.4l-0.5,2.8h1.1l0.5-2.8h1.4l-0.5,2.8h1.6v1.3h-1.8l-0.3,1.8h1.6v1.3H21L20.5,47h-1.4L19.6,44.2z M18.7,42.9h1.1l0.3-1.8H19L18.7,42.9z" transform="translate(0 .013)"/></svg>