<svg xmlns="http://www.w3.org/2000/svg" viewBox="0 6 48 48"><path fill="#E9EFF0" d="M0.1,4.5c0,24.9,20.6,33.1,21,33.3c0.4-0.1,21-8.4,21-33.3L21-5.8L0.1,4.5z" transform="translate(3 14)"/><path fill="#D9DFE0" d="M21-5.8L21-5.8L21-5.8L21-5.8l0,43.6l0,0v0l0,0l0,0v0c0.3-0.1,21-8.4,21-33.3L21-5.8L21-5.8" transform="translate(3 14)"/><path fill="#E74C3C" d="M21-5.8L21-5.8L21-5.8L21-5.8L0.1,4.5c0,24.9,20.6,33.1,21,33.3v0l0,0l0,0v0 c0.3-0.1,21-8.4,21-33.3L21-5.8 M21,34.8L21,34.8L21,34.8L21,34.8C20.7,34.7,2.9,27.6,2.9,6.1L21-2.8v0l0,0l0,0v0l18.1,8.9 C39.2,27.6,21.3,34.7,21,34.8" transform="translate(3 14)"/><path fill="#B3382B" d="M21-3.9L21-3.9L21-3.9L21-3.9L1.9,5.5c0,22.7,18.8,30.2,19.1,30.3v0l0,0l0,0v0 c0.3-0.1,19.1-7.6,19.1-30.3L21-3.9 M21,34.8L21,34.8L21,34.8L21,34.8C20.7,34.7,2.9,27.6,2.9,6.1L21-2.8v0l0,0l0,0v0l18.1,8.9 C39.2,27.6,21.3,34.7,21,34.8" transform="translate(3 14)"/><path fill="#AB382C" d="M21-2.8l18.1,8.9c0,21.5-17.8,28.6-18.1,28.7l0,3c0.4-0.1,21-8.3,21-33.3L26-3.3l-5-2.4 L21-2.8z" transform="translate(3 14)"/><path fill="#79271F" d="M40.1,5.5L21-3.9v0h0v0l0,0v1l0,0v0l0,0l0,0v0l18.1,8.9c0,21.5-17.8,28.6-18.1,28.8v0h0v0 l0,0v1l0,0v0l0,0l0,0v0C21.4,35.7,40.1,28.2,40.1,5.5" transform="translate(3 14)"/><path fill="#F85443" d="M2.9,6.1l-1-0.5L21-3.9l0,1L2.9,6.1" transform="translate(3 14)"/><path fill="#F75443" d="M40.1,5.5l-1,0.5c0,21.5-17.8,28.6-18.1,28.8v0h0v0l0,0v1l0,0v0l0,0l0,0v0 C21.4,35.7,40.1,28.2,40.1,5.5" transform="translate(3 14)"/><g><path fill="#AB382C" d="M8.5,3c-0.3,0.9,0,1.8,0.8,2.9c0.2,0.3,0.4,0.6,0.3,0.9c-0.1,0.6-0.6,1-0.6,1L7.6,8.9 l1.6-0.7c0.1,0,1.5-0.7,1.8-1.8c0.1-0.5,0-0.9-0.3-1.4l-0.1-0.2c-0.4-0.6-0.8-1.1-0.6-1.6c0.2-0.7,1.2-1.6,3.5-2.8l1.1-0.6 l-1.3,0.3C13.1,0,9.2,0.8,8.5,3" transform="translate(15.588 21)"/><path fill="#AB382C" d="M13.8,7.1l-0.3,0.5L14,7.4c0,0,0.1,0,0.4-0.1c0.5-0.1,1.1,0.2,1.3,0.8 c0.1,0.4,0,1.4-2.3,2.6l-0.1,0l0,0.1c0,0,0,0,0,0l-0.6,0.5l0.7-0.2c2.8-0.7,3.6-1.9,3.5-2.9c-0.1-0.9-0.9-1.5-1.9-1.5 c-0.3,0-0.5,0-0.8,0.1C14,6.9,13.8,7.1,13.8,7.1" transform="translate(15.588 21)"/><path fill="#E74C3C" d="M12,11.5c-0.5-0.2-1.2-0.5-1.2-0.5l-0.1,0l-0.1,0c-1.2,0.2-1.7,0.3-2.4,0.3l-0.1,0 c-0.8,0-1.6,0-2.6-0.2c-0.7-0.1-1.1-0.1-1-0.2C4.6,10.7,5,10.5,5,10.5l-0.7,0.1c-0.8,0.3-1.2,0.5-1.1,0.8 c0.1,0.9,4.1,0.9,4.5,0.9h0c0.2,0,0.4,0,0.5,0l0.2,0v0c1.2,0,2.5-0.2,3.6-0.5l0.5-0.1L12,11.5" transform="translate(15.588 21)"/><path fill="#AB382C" d="M12.7,16.9c-1.3,0.2-2.8,0.3-4.4,0.3l-0.3,0c-1.8,0-3.7-0.2-4.9-0.4l-0.9-0.2 c0,0,1.5,1,4,1.2c0.6,0.1,1.3,0.1,1.9,0.1c0.3,0,0.6,0,0.9,0c6.6-0.2,7.7-2.6,7.7-2.6l-0.4,0.4C16.3,15.7,15.5,16.5,12.7,16.9" transform="translate(15.588 21)"/><path fill="#E74C3C" d="M8.2,7.3l0.3,0.3c0,0-0.7-1.3-0.8-1.7C7.2,4.3,6.2,3.3,8.6,1.4l0.1-0.1l0,0 c1.7-1.3,2.6-2.6,2.8-3.9c0.1-1.2-0.5-1.8-0.6-1.9l-0.5-0.5l0.1,0.6C11-2.2,9.8-1.1,8.4,0L8.4,0l0,0C8.3,0.1,8.2,0.2,8.1,0.3 C7.3,0.9,6.5,1.5,6,2.2C4.8,3.8,6.4,5.5,8.2,7.3" transform="translate(15.588 21)"/><path fill="#E74C3C" d="M7.3,10.1L7.3,10.1c0.3,0,0.7,0,1,0l0.2,0l0,0c1.3,0,2.5-0.1,3.4-0.3l0,0l0,0 c0.4-0.2,0.9-0.4,1-0.4l1.5-0.5L12.8,9c0,0-1.6,0.2-3.2,0.2c-0.4,0-0.9,0-1.3,0l-0.2,0v0c-0.3,0-0.5,0-0.8,0 C6.2,9.2,5.3,9.1,4.7,9C4.3,8.9,4.1,8.8,4.1,8.8c0.2-0.2,1.1-0.4,2-0.6L7.3,8L6.1,7.8c0,0-0.1,0-0.3,0c-0.6,0-1.8,0-3.2,0.6 C2.5,8.5,2.1,8.7,2.2,9C2.3,10,7.1,10.1,7.3,10.1" transform="translate(15.588 21)"/><path fill="#AB382C" d="M4.8,12.8c-0.3,0.1-1.1,0.3-1,0.8c0.1,0.7,2.4,1.2,4.3,1.2l0.3,0v0c1.1,0,2.2-0.3,3.2-0.6 l0.4-0.2l-0.4-0.2c-0.7-0.3-1.3-0.6-1.3-0.6l-0.1,0l-0.1,0c-0.9,0.1-1.4,0.2-2,0.2l-0.1,0c-0.6,0-1.1,0-2-0.2 c-0.8-0.1-1-0.2-1.1-0.3c-0.1-0.1,0.1-0.2,0.1-0.2L4.8,12.8" transform="translate(15.588 21)"/><path fill="#E74C3C" d="M8.3,16.7L8.3,16.7c3.4,0,7-0.5,7.2-1.4c0-0.2,0.1-0.5-0.3-0.6c-0.4-0.2-1.2-0.3-1.2-0.3 s1,0.4,0.8,0.6c-0.2,0.2-0.2,0.2-0.9,0.4c-1,0.3-3.1,0.5-5.4,0.5l-0.4,0c-2.8,0-5-0.3-5.9-0.7c0,0-0.1,0-0.1-0.1 c1.3-0.9,2.2-0.8,2.2-0.8S3.7,14,3.1,14c-0.9,0-2.8,0.6-2.8,1.3c-0.1,0.6,0.9,0.7,1.2,0.8c2.2,0.4,4.4,0.6,6.6,0.6L8.3,16.7" transform="translate(15.588 21)"/></g></svg>