<svg xmlns="http://www.w3.org/2000/svg" viewBox="-12 18 48 48"><path fill="#E9EFF0" d="M-11.9,16.6c0,24.9,20.6,33.1,21,33.3c0.4-0.1,21-8.4,21-33.3L9,6.2L-11.9,16.6z" transform="translate(3 14)"/><path fill="#D9DFE0" d="M9,6.2L9,6.2L9,6.2L9,6.2l0,43.6l0,0v0l0,0l0,0v0c0.3-0.1,21-8.4,21-33.3L9,6.2L9,6.2" transform="translate(3 14)"/><path fill="#F2BA3A" d="M9,6.2L9,6.2L9,6.2L9,6.2l-21,10.3c0,24.9,20.6,33.1,21,33.3v0l0,0l0,0v0 c0.3-0.1,21-8.4,21-33.3L9,6.2 M9,46.9L9,46.9L9,46.9L9,46.9C8.7,46.7-9.1,39.6-9.1,18.1L9,9.2v0l0,0l0,0v0l18.1,8.9 C27.2,39.6,9.3,46.7,9,46.9" transform="translate(3 14)"/><path fill="#E1A622" d="M9,8.2L9,8.2L9,8.2L9,8.2l-19.1,9.4c0,22.7,18.8,30.2,19.1,30.3v0l0,0l0,0v0 c0.3-0.1,19.1-7.6,19.1-30.3L9,8.2 M9,46.9L9,46.9L9,46.9L9,46.9C8.7,46.8-9.1,39.6-9.1,18.1L9,9.2v0l0,0l0,0v0l18.1,8.9 C27.2,39.6,9.3,46.8,9,46.9" transform="translate(3 14)"/><path fill="#D39F28" d="M9,9.2l18.1,8.9C27.2,39.6,9.3,46.7,9,46.9l0,3c0.4-0.1,21-8.3,21-33.3L14,8.7L9,6.2L9,9.2z" transform="translate(3 14)"/><path fill="#B8881B" d="M28.1,17.6L9,8.2v0h0v0l0,0v1l0,0v0l0,0l0,0v0l18.1,8.9C27.2,39.6,9.3,46.8,9,46.9v0h0v0 l0,0v1l0,0v0l0,0l0,0v0C9.4,47.8,28.1,40.3,28.1,17.6" transform="translate(3 14)"/><path fill="#FFDA83" d="M-9.1,18.1l-1-0.5L9,8.2l0,1L-9.1,18.1" transform="translate(3 14)"/><path fill="#FFD983" d="M28.1,17.6l-1,0.5C27.2,39.6,9.3,46.8,9,46.9v0h0v0l0,0v1l0,0v0l0,0l0,0v0 C9.4,47.8,28.1,40.3,28.1,17.6" transform="translate(3 14)"/><g><path fill="#9BA3A8" d="M-4,7.1v14.7c0,2.6-1.3,3.9-3.9,3.9c-2.6,0-3.9-1.3-3.9-3.9v-0.7h2.6v0.7 c0,0.9,0.4,1.3,1.3,1.3c0.9,0,1.3-0.4,1.3-1.3V7.1H-4" transform="translate(14 25)"/><path fill="#9BA3A8" d="M2.3,20.8v0.7c0,0.9,0.4,1.3,1.3,1.3c0.9,0,1.3-0.4,1.3-1.3v-1c0-1.2-0.9-2.4-2.6-3.7 C0.6,15.5-0.3,14-0.3,12v-1c0-2.6,1.3-3.9,3.9-3.9S7.6,8.4,7.6,11v0.7H5V11c0-0.9-0.4-1.3-1.3-1.3c-0.9,0-1.3,0.4-1.3,1.3v1 c0,1.2,0.9,2.4,2.6,3.7c1.7,1.2,2.6,2.8,2.6,4.7v1c0,2.6-1.3,3.9-3.9,3.9s-3.9-1.3-3.9-3.9v-0.7H2.3z" transform="translate(14 25)"/><path fill="#F0BC44" d="M-4,6.7v14.7c0,2.6-1.3,3.9-3.9,3.9c-2.6,0-3.9-1.3-3.9-3.9v-0.7h2.6v0.7 c0,0.9,0.4,1.3,1.3,1.3c0.9,0,1.3-0.4,1.3-1.3V6.7H-4" transform="translate(14 25)"/><path fill="#E1B248" d="M-0.3,20.4h2.6v0.7c0,0.9,0.4,1.3,1.3,1.3C4.5,22.4,5,22,5,21.1v-1c0-1.2-0.9-2.4-2.6-3.7 c-1.7-1.2-2.6-2.8-2.6-4.7v-1C-0.3,8,1,6.7,3.6,6.7S7.6,8,7.6,10.6v0.7H5v-0.7c0-0.9-0.4-1.3-1.3-1.3c-0.9,0-1.3,0.4-1.3,1.3v1 c0,1.2,0.9,2.4,2.6,3.7c1.7,1.2,2.6,2.8,2.6,4.7v1c0,2.6-1.3,3.9-3.9,3.9s-3.9-1.3-3.9-3.9V20.4" transform="translate(14 25)"/></g></svg>