<?xml version="1.0" encoding="utf-8"?>
<!-- Generator: Adobe Illustrator 18.0.0, SVG Export Plug-In . SVG Version: 6.00 Build 0)  -->
<!DOCTYPE svg PUBLIC "-//W3C//DTD SVG 1.1//EN" "http://www.w3.org/Graphics/SVG/1.1/DTD/svg11.dtd">
<svg version="1.1" id="Layer_1" xmlns="http://www.w3.org/2000/svg" xmlns:xlink="http://www.w3.org/1999/xlink" x="0px" y="0px"
	 viewBox="-24 0 48 48" enable-background="new -24 0 48 48" xml:space="preserve">
<title>PHP_shield</title>
<path fill="#E9EFF0" d="M-18.9,13.5c0,23.7,18.9,31.4,19.3,31.6c0.4-0.1,19.3-8,19.3-31.6L0.2,3.6L-18.9,13.5z"/>
<path fill="none" d="M-20.1,13.3c0,24.3,20,32.2,20.4,32.4c0.4-0.1,20.4-8.2,20.4-32.4L0.3,3.1L-20.1,13.3z"/>
<path opacity="0.349" fill="#B3B3B3" enable-background="new    " d="M0.3,3.1L0.3,3.1L0.3,3.1L0.3,3.1v42.5l0,0l0,0l0,0l0,0l0,0
	c0.3-0.1,20.4-8.2,20.4-32.4L0.3,3.1L0.3,3.1"/>
<path fill="#848484" d="M0.3,3.1L0.3,3.1L0.3,3.1L0.3,3.1l-20.4,10c0,24.3,20,32.2,20.4,32.4l0,0l0,0l0,0l0,0
	c0.3-0.1,20.4-8.2,20.4-32.4L0.3,3.1 M0.3,42.7L0.3,42.7L0.3,42.7L0.3,42.7c-0.3-0.1-17.6-7-17.6-27.9L0.3,6.1l0,0l0,0l0,0l0,0
	l17.6,8.6C18,35.7,0.6,42.7,0.3,42.7"/>
<path fill="#5A5A5A" d="M0.3,5.1L0.3,5.1L0.3,5.1L0.3,5.1l-18.6,9.1c0,22.1,18.3,29.4,18.6,29.5l0,0l0,0l0,0l0,0
	c0.3-0.1,18.6-7.4,18.6-29.5L0.3,5.1 M0.3,42.8L0.3,42.8L0.3,42.8L0.3,42.8c-0.3-0.1-17.6-7-17.6-28L0.3,6.1l0,0l0,0l0,0l0,0
	l17.6,8.6C18,35.7,0.6,42.7,0.3,42.8"/>
<path fill="#707070" d="M0.3,6.1l17.6,8.6c0,21-17.3,27.9-17.6,27.9v2.9c0.4-0.1,20.4-8.1,20.4-32.4L5.2,5.6L0.3,3.2V6.1z"/>
<path fill="#5B5B5B" d="M18.8,14.2L0.3,5.1l0,0l0,0l0,0l0,0v1l0,0l0,0l0,0l0,0l0,0l17.6,8.6c0,21-17.3,27.9-17.6,28l0,0l0,0l0,0l0,0
	v1l0,0l0,0l0,0l0,0l0,0C0.7,43.6,18.8,36.4,18.8,14.2"/>
<path fill="#B0B0B0" d="M-17.3,14.7l-1-0.5L0.3,5.1v1L-17.3,14.7"/>
<path fill="#B0B0B0" d="M18.8,14.2l-1,0.5c0.1,21-17.2,27.9-17.5,28l0,0l0,0l0,0l0,0v1l0,0l0,0l0,0l0,0l0,0
	C0.7,43.6,18.8,36.4,18.8,14.2"/>
<path fill="#737373" stroke="#FFFFFF" stroke-width="0.5" d="M-8.9,23.1l-0.7,3.3h-2.3l2-9.7h3.7c1.1,0,1.9,0.3,2.4,0.9
	c0.6,0.6,0.7,1.4,0.5,2.4C-3.5,21-4,21.8-4.7,22.3c-0.7,0.6-1.7,0.8-2.8,0.8L-8.9,23.1L-8.9,23.1z M-8.6,21.3h1.5
	c0.4,0,0.8-0.1,1.1-0.4c0.3-0.3,0.5-0.6,0.6-1.1c0.1-0.5,0.1-0.8-0.1-1.1c-0.2-0.3-0.5-0.4-0.9-0.4h-1.5L-8.6,21.3z M4.3,26.3H2
	l0.8-3.9h-3.1l-0.8,3.9h-2.3l2-9.7h2.3l-0.8,4.1h3.1L4,16.6h2.3L4.3,26.3z M8.5,23.1l-0.7,3.3H5.7l2-9.7h3.7c1.1,0,1.9,0.3,2.4,0.9
	c0.6,0.6,0.7,1.4,0.5,2.4c-0.2,1.1-0.7,1.9-1.4,2.4c-0.7,0.6-1.7,0.8-2.8,0.8L8.5,23.1L8.5,23.1z M8.9,21.3h1.5
	c0.4,0,0.8-0.1,1.1-0.4c0.3-0.3,0.5-0.6,0.6-1.1c0.1-0.5,0.1-0.8-0.1-1.1c-0.2-0.3-0.5-0.4-0.9-0.4H9.6L8.9,21.3z"/>
</svg>
