<svg xmlns="http://www.w3.org/2000/svg" viewBox="0 0 48 60"><title>RB_shield</title><path fill="#FFF" d="M0.1,10.5c0,24.9,20.6,33.1,21,33.3c0.4-0.1,21-8.4,21-33.3L21,0.2L0.1,10.5z" transform="translate(3 14)"/><path opacity=".613" fill="#D9DFE0" d="M21,0.2L21,0.2L21,0.2L21,0.2l0,43.6l0,0v0 l0,0l0,0v0c0.3-0.1,21-8.4,21-33.3L21,0.2L21,0.2" transform="translate(3 14)"/><path fill="#E74C3C" d="M21,0.2L21,0.2L21,0.2L21,0.2l-21,10.3c0,24.9,20.6,33.1,21,33.3v0l0,0l0,0v0 c0.3-0.1,21-8.4,21-33.3L21,0.2 M21,40.8L21,40.8L21,40.8L21,40.8c-0.3-0.1-18.1-7.2-18.1-28.7L21,3.2v0l0,0l0,0v0l18.1,8.9 C39.2,33.6,21.3,40.7,21,40.8" transform="translate(3 14)"/><path fill="#B3382B" d="M21,2.2L21,2.2L21,2.2L21,2.2L1.9,11.6c0,22.7,18.8,30.2,19.1,30.3v0l0,0l0,0v0 c0.3-0.1,19.1-7.6,19.1-30.3L21,2.2 M21,40.9L21,40.9L21,40.9L21,40.9c-0.3-0.1-18.1-7.2-18.1-28.8L21,3.2v0l0,0l0,0v0l18.1,8.9 C39.2,33.6,21.3,40.7,21,40.9" transform="translate(3 14)"/><path opacity=".307" fill="#AB382C" d="M21,3.2l18.1,8.9c0,21.5-17.8,28.6-18.1,28.7 l0,3c0.4-0.1,21-8.3,21-33.3L26,2.7l-5-2.4L21,3.2z" transform="translate(3 14)"/><path fill="#A8372B" d="M40.1,11.6L21,2.2v0h0v0l0,0v1l0,0v0l0,0l0,0v0l18.1,8.9c0,21.5-17.8,28.6-18.1,28.8v0h0v0 l0,0v1l0,0v0l0,0l0,0v0C21.4,41.7,40.1,34.3,40.1,11.6" transform="translate(3 14)"/><path fill="#F85443" d="M2.9,12.1l-1-0.5L21,2.2l0,1L2.9,12.1" transform="translate(3 14)"/><path fill="#F75443" d="M40.1,11.6l-1,0.5c0,21.5-17.8,28.6-18.1,28.8v0h0v0l0,0v1l0,0v0l0,0l0,0v0 C21.4,41.7,40.1,34.3,40.1,11.6" transform="translate(3 14)"/><g><path fill="#CB4334" d="M0,6.1C0,6.1,5.6,0,6.1,0h13.8C20.4,0,26,6.1,26,6.1L13,22 L0,6.1z" transform="translate(11 26)"/><path fill="#F75443" d="M5.9,0H13L7.1,6.1H0L5.9,0z" transform="translate(11 26)"/><path fill="#F75443" d="M20.1,0H13l5.9,6.1H26L20.1,0z" transform="translate(11 26)"/><path fill="#E74C3C" d="M7.1,6.1h11.8L13,22L7.1,6.1z" transform="translate(11 26)"/></g></svg>