<?xml version="1.0" encoding="UTF-8" standalone="no"?>
<svg width="48px" height="61px" viewBox="0 0 48 61" version="1.1" xmlns="http://www.w3.org/2000/svg" xmlns:xlink="http://www.w3.org/1999/xlink" xmlns:sketch="http://www.bohemiancoding.com/sketch/ns">
    <!-- Generator: Sketch 3.3.3 (12072) - http://www.bohemiancoding.com/sketch -->
    <title>Trainee_5_star</title>
    <desc>Created with Sketch.</desc>
    <defs></defs>
    <g id="Levels-and-languages" stroke="none" stroke-width="1" fill="none" fill-rule="evenodd" sketch:type="MSPage">
        <g id="Trainee_5_star" sketch:type="MSArtboardGroup" transform="translate(0.000000, 0.500000)">
            <g id="Imported-Layers" sketch:type="MSLayerGroup" transform="translate(3.000000, 14.000000)">
                <path d="M21.0478154,0.230919708 L21.0478154,0.228350365 L21.0429692,0.228350365 L21.0429692,0.230919708 L0.0911076923,10.5359124 C0.0911076923,35.4456934 20.6959846,43.6598832 21.0429692,43.7973431 L21.0429692,43.7999124 L21.0455538,43.7986277 L21.0478154,43.7999124 L21.0478154,43.7973431 C21.3957692,43.6598832 42,35.4456934 42,10.5359124 L21.0478154,0.230919708" id="Fill-1" fill="#2BAC72" sketch:type="MSShapeGroup"></path>
                <path d="M21.0478154,0.228350365 L21.0429692,0.228350365 L21.0429692,0.230919708 L21.0219692,0.240875912 L21.0219692,43.7893139 L21.0429692,43.7973431 L21.0429692,43.7999124 L21.0455538,43.7986277 L21.0478154,43.7999124 L21.0478154,43.7973431 C21.3957692,43.6598832 42,35.4456934 42,10.5359124 L21.0478154,0.230919708 L21.0478154,0.228350365" id="Fill-2" fill="#00A565" sketch:type="MSShapeGroup"></path>
                <path d="M21.0478154,0.230919708 L21.0478154,0.228350365 L21.0429692,0.228350365 L21.0429692,0.230919708 L0.0911076923,10.5359124 C0.0911076923,35.4456934 20.6959846,43.6598832 21.0429692,43.7973431 L21.0429692,43.7999124 L21.0455538,43.7986277 L21.0478154,43.7999124 L21.0478154,43.7973431 C21.3957692,43.6598832 42,35.4456934 42,10.5359124 L21.0478154,0.230919708 M21.0478154,40.835854 L21.0478154,40.8371387 L21.0429692,40.8371387 L21.0429692,40.835854 C20.7431538,40.7167007 2.94064615,33.617927 2.94064615,12.0971095 L21.0429692,3.19208759 L21.0429692,3.19048175 L21.0455538,3.19176642 L21.0478154,3.19048175 L21.0478154,3.19208759 L39.1504615,12.0971095 C39.1504615,33.617927 21.3476308,40.7167007 21.0478154,40.835854" id="Fill-3" fill="#C09372" sketch:type="MSShapeGroup"></path>
                <path d="M21.0478154,2.16145985 L21.0478154,2.15985401 L21.0436154,2.15985401 L21.0436154,2.16145985 L1.9488,11.5533723 C1.9488,34.2551241 20.7266769,41.7412263 21.0436154,41.8664818 L21.0436154,41.8684088 L21.0455538,41.8671241 L21.0478154,41.8684088 L21.0478154,41.8664818 C21.3647538,41.7412263 40.1423077,34.2551241 40.1423077,11.5533723 L21.0478154,2.16145985 M21.0478154,40.8535182 L21.0478154,40.8548029 L21.0429692,40.8548029 L21.0429692,40.8535182 C20.7431538,40.734365 2.92384615,33.6285255 2.92384615,12.0877956 L21.0429692,3.17474453 L21.0429692,3.17281752 L21.0455538,3.17410219 L21.0478154,3.17281752 L21.0478154,3.17474453 L39.1672615,12.0877956 C39.1672615,33.6285255 21.3482769,40.734365 21.0478154,40.8535182" id="Fill-4" fill="#D7B885" sketch:type="MSShapeGroup"></path>
                <path d="M21.0478154,0.228350365 L21.0429692,0.228350365 L21.0429692,0.230919708 L21.0219692,0.240875912 L21.0219692,3.20236496 L21.0429692,3.19208759 L21.0429692,3.19048175 L21.0455538,3.19176642 L21.0478154,3.19048175 L21.0478154,3.19208759 L39.1504615,12.0971095 C39.1504615,33.617927 21.3476308,40.7167007 21.0478154,40.835854 L21.0478154,40.8371387 L21.0429692,40.8371387 L21.0429692,40.835854 L21.0219692,40.8271825 L21.0219692,43.7893139 L21.0429692,43.7973431 L21.0429692,43.7999124 L21.0455538,43.7986277 L21.0478154,43.7999124 L21.0478154,43.7973431 C21.3957692,43.6598832 42,35.4456934 42,10.5359124 L21.0478154,0.230919708 L21.0478154,0.228350365" id="Fill-5" fill="#D7B885" sketch:type="MSShapeGroup"></path>
                <path d="M40.1423077,11.5533723 L21.0478154,2.16145985 L21.0478154,2.15985401 L21.0436154,2.15985401 L21.0436154,2.16145985 L21.0219692,2.17237956 L21.0219692,3.18470073 L21.0429692,3.17474453 L21.0429692,3.17281752 L21.0455538,3.17410219 L21.0478154,3.17281752 L21.0478154,3.17474453 L39.1672615,12.0877956 C39.1672615,33.6285255 21.3482769,40.734365 21.0478154,40.8535182 L21.0478154,40.8548029 L21.0429692,40.8548029 L21.0429692,40.8535182 L21.0219692,40.8448467 L21.0219692,41.8578102 L21.0436154,41.8664818 L21.0436154,41.8684088 L21.0455538,41.8671241 L21.0478154,41.8684088 L21.0478154,41.8664818 C21.3647538,41.7412263 40.1423077,34.2551241 40.1423077,11.5533723" id="Fill-6" fill="#C09372" sketch:type="MSShapeGroup"></path>
                <path d="M2.92384615,12.0877956 L1.9488,11.5533723 L21.0436154,2.16145985 L21.0478154,3.17474453 L2.92384615,12.0877956" id="Fill-7" fill="#EFD19A" sketch:type="MSShapeGroup"></path>
                <path d="M40.1423077,11.5533723 L39.1672615,12.0877956 C39.1672615,33.6285255 21.3482769,40.734365 21.0478154,40.8535182 L21.0478154,40.8548029 L21.0429692,40.8548029 L21.0429692,40.8535182 L21.0219692,40.8448467 L21.0219692,41.8578102 L21.0436154,41.8664818 L21.0436154,41.8684088 L21.0455538,41.8671241 L21.0478154,41.8684088 L21.0478154,41.8664818 C21.3647538,41.7412263 40.1423077,34.2551241 40.1423077,11.5533723" id="Fill-8" fill="#EFD19A" sketch:type="MSShapeGroup"></path>
                <path d="M21.0219692,20.6588029 C17.7634154,23.9099854 14.7810923,26.885927 14.7810923,26.885927 L13.8486923,25.961927 L13.8480462,25.961927 L13.7462769,25.8607591 L13.6836,25.7984526 C13.6758462,25.8061606 13.6684154,25.8138686 13.6606615,25.8212555 L12.2556,24.4299562 C12.3082615,24.3936642 12.3593077,24.3541606 12.4064769,24.3075912 C12.8287385,23.8858978 12.8277692,23.2043796 12.4035692,22.7849343 C12.1922769,22.575854 11.9160462,22.4711533 11.6394923,22.4711533 C11.3616462,22.4711533 11.0838,22.5768175 10.8721846,22.7878248 C10.4502462,23.2088759 10.4518615,23.8907153 10.8750923,24.3095182 L10.9406769,24.3631533 L13.0639385,26.4661606 C12.7815692,26.7134599 12.4943538,26.9793869 12.2052,27.2600876 L12.2042308,27.2588029 L12.1312154,27.3307445 L12.1318615,27.3313869 C12.0811385,27.3814891 12.0300923,27.4290219 11.9793692,27.4804088 C11.4314308,28.0270365 10.9377692,28.5723796 10.5132462,29.0901022 L10.4806154,29.129927 L10.4809385,29.129927 C10.2473538,29.4167299 10.0370308,29.6929343 9.85061538,29.956292 L9.84932308,29.9556496 C9.82832308,29.9845547 9.80829231,30.0141022 9.78793846,30.0426861 L9.78858462,30.0433285 C9.46356923,30.5099854 9.22093846,30.9297518 9.07490769,31.2772555 C9.30978462,31.5878248 9.5466,31.8887591 9.78664615,32.1823066 C10.1090769,32.0657226 10.5045231,31.8531095 10.9497231,31.559562 L10.9503692,31.5611679 L11.0363077,31.5036788 L11.0359846,31.5033577 C11.5848923,31.1336934 12.2026154,30.6468029 12.8429538,30.0722336 L12.8439231,30.0725547 L12.9282462,29.9961168 L12.9279231,29.9961168 C13.1960769,29.753635 13.4677846,29.4957372 13.7398154,29.2243504 C13.8057231,29.1585109 13.8690462,29.0923504 13.9336615,29.0261898 L13.9346308,29.0268321 L14.0073231,28.9523212 L14.0066769,28.9516788 C14.2712769,28.6793285 14.5216615,28.4082628 14.7562154,28.1420146 L14.7810923,28.1670657 L16.8794769,30.2447007 L16.9327846,30.310219 C17.1444,30.5196204 17.4209538,30.624 17.6971846,30.624 C17.9753538,30.624 18.2532,30.5183358 18.4648154,30.3073285 C18.8867538,29.8869197 18.8851385,29.204438 18.4622308,28.7846715 C18.2509385,28.5755912 17.9743846,28.4712117 17.6981538,28.4712117 C17.4199846,28.4712117 17.1418154,28.5768759 16.9302,28.7882044 C16.8833538,28.8341314 16.8439385,28.8855182 16.8074308,28.9385109 L15.4023692,27.5468905 C16.4358923,26.5156204 18.6295846,24.3271825 20.9735077,21.9881168 C20.9896615,22.0041752 21.0058154,22.0202336 21.0219692,22.036292 L21.0219692,20.6588029 M11.7441692,10.7970219 C11.6924769,10.7970219 11.6462769,10.8008759 11.6062154,10.8085839 L11.6052462,10.8089051 C11.5629231,10.8175766 11.5283538,10.8304234 11.5012154,10.8474453 L11.4992769,10.8480876 L11.4992769,10.8484088 L11.4692308,10.8673577 C11.1952615,11.1403504 11.8026462,12.9054891 12.7925538,13.8853723 C13.3999385,14.4869197 15.8643692,16.9277956 18.5872615,19.6243212 C18.5959846,19.6159708 18.6047077,19.6069781 18.6131077,19.5986277 C18.6124615,19.5979854 18.6118154,19.5973431 18.6111692,19.5967007 C19.1814,19.0282336 19.7561538,18.4546277 20.3208923,17.8906569 C20.1512769,17.7226861 19.9823077,17.5553577 19.8146308,17.389635 L19.8152769,17.3899562 C19.7009077,17.2759416 19.5858923,17.1625693 19.4728154,17.0508029 C18.7856308,16.3705693 18.1278462,15.7179562 17.5253077,15.1218686 L17.5256308,15.1218686 C17.4813692,15.0772263 17.4371077,15.0341898 17.3931692,14.9905109 C17.0907692,14.6915036 16.8038769,14.4072701 16.5354,14.1407007 L16.5363692,14.1413431 C16.4914615,14.0979854 16.4481692,14.0546277 16.4045538,14.0115912 C15.5009077,13.1168175 14.8256769,12.4475036 14.5284462,12.153635 C14.4341077,12.0604964 14.3329846,11.9724964 14.2292769,11.8880292 C14.1947077,11.8597664 14.1598154,11.830219 14.1239538,11.8019562 L14.1236308,11.8019562 C13.2939692,11.1650803 12.2533385,10.7970219 11.7441692,10.7970219" id="Fill-9" fill="#2A9763" sketch:type="MSShapeGroup"></path>
                <path d="M30.2645538,10.7694015 C30.0267692,11.3741606 29.6255077,12.0749489 29.1250615,12.5740438 C28.3483846,13.3487007 24.5257385,17.1628905 21.0219692,20.6588029 L21.0219692,22.036292 C23.3578154,24.3490219 25.536,26.5066277 26.5656462,27.5269781 L25.1664,28.9234161 C25.1298923,28.8707445 25.0901538,28.8193577 25.0429846,28.7727883 C24.8313692,28.5633869 24.5548154,28.4590073 24.2782615,28.4590073 C24.0007385,28.4590073 23.7228923,28.5643504 23.5106308,28.7753577 C23.0890154,29.1970511 23.0909538,29.8782482 23.5141846,30.2980146 C23.7254769,30.5074161 24.0017077,30.6121168 24.2782615,30.6121168 C24.5561077,30.6121168 24.8342769,30.5064526 25.0452462,30.2954453 L25.0988769,30.2302482 L27.2137385,28.1192117 C27.4499077,28.3848175 27.7012615,28.6549197 27.9668308,28.9259854 L27.9661846,28.9266277 L28.0385538,29.0014599 L28.0404923,29.0004964 C28.1054308,29.0660146 28.1684308,29.131854 28.2349846,29.1976934 C28.5073385,29.4674745 28.7803385,29.7247299 29.0491385,29.9672117 L29.1344308,30.0426861 L29.1350769,30.0420438 C29.7776769,30.614365 30.3966923,31.0986861 30.9472154,31.4664234 L30.9465692,31.4670657 C30.9759692,31.4860146 31.0047231,31.505927 31.0331538,31.5242336 L31.0341231,31.5229489 C31.4954769,31.8242044 31.9038462,32.0403504 32.2324154,32.152438 C32.2136769,32.2083212 32.1991385,32.2654891 32.1888,32.3229781 C32.4475846,32.0101606 32.7031385,31.6886715 32.9561077,31.3562628 C32.8178308,30.9869197 32.5545231,30.524438 32.1894462,30.0025401 L32.1900923,30.002219 C32.1687692,29.9726715 32.1493846,29.9437664 32.1274154,29.914219 L32.1264462,29.9155036 C31.9387385,29.6524672 31.7274462,29.3775474 31.4932154,29.0923504 L31.4932154,29.091708 L31.4347385,29.0191241 C31.0144154,28.5129635 30.5272154,27.9807883 29.9889692,27.4479708 C29.9376,27.3969051 29.8865538,27.3490511 29.8351846,27.2986277 L29.8361538,27.2979854 L29.7624923,27.2266861 L29.7615231,27.2276496 C29.4720462,26.9475912 29.1838615,26.6832701 28.9008462,26.4369343 L28.9244308,26.4128467 L28.9244308,26.4122044 L31.0157077,24.3265401 L31.0816154,24.2725839 C31.5032308,23.851854 31.5016154,23.1700146 31.0787077,22.7505693 C30.8674154,22.5411679 30.5908615,22.4364672 30.3143077,22.4364672 C30.0364615,22.4364672 29.7589385,22.5421314 29.5473231,22.7531387 C29.1253846,23.1748321 29.1263538,23.8560292 29.5499077,24.2754745 C29.5964308,24.322365 29.6484462,24.3618686 29.7017538,24.3981606 L28.3008923,25.7949197 C28.0411385,25.5367007 27.7077231,25.2068613 27.3158308,24.8188905 L27.3161538,24.8188905 C27.2479846,24.7511241 27.1778769,24.6817518 27.1058308,24.6101314 L27.1045385,24.6098102 C26.4829385,23.9941314 25.7363077,23.2538394 24.9205385,22.4464234 L24.9202154,22.4454599 C24.8791846,22.4043504 24.8378308,22.3642044 24.7964769,22.3234161 C24.4452923,21.9755912 24.0808615,21.6152409 23.7099692,21.2468613 L23.7102923,21.2468613 C23.6705538,21.2083212 23.6311385,21.1694599 23.5914,21.129635 C23.3006308,20.8425109 23.0066308,20.5502482 22.7094,20.2560584 C23.7287077,19.2389197 24.7299231,18.2407299 25.6303385,17.341781 L25.6303385,17.3421022 C25.6800923,17.2923212 25.7304923,17.2418978 25.7805692,17.1927591 L25.7805692,17.1917956 C26.7326769,16.2421022 27.5636308,15.4118832 28.1758615,14.8013431 L28.1761846,14.8013431 C28.2091385,14.7692263 28.2411231,14.7371095 28.2727846,14.7059562 L28.2724615,14.7059562 C28.6682308,14.3105985 28.9625538,14.0164088 29.1250615,13.8548613 C30.1110923,12.8704818 30.7123385,11.1047007 30.4367538,10.8329927 L30.4067077,10.8140438 L30.4047692,10.8134015 C30.3776308,10.7963796 30.3433846,10.7828905 30.3017077,10.7748613 L30.2997692,10.774219 L30.2994462,10.7748613 C30.2884615,10.7726131 30.2765077,10.7706861 30.2645538,10.7694015" id="Fill-10" fill="#08915B" sketch:type="MSShapeGroup"></path>
                <path d="M8.18741538,31.4747737 C8.04138462,31.5319416 7.90472308,31.6192993 7.7868,31.7368467 C7.32221538,32.200292 7.32350769,32.950219 7.78938462,33.4110949 C8.022,33.6410511 8.32601538,33.7560292 8.63003077,33.7560292 C8.93566154,33.7560292 9.24096923,33.6400876 9.47358462,33.4082044 C9.5214,33.3603504 9.56404615,33.309927 9.60184615,33.2569343 C9.12207692,32.6945693 8.64876923,32.1007299 8.18741538,31.4747737 M9.07490769,31.2772555 C9.07296923,31.2823942 9.07070769,31.2872117 9.06876923,31.2923504 C9.30073846,31.5987445 9.53561538,31.8974307 9.77275385,32.1871241 C9.77727692,32.1855182 9.7818,32.1839124 9.78664615,32.1823066 C9.5466,31.8887591 9.30978462,31.5878248 9.07490769,31.2772555" id="Fill-11" fill="#A07E66" sketch:type="MSShapeGroup"></path>
                <path d="M9.06876923,31.2923504 C9.04550769,31.3482336 9.02515385,31.4021898 9.00706154,31.454219 C8.883,31.4131095 8.75344615,31.3922336 8.62421538,31.3922336 C8.4756,31.3922336 8.32730769,31.4195328 8.18741538,31.4747737 C8.64876923,32.1007299 9.12207692,32.6945693 9.60184615,33.2569343 C9.82476923,32.9434745 9.87323077,32.5465109 9.75336923,32.1938686 C9.75983077,32.1916204 9.76629231,32.1893723 9.77275385,32.1871241 C9.53561538,31.8974307 9.30073846,31.5987445 9.06876923,31.2923504" id="Fill-12" fill="#B29A75" sketch:type="MSShapeGroup"></path>
                <path d="M32.9561077,31.3562628 C32.7031385,31.6886715 32.4475846,32.0101606 32.1888,32.3229781 C32.1871846,32.332292 32.1855692,32.3416058 32.1839538,32.3509197 C32.4459692,32.0348905 32.7060462,31.7079416 32.9619231,31.372 C32.9603077,31.3665401 32.9580462,31.3614015 32.9561077,31.3562628" id="Fill-13" fill="#B29A75" sketch:type="MSShapeGroup"></path>
                <path d="M33.9030462,31.4757372 C33.4307077,32.1164672 32.9451231,32.7247591 32.4537231,33.2986861 C32.4737538,33.3214891 32.4944308,33.3439708 32.5164,33.3658102 C32.7490154,33.5960876 33.0530308,33.7110657 33.3570462,33.7110657 C33.6626769,33.7110657 33.9683077,33.5948029 34.2006,33.3629197 C34.6648615,32.8991533 34.6632462,32.1501898 34.1976923,31.6889927 C34.1085231,31.6006715 34.0090154,31.5296934 33.9030462,31.4757372" id="Fill-14" fill="#B29A75" sketch:type="MSShapeGroup"></path>
                <path d="M33.3631846,31.3472701 C33.2323385,31.3472701 33.1014923,31.3684672 32.9758154,31.4105401 C32.9716154,31.3976934 32.9667692,31.3848467 32.9619231,31.372 C32.7060462,31.7079416 32.4459692,32.0348905 32.1839538,32.3509197 C32.1329077,32.6820438 32.2211077,33.0298686 32.4537231,33.2986861 C32.9451231,32.7247591 33.4307077,32.1164672 33.9030462,31.4757372 C33.7340769,31.3899854 33.5489538,31.3472701 33.3631846,31.3472701" id="Fill-15" fill="#C1AB81" sketch:type="MSShapeGroup"></path>
                <path d="M13.7398154,27.9435328 C11.6159077,30.0625985 9.50007692,31.3906277 9.01352308,30.9091971 C8.52761538,30.4271241 9.85513846,28.3189781 11.9793692,26.1995912 C14.1039231,24.0808467 16.2194308,22.7524964 16.7056615,23.2342482 C17.1915692,23.7156788 15.8640462,25.8238248 13.7398154,27.9435328" id="Fill-16" fill="#EFD19A" sketch:type="MSShapeGroup"></path>
                <path d="M14.7810923,26.885927 L13.0393846,25.1599708 C13.0393846,25.1599708 25.7744308,12.4532847 27.3823846,10.8490511 C28.4243077,9.80975182 30.1618154,9.27886131 30.4367538,9.55153285 C30.7123385,9.82388321 30.1110923,11.5899854 29.1250615,12.5740438 C27.6263077,14.0694015 14.7810923,26.885927 14.7810923,26.885927" id="Fill-17" fill="#EFD19A" sketch:type="MSShapeGroup"></path>
                <path d="M18.4622308,27.503854 C18.0383538,27.0844088 17.3524615,27.0856934 16.9302,27.5070657 C16.8833538,27.5533139 16.8439385,27.6047007 16.8074308,27.6573723 L12.2556,23.1491387 C12.3082615,23.1128467 12.3593077,23.0733431 12.4064769,23.0264526 C12.8287385,22.6054015 12.8277692,21.9238832 12.4035692,21.5037956 C11.9800154,21.0843504 11.2944462,21.0853139 10.8721846,21.5070073 C10.4502462,21.9277372 10.4518615,22.6095766 10.8750923,23.0293431 L10.9406769,23.0826569 L16.8794769,28.9642044 L16.9327846,29.0294015 C17.3569846,29.4485255 18.0425538,29.447562 18.4648154,29.0265109 C18.8867538,28.6054599 18.8851385,27.9239416 18.4622308,27.503854" id="Fill-18" fill="#EFD19A" sketch:type="MSShapeGroup"></path>
                <path d="M9.47358462,32.1270657 C9.93784615,31.6639416 9.93623077,30.9149781 9.47035385,30.4531387 C9.0048,29.9919416 8.25073846,29.9929051 7.7868,30.4563504 C7.32221538,30.9191533 7.32350769,31.668438 7.78938462,32.1299562 C8.25558462,32.5914745 9.00932308,32.5905109 9.47358462,32.1270657" id="Fill-19" fill="#EFD19A" sketch:type="MSShapeGroup"></path>
                <path d="M25.3825385,12.8447883 C25.5815538,12.7953285 25.7773385,12.7734891 25.9618154,12.7934015 C26.0454923,12.8027153 26.1168923,12.8174891 26.1805385,12.8303358 C26.3601692,12.8672701 26.5023231,12.8968175 26.7426923,12.7689927 C26.9643231,12.6501606 27.1617231,12.4799416 27.3536308,12.3158248 C27.4851231,12.2030949 27.6204923,12.0858686 27.7613538,11.9888759 C27.8728154,11.9127591 27.9813692,11.8331095 28.0883077,11.7544234 C28.7037692,11.3044672 29.2875692,10.8808467 30.0665077,11.2151825 C30.0813692,11.183708 30.0955846,11.1531971 30.1101231,11.1217226 C29.2775538,10.7604088 28.6698462,11.2029781 28.0272462,11.671562 C27.9203077,11.749927 27.8127231,11.828292 27.7025538,11.9040876 C27.5574923,12.004292 27.4195385,12.1231241 27.2851385,12.2381022 C27.0980769,12.3986861 26.9045538,12.5656934 26.6932615,12.6787445 C26.4864923,12.7882628 26.3727692,12.7648175 26.2015385,12.7294891 C26.1362769,12.7166423 26.0616462,12.7005839 25.9734462,12.6912701 C25.8251538,12.6755328 25.6710462,12.6864526 25.5133846,12.7134307 C25.4707385,12.7564672 25.4261538,12.8007883 25.3825385,12.8447883" id="Fill-20" fill="#C09372" sketch:type="MSShapeGroup"></path>
                <path d="M13.9530462,25.1673577 C13.7734154,25.2842628 13.5915231,25.4024526 13.4144769,25.5322044 L13.4884615,25.6057518 C13.6561385,25.4840292 13.8309231,25.3703358 14.0099077,25.2537518 C14.2832308,25.0767883 14.5659231,24.894365 14.8282615,24.6721168 C15.9186462,23.7506861 16.6807846,23.0303066 17.3766923,22.2623942 C17.6842615,21.9238832 18.0386769,21.5156788 18.3404308,21.0602628 C18.3682154,21.0185109 18.4134462,20.9619854 18.4654615,20.896146 C18.6473538,20.6671533 18.8967692,20.3540146 18.8344154,20.1436496 C18.7979077,20.0177518 18.7223077,19.9323212 18.6092308,19.8886423 C18.5368615,19.8597372 18.4493077,19.8523504 18.3533538,19.8581314 C18.3136154,19.8979562 18.2748462,19.9364964 18.2347846,19.976 C18.3688615,19.9512701 18.4845231,19.9509489 18.5714308,19.9843504 C18.6538154,20.016146 18.7077692,20.0774891 18.7352308,20.1719124 C18.7817538,20.331854 18.5426769,20.6327883 18.3846923,20.8319124 C18.3307385,20.8996788 18.2838923,20.9581314 18.2535231,21.0040584 C17.9559692,21.4540146 17.6044615,21.8577226 17.2994769,22.1939854 C16.6071231,22.9577226 15.8482154,23.675854 14.7613846,24.5934307 C14.5038923,24.8111825 14.2241077,24.9923212 13.9530462,25.1673577" id="Fill-21" fill="#C09372" sketch:type="MSShapeGroup"></path>
                <path d="M15.1277538,25.0565547 C14.8001538,25.3626277 14.4622154,25.6792993 14.1052154,25.828 C14.0370462,25.8559416 13.9126615,25.8581898 13.7928,25.8601168 L13.7462769,25.8607591 L13.8480462,25.961927 C13.9633846,25.9590365 14.0703231,25.9545401 14.1452769,25.9230657 C14.5194,25.7672993 14.8644462,25.443562 15.1981846,25.1320292 C15.3287077,25.0096642 15.4514769,24.8946861 15.5713385,24.7938394 C16.2426923,24.2317956 16.8733385,23.6000584 17.4833077,22.9891971 C17.9517692,22.5206131 18.4360615,22.0350073 18.9361846,21.5837664 C19.6133538,20.9729051 20.2714615,20.3488759 20.8930615,19.7299854 C21.5369538,19.0873285 22.0228615,18.5044088 22.4212154,17.898365 C22.4826,17.8065109 22.5649846,17.7021314 22.6512462,17.5926131 C22.8987231,17.2797956 23.1791538,16.9261898 23.1804462,16.586073 L23.1810923,16.5443212 L23.1400615,16.5353285 C22.3449692,16.3593285 21.2261538,17.1445839 20.6901692,17.6353285 C20.4947077,17.8148613 20.2856769,17.9809051 20.0750308,18.1402044 C19.9105846,18.3046423 19.7471077,18.468438 19.5829846,18.6309489 L19.7031692,18.5442336 C20.0592,18.2847299 20.4278308,18.0165547 20.7606,17.7117664 C21.2364923,17.2740146 22.3213846,16.498073 23.0754462,16.6271825 C23.0508923,16.9213723 22.7966308,17.2431825 22.5701538,17.5283796 C22.4816308,17.6404672 22.3979538,17.7461314 22.3349538,17.8421606 C21.9401538,18.4421022 21.4581231,19.0192409 20.8194,19.6567591 C20.1994154,20.2753285 19.5419538,20.8977518 18.8660769,21.5079708 C18.3640154,21.9611387 17.8797231,22.4467445 17.4099692,22.9166131 C16.8012923,23.5261898 16.1722615,24.1569635 15.5044615,24.7154745 C15.3823385,24.8176058 15.2589231,24.9338686 15.1277538,25.0565547" id="Fill-22" fill="#C09372" sketch:type="MSShapeGroup"></path>
                <path d="M25.6939846,14.9182482 C25.3027385,14.6394745 24.3632308,14.9670657 23.8592308,15.1433869 C23.7910615,15.1677956 23.7309692,15.1883504 23.6825077,15.2040876 C23.2382769,15.350219 22.8344308,15.5409927 22.4564308,15.7645255 C22.3436769,15.8772555 22.2293077,15.9899854 22.1152615,16.1046423 C22.6005231,15.7744818 23.1206769,15.4969927 23.7135231,15.3014015 C23.7642462,15.2856642 23.8240154,15.2644672 23.8931538,15.2410219 C24.3451385,15.0833285 25.2862615,14.7544526 25.6335692,15.0011095 C25.7275846,15.0688759 25.7718462,15.1713285 25.7695846,15.3184234 C25.7673231,15.5490219 25.7133692,15.8030657 25.6303385,16.0612847 C25.6800923,16.0115036 25.7304923,15.9607591 25.7805692,15.9112993 C25.8354923,15.7070365 25.8713538,15.5059854 25.8732923,15.319708 C25.8755538,15.1395328 25.8144923,15.0049635 25.6939846,14.9182482" id="Fill-23" fill="#C09372" sketch:type="MSShapeGroup"></path>
                <path d="M10.5487846,27.765927 L10.4806154,27.8494307 C10.6192154,27.9030657 10.7587846,27.9567007 10.8967385,28.0093723 C11.5422462,28.2560292 12.2013231,28.5103942 12.8439231,28.7914161 L12.9282462,28.7159416 C12.2707846,28.4262482 11.5945846,28.165781 10.9332462,27.9133431 C10.8062769,27.8651679 10.6770462,27.8147445 10.5487846,27.765927" id="Fill-24" fill="#C09372" sketch:type="MSShapeGroup"></path>
                <path d="M10.9503692,30.2800292 L11.0363077,30.2225401 C10.8666923,29.9941898 10.6974,29.7574891 10.5268154,29.5028029 C10.4069538,29.3242336 10.2593077,29.1543358 10.1165077,28.9918248 C10.0237846,28.8855182 9.93235385,28.7801752 9.84932308,28.6745109 L9.78793846,28.7618686 C9.86806154,28.8630365 9.95367692,28.961635 10.0386462,29.0589489 C10.1791846,29.2204964 10.3245692,29.386219 10.4408769,29.5599708 C10.6108154,29.8140146 10.7804308,30.0510365 10.9503692,30.2800292" id="Fill-25" fill="#C09372" sketch:type="MSShapeGroup"></path>
                <path d="M12.8258308,26.7153869 C12.9314769,26.8094891 13.0251692,26.8933139 13.0968923,26.962365 C13.1447077,27.0086131 13.1999538,27.065781 13.2619846,27.1300146 C13.4500154,27.3236788 13.6861846,27.5648759 13.9346308,27.7463358 L14.0073231,27.6711825 C13.7566154,27.4906861 13.5152769,27.2427445 13.3366154,27.0583942 C13.2736154,26.9935182 13.2177231,26.9347445 13.1692615,26.8894599 C13.0962462,26.8181606 13.0015846,26.7340146 12.8952923,26.6392701 C12.6846462,26.4507445 12.4252154,26.2188613 12.2042308,25.9779854 L12.1312154,26.0502482 C12.3544615,26.2946569 12.6145385,26.5265401 12.8258308,26.7153869" id="Fill-26" fill="#C09372" sketch:type="MSShapeGroup"></path>
                <path d="M29.6985231,10.0255766 C29.1412154,10.3493139 28.4055692,10.5991825 27.7862308,10.4964088 C27.7503692,10.5246715 27.7161231,10.5538978 27.6809077,10.5828029 C28.3464462,10.7289343 29.1502615,10.4626861 29.7511846,10.1138978 C29.9124,10.020438 30.1799077,9.8020438 30.4067077,9.53322628 C30.3798923,9.51491971 30.3433846,9.50143066 30.2997692,9.49372263 C30.0933231,9.73427737 29.8545692,9.93532847 29.6985231,10.0255766" id="Fill-27" fill="#C09372" sketch:type="MSShapeGroup"></path>
                <path d="M28.1761846,13.5205255 C28.2091385,13.4884088 28.2411231,13.4559708 28.2727846,13.4248175 C28.1574462,13.4155036 28.0417846,13.4151825 27.9235385,13.4318832 C27.4621846,13.4957956 26.6952,13.7678248 26.3482154,14.1310657 C26.2474154,13.8086131 25.9343538,13.7007007 25.6981846,13.647708 C25.3292308,13.5651679 24.9912923,13.6098102 24.7102154,13.6647299 C24.6830769,13.6698686 24.6520615,13.6746861 24.6162,13.6804672 C24.5893846,13.685927 24.5590154,13.6910657 24.5289692,13.6968467 C24.4850308,13.7405255 24.4407692,13.7838832 24.3968308,13.8285255 C24.4827692,13.8092555 24.5670923,13.7938394 24.6346154,13.7822774 C24.6698308,13.775854 24.7024615,13.7707153 24.7302462,13.7655766 C25.0013077,13.7122628 25.3256769,13.6698686 25.6755692,13.7485547 C26.0471077,13.8317372 26.2302923,13.9868613 26.2700308,14.2505401 L26.2878,14.3732263 L26.3624308,14.2733431 C26.6435077,13.8978978 27.4722,13.5972847 27.9377538,13.5333723 C28.0191692,13.5224526 28.098,13.5192409 28.1761846,13.5205255" id="Fill-28" fill="#C09372" sketch:type="MSShapeGroup"></path>
                <path d="M15.0744462,23.2438832 C15.0014308,23.279854 14.9271231,23.3155036 14.8518462,23.3517956 C14.7804462,23.4234161 14.7103385,23.4931095 14.6418462,23.5611971 C14.8062923,23.4886131 14.9668615,23.4115328 15.1203231,23.3360584 L15.1884923,23.3032993 C15.5664923,23.1183066 16.0375385,22.8889927 16.3712769,22.4929927 C16.3803231,22.4823942 17.0946462,21.6251971 17.1531231,21.0560876 C17.1111231,21.0971971 17.0704154,21.1376642 17.0290615,21.1790949 C16.9153385,21.6084964 16.4875846,22.1943066 16.2918,22.4265109 C15.9958615,22.7778686 15.6130154,22.9818102 15.1426154,23.2111241 L15.0744462,23.2438832" id="Fill-29" fill="#C09372" sketch:type="MSShapeGroup"></path>
                <path id="Fill-30" fill="#2A9763" sketch:type="MSShapeGroup" d="M20.3464154,17.8652847 C20.3380154,17.8739562 20.3296154,17.8823066 20.3208923,17.8906569 C20.3215385,17.8912993 20.3221846,17.8919416 20.3228308,17.8925839 C20.3315538,17.8839124 20.3396308,17.8758832 20.3483538,17.8672117 C20.3477077,17.8665693 20.3470615,17.865927 20.3464154,17.8652847"></path>
                <path d="M20.3208923,17.8906569 C19.7561538,18.4546277 19.1814,19.0282336 18.6111692,19.5967007 C18.6118154,19.5973431 18.6124615,19.5979854 18.6131077,19.5986277 C18.9329538,19.279708 19.257,18.956292 19.5833077,18.6309489 L19.5829846,18.6309489 C19.5839538,18.6299854 19.5849231,18.6290219 19.5862154,18.6280584 C19.8311077,18.3836496 20.0769692,18.1382774 20.3228308,17.8925839 C20.3221846,17.8919416 20.3215385,17.8912993 20.3208923,17.8906569" id="Fill-31" fill="#2A865B" sketch:type="MSShapeGroup"></path>
                <path d="M21.5385692,19.0458978 C21.3421385,19.2684672 21.1282615,19.4952117 20.8930615,19.7299854 C20.5415538,20.0797372 20.1784154,20.4314161 19.8068769,20.7814891 C19.9900615,20.9629489 20.1722769,21.1434453 20.3532,21.3226569 C20.9324769,20.7448759 21.5153077,20.1629197 22.0884462,19.5902774 C21.9062308,19.4101022 21.7230462,19.2283212 21.5385692,19.0458978 M20.4562615,17.9738394 C20.2100769,18.1748905 19.9535538,18.3614891 19.7031692,18.5442336 L19.5833077,18.6309489 C19.257,18.956292 18.9329538,19.279708 18.6131077,19.5986277 C18.9875538,19.9692555 19.362,20.3405255 19.7335385,20.7085839 C20.1050769,20.3588321 20.4685385,20.0071533 20.8194,19.6567591 C21.0549231,19.4219854 21.2688,19.1952409 21.4649077,18.9726715 C21.1305231,18.6415474 20.7932308,18.3075328 20.4562615,17.9738394 M20.3483538,17.8672117 C20.3396308,17.8758832 20.3315538,17.8839124 20.3228308,17.8925839 C20.0769692,18.1382774 19.8311077,18.3836496 19.5862154,18.6280584 C19.7490462,18.4665109 19.9115538,18.3036788 20.0750308,18.1402044 C20.1780923,18.0621606 20.2811538,17.9825109 20.3819538,17.9006131 C20.3709692,17.8893723 20.3596615,17.8784526 20.3483538,17.8672117" id="Fill-32" fill="#C1AB81" sketch:type="MSShapeGroup"></path>
                <path d="M21.4649077,18.9726715 C21.2688,19.1952409 21.0549231,19.4219854 20.8194,19.6567591 C20.4685385,20.0071533 20.1050769,20.3588321 19.7335385,20.7085839 C19.7580923,20.7329927 19.7823231,20.7570803 19.8068769,20.7814891 C20.1784154,20.4314161 20.5415538,20.0797372 20.8930615,19.7299854 C21.1282615,19.4952117 21.3421385,19.2684672 21.5385692,19.0458978 C21.5140154,19.0214891 21.4894615,18.9970803 21.4649077,18.9726715 M20.3819538,17.9006131 C20.2811538,17.9825109 20.1780923,18.0621606 20.0750308,18.1402044 C19.9115538,18.3036788 19.7490462,18.4665109 19.5862154,18.6280584 C19.5849231,18.6290219 19.5839538,18.6299854 19.5829846,18.6309489 L19.5833077,18.6309489 L19.7031692,18.5442336 C19.9535538,18.3614891 20.2100769,18.1748905 20.4562615,17.9738394 C20.4313846,17.9494307 20.4068308,17.9250219 20.3819538,17.9006131" id="Fill-33" fill="#A07E66" sketch:type="MSShapeGroup"></path>
                <path d="M28.2349846,27.9165547 C30.3663231,30.0279124 32.4873231,31.3482336 32.9719385,30.8651971 C33.4565538,30.3821606 32.1206308,28.2778686 29.9889692,26.1668321 C27.8569846,24.0551533 25.7359846,22.7351533 25.2513692,23.2185109 C24.7677231,23.7018686 26.103,25.8051971 28.2349846,27.9165547" id="Fill-34" fill="#C09372" sketch:type="MSShapeGroup"></path>
                <path d="M27.1891846,26.8631241 L28.9244308,25.1320292 C28.9244308,25.1320292 16.1425385,12.4703066 14.5284462,10.8728175 C13.4829692,9.83705109 11.7435231,9.31322628 11.4692308,9.58654015 C11.1952615,9.85985401 11.8026462,11.6243504 12.7925538,12.6045547 C14.2968,14.0938102 27.1891846,26.8631241 27.1891846,26.8631241" id="Fill-35" fill="#C09372" sketch:type="MSShapeGroup"></path>
                <path d="M16.5363692,12.8602044 C16.3363846,12.8120292 16.1415692,12.7911533 15.9561231,12.8120292 C15.8727692,12.8210219 15.8016923,12.8361168 15.7383692,12.8496058 C15.5590615,12.8871825 15.4169077,12.9176934 15.1758923,12.7905109 C14.9542615,12.672 14.7558923,12.5030657 14.5636615,12.3392701 C14.4312,12.2268613 14.2951846,12.1102774 14.1536769,12.0136058 C14.0425385,11.9381314 13.9336615,11.8588029 13.8260769,11.7801168 C13.2093231,11.3333723 12.6242308,10.9116788 11.8469077,11.2482628 C11.8310769,11.2174307 11.8168615,11.1865985 11.8023231,11.1554453 C12.6336,10.7905985 13.2435692,11.2305985 13.8871385,11.6978978 C13.9944,11.7752993 14.1023077,11.8530219 14.2124769,11.9291387 C14.3578615,12.0283796 14.4971077,12.1462482 14.6311846,12.2615474 C14.8192154,12.4211679 15.0127385,12.5868905 15.225,12.6986569 C15.4320923,12.8084964 15.5454923,12.7853723 15.7167231,12.7487591 C15.7819846,12.7346277 15.8562923,12.7195328 15.9444923,12.7092555 C16.0931077,12.6928759 16.2475385,12.7037956 16.4045538,12.7307737 C16.4481692,12.7731679 16.4914615,12.8168467 16.5363692,12.8602044" id="Fill-36" fill="#D7B885" sketch:type="MSShapeGroup"></path>
                <path d="M28.0110923,25.1423066 C28.1916923,25.257927 28.3739077,25.3761168 28.5512769,25.5045839 L28.4779385,25.5778102 C28.3099385,25.4567299 28.1348308,25.344 27.9548769,25.2283796 C27.6809077,25.0530219 27.3972462,24.8709197 27.1342615,24.6493139 C26.0409692,23.7320584 25.2756,23.0145693 24.5771077,22.2495474 C24.2679231,21.9116788 23.9122154,21.5050803 23.6088462,21.0512701 C23.5810615,21.0088759 23.5355077,20.951708 23.4831692,20.8861898 C23.3003077,20.6581606 23.0502462,20.3463066 23.1109846,20.1349781 C23.1471692,20.0097226 23.2230923,19.9236496 23.3355231,19.8790073 C23.4082154,19.851708 23.4957692,19.8433577 23.5914,19.8484964 C23.6311385,19.8886423 23.6705538,19.9268613 23.7102923,19.966365 C23.5765385,19.9419562 23.4605538,19.9419562 23.3736462,19.9750365 C23.2915846,20.0074745 23.2373077,20.0688175 23.2108154,20.163562 C23.1633231,20.3235036 23.4046615,20.6237956 23.5639385,20.8225985 C23.6175692,20.8900438 23.6647385,20.9484964 23.6951077,20.993781 C23.9952462,21.4430949 24.3470769,21.8451971 24.6536769,22.1804964 C25.3489385,22.9416642 26.1107538,23.6562628 27.2004923,24.5706277 C27.4596,24.7880584 27.7397077,24.9679124 28.0110923,25.1423066" id="Fill-37" fill="#D7B885" sketch:type="MSShapeGroup"></path>
                <path d="M26.8363846,25.0347153 C27.1646308,25.3395036 27.5041846,25.6548905 27.8615077,25.8026277 C27.9296769,25.8308905 28.0540615,25.8321752 28.1745692,25.8334599 L28.2214154,25.8341022 L28.1193231,25.9362336 C28.0043077,25.9339854 27.8970462,25.9285255 27.8217692,25.8976934 C27.4460308,25.7435328 27.1006615,25.4210803 26.7659538,25.1105109 C26.6354308,24.9891095 26.5113692,24.8741314 26.3918308,24.7745693 C25.7182154,24.2154161 25.0849846,23.5856058 24.4730769,22.9769927 C24.0033231,22.5090511 23.5170923,22.0266569 23.0150308,21.5767007 C22.3352769,20.9677664 21.6749077,20.3463066 21.0516923,19.7299854 C20.4048923,19.0889343 19.9167231,18.5089051 19.5151385,17.9038248 C19.4550462,17.8119708 19.3716923,17.7085547 19.2847846,17.5990365 C19.0360154,17.2871825 18.7542923,16.9338978 18.7523538,16.593781 L18.7517077,16.5520292 L18.7927385,16.5433577 C19.5875077,16.3644672 20.7092308,17.1455474 21.2465077,17.6346861 C21.4422923,17.8132555 21.6516462,17.9783358 21.8632615,18.1373139 C22.0286769,18.3007883 22.1931231,18.4632993 22.3572462,18.6261314 L22.2373846,18.5394161 C21.8800615,18.2811971 21.5098154,18.0146277 21.1770462,17.7111241 C20.6982462,17.2759416 19.6104462,16.5032117 18.8573538,16.6348905 C18.8828769,16.9287591 19.1387538,17.2502482 19.3658769,17.5351241 C19.4550462,17.645927 19.5387231,17.7512701 19.6023692,17.8466569 C19.9994308,18.4462774 20.4830769,19.0205255 21.1250308,19.656438 C21.7466308,20.2717956 22.4063538,20.8926131 23.0841692,21.4999416 C23.5888154,21.9518248 24.0756923,22.4351825 24.5464154,22.9037664 C25.1570308,23.5110949 25.7883231,24.1392993 26.4580615,24.6949197 C26.5801846,24.7973723 26.7048923,24.9129927 26.8363846,25.0347153" id="Fill-38" fill="#D7B885" sketch:type="MSShapeGroup"></path>
                <path d="M16.2326769,14.9355912 C16.6226308,14.6552117 17.5631077,14.9799124 18.0687231,15.1536642 C18.1368923,15.1774307 18.1966615,15.1979854 18.2451231,15.2140438 C18.69,15.3582482 19.0944923,15.5474161 19.4728154,15.7699854 C19.5858923,15.8817518 19.7009077,15.9944818 19.8152769,16.1088175 C19.3290462,15.7809051 18.8076,15.5043796 18.2137846,15.3123212 C18.1640308,15.2956204 18.1036154,15.2750657 18.0341538,15.2512993 C17.5818462,15.0952117 16.6394308,14.7698686 16.2934154,15.0184526 C16.2000462,15.086219 16.1561077,15.1893139 16.1577231,15.3360876 C16.1612769,15.5673285 16.2162,15.8207299 16.3005231,16.0779854 C16.2498,16.0288467 16.1997231,15.9787445 16.1499692,15.9292847 C16.0940769,15.7253431 16.0569231,15.5246131 16.0543385,15.3380146 C16.0520769,15.1568759 16.1121692,15.0223066 16.2326769,14.9355912" id="Fill-39" fill="#D7B885" sketch:type="MSShapeGroup"></path>
                <path d="M23.5106308,27.4945401 C23.9338615,27.0734891 24.6191077,27.0725255 25.0429846,27.4919708 C25.0901538,27.5385401 25.1298923,27.589927 25.1664,27.6422774 L29.7017538,23.1173431 C29.6484462,23.0810511 29.5964308,23.0415474 29.5499077,22.9946569 C29.1263538,22.5755328 29.1253846,21.8943358 29.5473231,21.4723212 C29.9692615,21.0512701 30.6548308,21.0499854 31.0787077,21.4694307 C31.5016154,21.8888759 31.5032308,22.5710365 31.0816154,22.9924088 L31.0157077,23.0457226 L25.0988769,28.9494307 L25.0452462,29.0146277 C24.6239538,29.4353577 23.9374154,29.4369635 23.5141846,29.0175182 C23.0909538,28.5974307 23.0890154,27.9155912 23.5106308,27.4945401" id="Fill-40" fill="#C09372" sketch:type="MSShapeGroup"></path>
                <path d="M32.5164,32.0853139 C32.0505231,31.6241168 32.0489077,30.8738686 32.5134923,30.4110657 C32.9777538,29.9479416 33.7314923,29.9463358 34.1976923,30.4075328 C34.6632462,30.8690511 34.6648615,31.6186569 34.2006,32.0821022 C33.7366615,32.5449051 32.9826,32.5465109 32.5164,32.0853139" id="Fill-41" fill="#C09372" sketch:type="MSShapeGroup"></path>
                <path d="M31.4256923,27.7270657 L31.4932154,27.8112117 C31.3552615,27.8642044 31.2153692,27.9194453 31.0787077,27.9727591 C30.4338462,28.2213431 29.7757385,28.4782774 29.1344308,28.7615474 L29.0491385,28.686073 C29.7059538,28.3934891 30.3805385,28.1317372 31.0412308,27.8764088 C31.1678769,27.8275912 31.2974308,27.7768467 31.4256923,27.7270657" id="Fill-42" fill="#D7B885" sketch:type="MSShapeGroup"></path>
                <path d="M31.0331538,30.2437372 C31.0047231,30.2247883 30.9759692,30.2051971 30.9465692,30.185927 C31.1158615,29.9569343 31.2838615,29.7199124 31.4531538,29.4642628 C31.5726923,29.2853723 31.7200154,29.1161168 31.8621692,28.9516788 C31.9545692,28.8450511 32.0450308,28.7400292 32.1274154,28.6330803 C32.1493846,28.6626277 32.1687692,28.691854 32.1900923,28.7207591 C32.1099692,28.8222482 32.025,28.9208467 31.9400308,29.0191241 C31.8004615,29.1803504 31.6557231,29.348 31.5400615,29.5211095 C31.3707692,29.7767591 31.2021231,30.013781 31.0331538,30.2437372" id="Fill-43" fill="#D7B885" sketch:type="MSShapeGroup"></path>
                <path d="M29.1444462,26.6855182 C29.0394462,26.7799416 28.9454308,26.8637664 28.8743538,26.9331387 C28.8265385,26.979708 28.7709692,27.0378394 28.7095846,27.1017518 C28.5225231,27.2967007 28.2876462,27.538219 28.0385538,27.7206423 L27.9661846,27.6458102 C28.2165692,27.4646715 28.4566154,27.2148029 28.6352769,27.0304526 C28.6976308,26.9652555 28.7535231,26.9064818 28.8016615,26.8602336 C28.8743538,26.7892555 28.9680462,26.7047883 29.0743385,26.6094015 C29.2846615,26.4211971 29.5431231,26.187708 29.7624923,25.9455474 L29.8361538,26.0171679 C29.6132308,26.2628613 29.3547692,26.495708 29.1444462,26.6855182" id="Fill-44" fill="#D7B885" sketch:type="MSShapeGroup"></path>
                <path d="M12.2094,10.0573723 C12.7686462,10.3788613 13.5049385,10.6261606 14.1239538,10.5214599 C14.1598154,10.5497226 14.1947077,10.5786277 14.2296,10.6065693 C13.5643846,10.7559124 12.7596,10.4931971 12.1573846,10.1463358 C11.9961692,10.0535182 11.7276923,9.83640876 11.4989538,9.56791241 C11.5267385,9.54928467 11.5626,9.53611679 11.6062154,9.52776642 C11.8139538,9.7670365 12.0527077,9.96680292 12.2094,10.0573723" id="Fill-45" fill="#D7B885" sketch:type="MSShapeGroup"></path>
                <path d="M13.7446615,13.5475036 C13.7123538,13.5150657 13.6794,13.4823066 13.6483846,13.4514745 C13.7637231,13.4424818 13.8790615,13.4418394 13.9973077,13.4569343 C14.4593077,13.5189197 15.2266154,13.7893431 15.5752154,14.1506569 C15.6744,13.8278832 15.9874615,13.7196496 16.2236308,13.6653723 C16.5912923,13.5812263 16.9295538,13.6245839 17.2112769,13.6778978 C17.2377692,13.6833577 17.2697538,13.6884964 17.3049692,13.6945985 C17.3324308,13.6987737 17.3624769,13.7039124 17.3931692,13.7096934 C17.4371077,13.7530511 17.4813692,13.7964088 17.5256308,13.8410511 C17.4390462,13.821781 17.3550462,13.8070073 17.2878462,13.7954453 C17.2519846,13.7899854 17.2196769,13.7842044 17.1922154,13.7790657 C16.9205077,13.7273577 16.5961385,13.6856058 16.2468923,13.7652555 C15.8753538,13.8500438 15.6928154,14.0061314 15.6543692,14.2698102 L15.6366,14.3924964 L15.5616462,14.2932555 C15.2789538,13.9184526 14.4492923,13.6210511 13.9840615,13.5600292 C13.9029692,13.548146 13.8231692,13.5452555 13.7446615,13.5475036" id="Fill-46" fill="#D7B885" sketch:type="MSShapeGroup"></path>
                <path d="M26.8825846,23.2226861 C26.9552769,23.2570511 27.0308769,23.2933431 27.1058308,23.329635 C27.1778769,23.4006131 27.2479846,23.4706277 27.3161538,23.538073 C27.1520308,23.4658102 26.9911385,23.3890511 26.8370308,23.3148613 L26.7691846,23.2821022 C26.3908615,23.0983942 25.9185231,22.8710073 25.5825231,22.4756496 C25.5738,22.4660146 24.8572154,21.6110657 24.7964769,21.0425985 C24.8378308,21.0833869 24.8791846,21.1235328 24.9202154,21.1643212 C25.0358769,21.5937226 25.4652462,22.1785693 25.6623231,22.4098102 C25.9598769,22.7598832 26.3436923,22.9615766 26.8144154,23.1892847 L26.8825846,23.2226861" id="Fill-47" fill="#D7B885" sketch:type="MSShapeGroup"></path>
            </g>
            <polygon id="Star-40" fill="#2BAC72" sketch:type="MSShapeGroup" points="24.0027503 8.02665181 21.6516093 9.26271978 22.1006373 6.6446858 20.1985242 4.79058383 22.8271798 4.40861782 24.0027503 2.02665181 25.1783208 4.40861782 27.8069764 4.79058383 25.9048633 6.6446858 26.3538913 9.26271978 "></polygon>
            <polygon id="Star-36-Copy-3" fill="#2BAC72" sketch:type="MSShapeGroup" points="32.4272054 12.2574463 30.0760644 13.4935143 30.5250924 10.8754803 28.6229793 9.02137831 31.2516349 8.6394123 32.4272054 6.25744629 33.6027759 8.6394123 36.2314315 9.02137831 34.3293184 10.8754803 34.7783464 13.4935143 "></polygon>
            <polygon id="Star-36-Copy-4" fill="#2BAC72" sketch:type="MSShapeGroup" points="41.2604943 16.846012 38.7883583 18.1456908 39.2604943 15.392927 37.2604943 13.4434088 40.0244263 13.0417859 41.2604943 10.5372387 42.4965623 13.0417859 45.2604943 13.4434088 43.2604943 15.392927 43.7326302 18.1456908 "></polygon>
            <polygon id="Star-36-Copy" fill="#2BAC72" sketch:type="MSShapeGroup" transform="translate(15.572795, 10.257446) scale(-1, 1) translate(-15.572795, -10.257446) " points="15.5727946 12.2574463 13.2216536 13.4935143 13.6706816 10.8754803 11.7685685 9.02137831 14.3972241 8.6394123 15.5727946 6.25744629 16.7483651 8.6394123 19.3770207 9.02137831 17.4749076 10.8754803 17.9239356 13.4935143 "></polygon>
            <polygon id="Star-36-Copy-2" fill="#2BAC72" sketch:type="MSShapeGroup" transform="translate(6.739506, 14.341465) scale(-1, 1) translate(-6.739506, -14.341465) " points="6.73950571 16.846012 4.26736976 18.1456908 4.73950571 15.392927 2.73950571 13.4434088 5.50343773 13.0417859 6.73950571 10.5372387 7.97557369 13.0417859 10.7395057 13.4434088 8.73950571 15.392927 9.21164167 18.1456908 "></polygon>
        </g>
    </g>
</svg>