<?xml version="1.0" encoding="UTF-8" standalone="no"?>
<svg width="48px" height="61px" viewBox="0 0 48 61" version="1.1" xmlns="http://www.w3.org/2000/svg" xmlns:xlink="http://www.w3.org/1999/xlink" xmlns:sketch="http://www.bohemiancoding.com/sketch/ns">
    <!-- Generator: Sketch 3.3.3 (12072) - http://www.bohemiancoding.com/sketch -->
    <title>Warrior_2_star</title>
    <desc>Created with Sketch.</desc>
    <defs></defs>
    <g id="Levels-and-languages" stroke="none" stroke-width="1" fill="none" fill-rule="evenodd" sketch:type="MSPage">
        <g id="Warrior_2_star" sketch:type="MSArtboardGroup" transform="translate(0.000000, 0.500000)">
            <g id="Captain-badge-big-Copy" sketch:type="MSLayerGroup" transform="translate(3.000000, 14.000000)">
                <path d="M21.0862443,0.112408759 L21.0862443,0.110160584 L21.0811145,0.110160584 L21.0811145,0.112408759 L0.28919084,10.4174015 C0.28919084,35.3275036 20.7367786,43.5416934 21.0811145,43.6791533 L21.0811145,43.6817226 C21.0811145,43.6817226 21.0823969,43.680438 21.0836794,43.680438 C21.0849618,43.680438 21.0862443,43.6817226 21.0862443,43.6817226 L21.0862443,43.6791533 C21.4312214,43.5416934 41.8784885,35.3275036 41.8784885,10.4174015 L21.0862443,0.112408759" id="Fill-1" fill="#FBC13D" sketch:type="MSShapeGroup"></path>
                <path d="M21.1138168,0.342686131 L0.28919084,10.4174015 C0.28919084,34.1443212 19.1606565,42.5524964 21.2205802,43.4331387 L21.1138168,0.342686131" id="Fill-2" fill="#FF9900" sketch:type="MSShapeGroup"></path>
                <path d="M20.8791298,33.704 L40.5309618,16.7460146 C40.5960458,16.2812847 40.6543969,15.8094891 40.7034504,15.3303066 L20.8791298,32.4369927 L20.8791298,33.704" id="Fill-3" fill="#FF9900" sketch:type="MSShapeGroup"></path>
                <path d="M20.8791298,31.370073 L40.8034809,14.1773139 C40.835542,13.739562 40.8595878,13.2953869 40.8778626,12.8463942 L20.8791298,30.1033869 L20.8791298,31.370073" id="Fill-4" fill="#FF9900" sketch:type="MSShapeGroup"></path>
                <path d="M20.8791298,23.9681168 L37.6650229,9.48344526 L36.732687,9.02128467 L20.8791298,22.7007883 L20.8791298,23.9681168" id="Fill-5" fill="#FF9900" sketch:type="MSShapeGroup"></path>
                <path d="M20.8791298,26.4350073 L39.4812824,10.3830365 L38.548626,9.92055474 L20.8791298,25.168 L20.8791298,26.4350073" id="Fill-6" fill="#FF9900" sketch:type="MSShapeGroup"></path>
                <path d="M20.8791298,28.9693431 L40.9089618,11.6853723 C40.9118473,11.4881752 40.9166565,11.2938686 40.9166565,11.0944234 L40.4136183,10.8451971 L20.8791298,27.7023358 L20.8791298,28.9693431" id="Fill-7" fill="#FF9900" sketch:type="MSShapeGroup"></path>
                <path d="M20.8791298,41.172438 L37.6114809,26.7336934 C37.9147786,26.0849343 38.2042901,25.4159416 38.4745649,24.7218978 L20.8791298,39.906073 L20.8791298,41.172438" id="Fill-8" fill="#FF9900" sketch:type="MSShapeGroup"></path>
                <path d="M20.8791298,36.2383358 L39.9852824,19.7508613 C40.098458,19.2482336 40.2026565,18.7372555 40.2965954,18.2153577 L20.8791298,34.9706861 L20.8791298,36.2383358" id="Fill-9" fill="#FF9900" sketch:type="MSShapeGroup"></path>
                <path d="M29.2800916,37.8001752 L28.6228397,38.3673577 C28.8405344,38.1839708 29.0598321,37.9941606 29.2800916,37.8001752" id="Fill-10" fill="#FF9834" sketch:type="MSShapeGroup"></path>
                <path d="M20.8791298,38.771708 L39.0660916,23.0778394 C39.2507634,22.520292 39.4238931,21.9489343 39.5845191,21.3634453 L20.8791298,37.5047007 L20.8791298,38.771708" id="Fill-11" fill="#FF9900" sketch:type="MSShapeGroup"></path>
                <path d="M20.8791298,6.69635036 L24.9521679,3.18245255 L24.0191908,2.7199708 L20.8791298,5.4299854 L20.8791298,6.69635036" id="Fill-12" fill="#FF9900" sketch:type="MSShapeGroup"></path>
                <path id="Fill-13" fill="#FF9834" sketch:type="MSShapeGroup" d="M20.8791298,1.69512409 L21.2702748,1.35757664 L20.8791298,1.16391241 L20.8791298,1.69512409"></path>
                <path d="M20.8791298,4.02937226 L22.9884275,2.2089927 L22.0560916,1.74715328 L20.8791298,2.76268613 L20.8791298,4.02937226" id="Fill-14" fill="#FF9900" sketch:type="MSShapeGroup"></path>
                <path d="M35.0135725,31.3096934 C35.5852214,30.4679124 36.1344275,29.5747445 36.6525344,28.6279416 L20.8791298,42.24 L20.8791298,43.2796204 C20.9871756,43.2343358 21.1715267,43.1546861 21.4212824,43.0387445 L35.0135725,31.3096934" id="Fill-15" fill="#FF9900" sketch:type="MSShapeGroup"></path>
                <path d="M20.8791298,21.6338686 L35.9471908,8.63170803 L35.0142137,8.16922628 L20.8791298,20.3668613 L20.8791298,21.6338686" id="Fill-16" fill="#FF9900" sketch:type="MSShapeGroup"></path>
                <path d="M20.8791298,9.23068613 L26.8171603,4.10645255 L25.8845038,3.6439708 L20.8791298,7.96367883 L20.8791298,9.23068613" id="Fill-17" fill="#FF9900" sketch:type="MSShapeGroup"></path>
                <path d="M20.8791298,11.6314161 L28.5840458,4.98259854 L27.6520305,4.52043796 L20.8791298,10.3647299 L20.8791298,11.6314161" id="Fill-18" fill="#FF9900" sketch:type="MSShapeGroup"></path>
                <path d="M20.8791298,16.6991241 L32.3149924,6.83124088 L31.3816947,6.36908029 L20.8791298,15.4327591 L20.8791298,16.6991241" id="Fill-19" fill="#FF9900" sketch:type="MSShapeGroup"></path>
                <path d="M20.8791298,19.2334599 L34.1796641,7.75588321 L33.2476489,7.29372263 L20.8791298,17.9661314 L20.8791298,19.2334599" id="Fill-20" fill="#FF9900" sketch:type="MSShapeGroup"></path>
                <path d="M20.8791298,13.9647007 L30.3021985,5.8340146 L29.369542,5.37153285 L20.8791298,12.6983358 L20.8791298,13.9647007" id="Fill-21" fill="#FF9900" sketch:type="MSShapeGroup"></path>
                <path d="M21.0862443,0.112408759 L21.0862443,0.110160584 L21.0811145,0.110160584 L21.0811145,0.112408759 L0.28919084,10.4174015 C0.28919084,35.3275036 20.7367786,43.5416934 21.0811145,43.6791533 L21.0811145,43.6817226 C21.0811145,43.6817226 21.0823969,43.680438 21.0836794,43.680438 C21.0849618,43.680438 21.0862443,43.6817226 21.0862443,43.6817226 L21.0862443,43.6791533 C21.4312214,43.5416934 41.8784885,35.3275036 41.8784885,10.4174015 L21.0862443,0.112408759 L21.0862443,0.112408759 Z M21.0859237,40.7176642 L21.0859237,40.7189489 L21.0836794,40.7189489 L21.0811145,40.7189489 L21.0811145,40.7176642 C20.7839084,40.5985109 3.1169771,33.4994161 3.1169771,11.9789197 L21.0811145,3.07389781 L21.0811145,3.0719708 L21.0836794,3.07325547 L21.0859237,3.0719708 L21.0859237,3.07389781 L39.0503817,11.9789197 C39.0503817,33.4994161 21.383771,40.5985109 21.0859237,40.7176642 L21.0859237,40.7176642 Z" id="Fill-22" fill="#1A1A1A" sketch:type="MSShapeGroup"></path>
                <path d="M21.0859237,2.04327007 L21.0859237,2.04134307 L21.0814351,2.04134307 L21.0814351,2.04327007 L2.13270229,11.4348613 C2.13270229,34.1369343 20.7675573,41.6227153 21.0814351,41.748292 L21.0814351,41.750219 C21.0814351,41.750219 21.0823969,41.7489343 21.0836794,41.7489343 C21.0849618,41.7489343 21.0859237,41.750219 21.0859237,41.750219 L21.0859237,41.748292 C21.4004427,41.6227153 40.0349771,34.1369343 40.0349771,11.4348613 L21.0859237,2.04327007 L21.0859237,2.04327007 Z M21.0859237,40.7353285 L21.0859237,40.7366131 L21.0836794,40.7366131 L21.0811145,40.7366131 L21.0811145,40.7353285 C20.7835878,40.6161752 3.10030534,33.5103358 3.10030534,11.9692847 L21.0811145,3.05623358 L21.0811145,3.05462774 L21.0836794,3.05559124 L21.0859237,3.05462774 L21.0859237,3.05623358 L39.0670534,11.9692847 C39.0670534,33.5103358 21.3840916,40.6161752 21.0859237,40.7353285 L21.0859237,40.7353285 Z" id="Fill-23" fill="#2E2E2E" sketch:type="MSShapeGroup"></path>
                <path d="M21.0862443,0.110160584 L21.0811145,0.110160584 L21.0811145,0.112408759 L21.0602748,0.122686131 L21.0602748,3.08385401 L21.0811145,3.07389781 L21.0811145,3.0719708 L21.0836794,3.07325547 L21.0859237,3.0719708 L21.0859237,3.07389781 L39.0503817,11.9789197 C39.0503817,33.4994161 21.383771,40.5985109 21.0859237,40.7176642 L21.0859237,40.7189489 L21.0836794,40.7189489 L21.0811145,40.7189489 L21.0811145,40.7176642 C21.0772672,40.7157372 21.0689313,40.7125255 21.0602748,40.7089927 L21.0602748,43.6708029 C21.0682901,43.6740146 21.0775878,43.6778686 21.0811145,43.6791533 L21.0811145,43.6817226 C21.0811145,43.6817226 21.0823969,43.680438 21.0836794,43.680438 C21.0849618,43.680438 21.0862443,43.6817226 21.0862443,43.6817226 L21.0862443,43.6791533 C21.4312214,43.5416934 41.8784885,35.3275036 41.8784885,10.4174015 L21.0862443,0.112408759 L21.0862443,0.110160584" id="Fill-24" fill="#2E2E2E" sketch:type="MSShapeGroup"></path>
                <path d="M40.0349771,11.4348613 L21.0859237,2.04327007 L21.0859237,2.04134307 L21.0814351,2.04134307 L21.0814351,2.04327007 L21.0602748,2.05386861 L21.0602748,3.06651095 L21.0811145,3.05623358 L21.0811145,3.05462774 L21.0836794,3.05559124 L21.0859237,3.05462774 L21.0859237,3.05623358 L39.0670534,11.9692847 C39.0670534,33.5103358 21.3840916,40.6161752 21.0859237,40.7353285 L21.0859237,40.7366131 L21.0836794,40.7366131 L21.0811145,40.7366131 L21.0811145,40.7353285 C21.0772672,40.7334015 21.0689313,40.7301898 21.0602748,40.7263358 L21.0602748,41.7396204 C21.0689313,41.7431533 21.0779084,41.746365 21.0814351,41.748292 L21.0814351,41.750219 C21.0814351,41.750219 21.0823969,41.7489343 21.0836794,41.7489343 C21.0849618,41.7489343 21.0859237,41.750219 21.0859237,41.750219 L21.0859237,41.748292 C21.4004427,41.6227153 40.0349771,34.1369343 40.0349771,11.4348613" id="Fill-25" fill="#1A1A1A" sketch:type="MSShapeGroup"></path>
                <path d="M29.075542,20.9639124 C29.075542,23.4699854 25.3971756,25.5004088 20.8598931,25.5004088 C16.3226107,25.5004088 12.6442443,23.4699854 12.6442443,20.9639124 C12.6442443,18.4584818 16.3226107,16.4274161 20.8598931,16.4274161 C25.3971756,16.4274161 29.075542,18.4584818 29.075542,20.9639124" id="Fill-26" fill="#2E2E2E" sketch:type="MSShapeGroup"></path>
                <path d="M29.075542,20.6427445 C29.075542,22.9712117 25.3971756,24.858073 20.8598931,24.858073 C16.3226107,24.858073 12.6442443,22.9712117 12.6442443,20.6427445 C12.6442443,18.3149197 16.3226107,16.4274161 20.8598931,16.4274161 C25.3971756,16.4274161 29.075542,18.3149197 29.075542,20.6427445" id="Fill-27" fill="#1A1A1A" sketch:type="MSShapeGroup"></path>
                <path d="M22.3827939,21.2047883 C22.3827939,21.2047883 23.8656183,21.7806423 25.3083664,21.4055182 C26.7511145,21.0310365 27.4990992,19.5192993 27.4990992,19.5192993 L14.5945191,19.4390073 C14.5945191,19.4390073 15.1555878,21.0442044 16.8923359,21.4456642 C18.629084,21.8471241 19.8179084,20.9237664 19.8179084,20.9237664" id="Fill-28" fill="#FFFFFF" sketch:type="MSShapeGroup"></path>
                <path d="M29.8325038,22.4104526 C29.4596336,22.1544818 29.3179237,21.2651679 29.2695115,20.4227445 C29.2756031,20.3980146 29.2820153,20.3736058 29.2881069,20.3491971 C29.8927786,19.1159124 30.2335878,17.7297518 30.2335878,16.2629781 C30.2335878,12.2930219 27.7450076,8.9050219 24.2449008,7.57956204 C23.2266412,7.19383942 20.969542,6.05915328 20.969542,6.05915328 C20.969542,6.05915328 18.762458,7.18452555 17.7634351,7.55386861 C14.2270992,8.86070073 11.7051756,12.2666861 11.7051756,16.2629781 C11.7051756,17.6513869 12.0110382,18.9665693 12.5567176,20.1491095 C12.5246565,21.0631533 12.3951298,22.126219 11.981542,22.4104526 C12.4050687,22.9291387 12.9789618,24.1254891 13.3335573,25.2376934 C13.3880611,26.7670949 13.2723206,28.4423066 12.8276336,30.1242628 C14.0712824,34.3826277 16.9587023,37.2349197 18.0016489,37.5560876 C17.9214962,37.396146 18.6031145,23.5351825 18.4825649,23.6154745 C18.3626565,23.6957664 14.1918321,22.4098102 14.1918321,19.9596204 C15.1943817,20.3610803 19.8868397,21.7266861 19.8868397,21.7266861 C19.8868397,21.7266861 19.6861374,25.1021606 19.3251298,26.0663066 C19.8583053,27.0622482 20.7361374,27.8683796 20.9294656,28.039562 L20.9294656,28.0748905 C20.9294656,28.0748905 20.9374809,28.0671825 20.9493435,28.0572263 C20.9612061,28.0671825 20.969542,28.0748905 20.969542,28.0748905 L20.969542,28.039562 C21.1631908,27.8683796 22.0413435,27.0622482 22.5745191,26.0663066 C22.2131908,25.1021606 22.0124885,21.7266861 22.0124885,21.7266861 C22.0124885,21.7266861 26.704626,20.3610803 27.7074962,19.9596204 C27.7074962,22.4098102 23.5366718,23.6957664 23.4164427,23.6154745 C23.2958931,23.5351825 23.9775115,37.396146 23.8973588,37.5560876 C24.9403053,37.2349197 27.8274046,34.3826277 29.0710534,30.1242628 C28.5981527,28.3350365 28.4971603,26.5531971 28.577313,24.9467153 C28.9338321,23.9228321 29.4455267,22.8841752 29.8325038,22.4104526" id="Fill-29" fill="#2E2E2E" sketch:type="MSShapeGroup"></path>
                <path d="M30.2335878,16.2629781 C30.2335878,12.2930219 27.7450076,8.9050219 24.2449008,7.57956204 C23.2266412,7.19383942 20.969542,6.05915328 20.969542,6.05915328 C20.969542,6.05915328 20.9416489,6.0729635 20.8999695,6.09416058 L20.8999695,28.0132263 C20.908626,28.0209343 20.9224122,28.0334599 20.9294656,28.039562 L20.9294656,28.0748905 C20.9294656,28.0748905 20.9374809,28.0671825 20.9493435,28.0572263 C20.9612061,28.0671825 20.969542,28.0748905 20.969542,28.0748905 L20.969542,28.039562 C21.1631908,27.8683796 22.0413435,27.0622482 22.5745191,26.0663066 C22.2131908,25.1021606 22.0124885,21.7266861 22.0124885,21.7266861 C22.0124885,21.7266861 26.704626,20.3610803 27.7074962,19.9596204 C27.7074962,22.4098102 23.5366718,23.6957664 23.4164427,23.6154745 C23.2958931,23.5351825 23.9775115,37.396146 23.8973588,37.5560876 C24.9403053,37.2349197 27.8274046,34.3826277 29.0710534,30.1242628 C28.5981527,28.3350365 28.4971603,26.5531971 28.577313,24.9467153 C28.9338321,23.9228321 29.4455267,22.8841752 29.8325038,22.4104526 C29.4596336,22.1544818 29.3179237,21.2651679 29.2695115,20.4227445 C29.2756031,20.3980146 29.2820153,20.3736058 29.2881069,20.3491971 C29.8927786,19.1159124 30.2335878,17.7297518 30.2335878,16.2629781" id="Fill-30" fill="#1A1A1A" sketch:type="MSShapeGroup"></path>
                <path d="M20.1385191,21.2047883 C18.6156183,20.7230365 13.566,19.277781 13.566,19.277781 C13.566,19.277781 13.2854656,22.8106277 18.1347023,23.8142774 C18.1347023,23.8142774 17.1472214,36.4438832 18.0016489,37.5560876 C17.9214962,37.396146 18.6031145,23.5351825 18.4825649,23.6154745 C18.3626565,23.6957664 14.1918321,22.4098102 14.1918321,19.9596204 C15.1943817,20.3610803 19.8868397,21.7266861 19.8868397,21.7266861 C19.8868397,21.7266861 19.6861374,25.1021606 19.3251298,26.0663066 C19.8583053,27.0622482 20.7361374,27.8683796 20.9294656,28.039562 L20.9294656,28.0748905 C20.9294656,28.0748905 20.9374809,28.0671825 20.9493435,28.0572263 C20.9612061,28.0671825 20.969542,28.0748905 20.969542,28.0748905 C20.969542,28.0748905 19.6976794,26.4237664 19.7778321,25.9821606 C20.2186718,23.0515036 20.3389008,21.967562 20.1385191,21.2047883" id="Fill-31" fill="#1A1A1A" sketch:type="MSShapeGroup"></path>
                <path d="M21.7678626,21.2047883 C23.2907634,20.7230365 28.3403817,19.277781 28.3403817,19.277781 C28.3403817,19.277781 28.620916,22.8106277 23.7716794,23.8142774 C23.7716794,23.8142774 24.7591603,36.4438832 23.9047328,37.5560876 C23.9848855,37.396146 23.3032672,23.5351825 23.4238168,23.6154745 C23.5437252,23.6957664 27.7145496,22.4098102 27.7145496,19.9596204 C26.712,20.3610803 22.019542,21.7266861 22.019542,21.7266861 C22.019542,21.7266861 22.2202443,25.1021606 22.5812519,26.0663066 C22.0480763,27.0622482 21.1702443,27.8683796 20.976916,28.039562 L20.976916,28.0748905 C20.976916,28.0748905 20.9689008,28.0671825 20.9570382,28.0572263 C20.9451756,28.0671825 20.9368397,28.0748905 20.9368397,28.0748905 C20.9368397,28.0748905 22.2087023,26.4237664 22.1285496,25.9821606 C21.6877099,23.0515036 21.5674809,21.967562 21.7678626,21.2047883" id="Fill-32" fill="#2E2E2E" sketch:type="MSShapeGroup"></path>
            </g>
            <polygon id="Star-36-Copy-3" fill="#FF9900" sketch:type="MSShapeGroup" points="32.4272054 12.2574463 30.0760644 13.4935143 30.5250924 10.8754803 28.6229793 9.02137831 31.2516349 8.6394123 32.4272054 6.25744629 33.6027759 8.6394123 36.2314315 9.02137831 34.3293184 10.8754803 34.7783464 13.4935143 "></polygon>
            <polygon id="Star-36-Copy" fill="#FF9900" sketch:type="MSShapeGroup" transform="translate(15.572795, 10.257446) scale(-1, 1) translate(-15.572795, -10.257446) " points="15.5727946 12.2574463 13.2216536 13.4935143 13.6706816 10.8754803 11.7685685 9.02137831 14.3972241 8.6394123 15.5727946 6.25744629 16.7483651 8.6394123 19.3770207 9.02137831 17.4749076 10.8754803 17.9239356 13.4935143 "></polygon>
        </g>
    </g>
</svg>