<svg xmlns="http://www.w3.org/2000/svg" viewBox="0 0 48 60"><title>JS_shield</title><path fill="#E9EFF0" d="M0.1,10.5c0,24.9,20.6,33.1,21,33.3c0.4-0.1,21-8.4,21-33.3L21,0.2L0.1,10.5z" transform="translate(3 14)"/><path fill="#D9DFE0" d="M21,0.2L21,0.2L21,0.2L21,0.2l0,43.6l0,0v0l0,0l0,0v0c0.3-0.1,21-8.4,21-33.3L21,0.2L21,0.2" transform="translate(3 14)"/><path fill="#F2BA3A" d="M21,0.2L21,0.2L21,0.2L21,0.2l-21,10.3c0,24.9,20.6,33.1,21,33.3v0l0,0l0,0v0 c0.3-0.1,21-8.4,21-33.3L21,0.2 M21,40.8L21,40.8L21,40.8L21,40.8c-0.3-0.1-18.1-7.2-18.1-28.7L21,3.2v0l0,0l0,0v0l18.1,8.9 C39.2,33.6,21.3,40.7,21,40.8" transform="translate(3 14)"/><path fill="#E1A622" d="M21,2.2L21,2.2L21,2.2L21,2.2L1.9,11.6c0,22.7,18.8,30.2,19.1,30.3v0l0,0l0,0v0 c0.3-0.1,19.1-7.6,19.1-30.3L21,2.2 M21,40.9L21,40.9L21,40.9L21,40.9c-0.3-0.1-18.1-7.2-18.1-28.8L21,3.2v0l0,0l0,0v0l18.1,8.9 C39.2,33.6,21.3,40.7,21,40.9" transform="translate(3 14)"/><path fill="#D39F28" d="M21,3.2l18.1,8.9c0,21.5-17.8,28.6-18.1,28.7l0,3c0.4-0.1,21-8.3,21-33.3L26,2.7l-5-2.4 L21,3.2z" transform="translate(3 14)"/><path fill="#B8881B" d="M40.1,11.6L21,2.2v0h0v0l0,0v1l0,0v0l0,0l0,0v0l18.1,8.9c0,21.5-17.8,28.6-18.1,28.8v0h0v0 l0,0v1l0,0v0l0,0l0,0v0C21.4,41.7,40.1,34.3,40.1,11.6" transform="translate(3 14)"/><path fill="#FFDA83" d="M2.9,12.1l-1-0.5L21,2.2l0,1L2.9,12.1" transform="translate(3 14)"/><path fill="#FFD983" d="M40.1,11.6l-1,0.5c0,21.5-17.8,28.6-18.1,28.8v0h0v0l0,0v1l0,0v0l0,0l0,0v0 C21.4,41.7,40.1,34.3,40.1,11.6" transform="translate(3 14)"/><g><path fill="#9BA3A8" d="M8,1v14.7c0,2.6-1.3,3.9-3.9,3.9c-2.6,0-3.9-1.3-3.9-3.9v-0.7h2.6v0.7 C2.7,16.6,3.2,17,4,17c0.9,0,1.3-0.4,1.3-1.3V1H8" transform="translate(14 25)"/><path fill="#9BA3A8" d="M14.3,14.8v0.7c0,0.9,0.4,1.3,1.3,1.3c0.9,0,1.3-0.4,1.3-1.3v-1c0-1.2-0.9-2.4-2.6-3.7 c-1.7-1.2-2.6-2.8-2.6-4.7V5C11.7,2.3,13,1,15.6,1s3.9,1.3,3.9,3.9v0.7H17V5c0-0.9-0.4-1.3-1.3-1.3c-0.9,0-1.3,0.4-1.3,1.3v1 c0,1.2,0.9,2.4,2.6,3.7c1.7,1.2,2.6,2.8,2.6,4.7v1c0,2.6-1.3,3.9-3.9,3.9s-3.9-1.3-3.9-3.9v-0.7H14.3z" transform="translate(14 25)"/><path fill="#F0BC44" d="M8,0.7v14.7C8,18,6.7,19.3,4,19.3c-2.6,0-3.9-1.3-3.9-3.9v-0.7h2.6v0.7 c0,0.9,0.4,1.3,1.3,1.3c0.9,0,1.3-0.4,1.3-1.3V0.7H8" transform="translate(14 25)"/><path fill="#E1B248" d="M11.7,14.4h2.6v0.7c0,0.9,0.4,1.3,1.3,1.3c0.9,0,1.3-0.4,1.3-1.3v-1c0-1.2-0.9-2.4-2.6-3.7 c-1.7-1.2-2.6-2.8-2.6-4.7v-1c0-2.6,1.3-3.9,3.9-3.9s3.9,1.3,3.9,3.9v0.7H17V4.6c0-0.9-0.4-1.3-1.3-1.3c-0.9,0-1.3,0.4-1.3,1.3 v1c0,1.2,0.9,2.4,2.6,3.7c1.7,1.2,2.6,2.8,2.6,4.7v1c0,2.6-1.3,3.9-3.9,3.9s-3.9-1.3-3.9-3.9V14.4" transform="translate(14 25)"/></g></svg>