<?xml version="1.0" encoding="UTF-8" standalone="no"?>
<svg width="48px" height="61px" viewBox="0 0 48 61" version="1.1" xmlns="http://www.w3.org/2000/svg" xmlns:xlink="http://www.w3.org/1999/xlink" xmlns:sketch="http://www.bohemiancoding.com/sketch/ns">
    <!-- Generator: Sketch 3.3.3 (12072) - http://www.bohemiancoding.com/sketch -->
    <title>Ninja_4_star</title>
    <desc>Created with Sketch.</desc>
    <defs></defs>
    <g id="Levels-and-languages" stroke="none" stroke-width="1" fill="none" fill-rule="evenodd" sketch:type="MSPage">
        <g id="Ninja_4_star" sketch:type="MSArtboardGroup" transform="translate(0.000000, 0.500000)">
            <g id="Ninja-badge-big" sketch:type="MSLayerGroup" transform="translate(3.000000, 14.000000)">
                <path d="M20.9602615,0.0818529412 L20.9602615,0.0792647059 L20.9550923,0.0792647059 L20.9550923,0.0818529412 L0.00290769231,10.4626176 C0.00290769231,35.5555588 20.6081077,43.8301471 20.9550923,43.9686176 L20.9550923,43.9708824 C20.9550923,43.9708824 20.9563846,43.9695882 20.9576769,43.9695882 C20.9589692,43.9695882 20.9602615,43.9708824 20.9602615,43.9708824 L20.9602615,43.9686176 C21.3078923,43.8301471 41.9121231,35.5555588 41.9121231,10.4626176 L20.9602615,0.0818529412" id="Fill-142" fill="#1A1A1A" sketch:type="MSShapeGroup"></path>
                <path d="M20.9602615,0.0792647059 L20.9550923,0.0792647059 L20.9550923,0.0818529412 L20.9337692,0.0922058824 L20.9337692,43.9602059 C20.9421692,43.9634412 20.9512154,43.9673235 20.9550923,43.9686176 L20.9550923,43.9708824 C20.9550923,43.9708824 20.9563846,43.9695882 20.9576769,43.9695882 C20.9589692,43.9695882 20.9602615,43.9708824 20.9602615,43.9708824 L20.9602615,43.9686176 C21.3078923,43.8301471 41.9121231,35.5555588 41.9121231,10.4626176 L20.9602615,0.0818529412 L20.9602615,0.0792647059" id="Fill-143" fill="#242424" sketch:type="MSShapeGroup"></path>
                <path d="M20.9602615,0.0818529412 L20.9602615,0.0792647059 L20.9550923,0.0792647059 L20.9550923,0.0818529412 L0.00290769231,10.4626176 C0.00290769231,35.5555588 20.6081077,43.8301471 20.9550923,43.9686176 L20.9550923,43.9708824 C20.9550923,43.9708824 20.9563846,43.9695882 20.9576769,43.9695882 C20.9589692,43.9695882 20.9602615,43.9708824 20.9602615,43.9708824 L20.9602615,43.9686176 C21.3078923,43.8301471 41.9121231,35.5555588 41.9121231,10.4626176 L20.9602615,0.0818529412 L20.9602615,0.0818529412 Z M20.9596154,40.9853529 L20.9596154,40.9866471 L20.9576769,40.9866471 L20.9547692,40.9866471 L20.9547692,40.9853529 C20.6552769,40.8653235 2.85276923,33.7140294 2.85276923,12.0352941 L20.9547692,3.06479412 L20.9547692,3.06317647 L20.9576769,3.06414706 L20.9596154,3.06317647 L20.9596154,3.06479412 L39.0625846,12.0352941 C39.0625846,33.7140294 21.2597538,40.8653235 20.9596154,40.9853529 L20.9596154,40.9853529 Z" id="Fill-144" fill="#1A1A1A" sketch:type="MSShapeGroup"></path>
                <path d="M20.9596154,2.02691176 L20.9596154,2.02464706 L20.9554154,2.02464706 L20.9554154,2.02691176 L1.8606,11.4875588 C1.8606,34.3562353 20.6388,41.8970588 20.9554154,42.0235588 L20.9554154,42.0255 C20.9554154,42.0255 20.9563846,42.0242059 20.9576769,42.0242059 C20.9589692,42.0242059 20.9596154,42.0255 20.9596154,42.0255 L20.9596154,42.0235588 C21.2768769,41.8970588 40.0544308,34.3562353 40.0544308,11.4875588 L20.9596154,2.02691176 L20.9596154,2.02691176 Z M20.9596154,41.0031471 L20.9596154,41.0041176 L20.9576769,41.0041176 L20.9547692,41.0041176 L20.9547692,41.0031471 C20.6549538,40.8827941 2.83596923,33.7247059 2.83596923,12.0262353 L20.9547692,3.04732353 L20.9547692,3.04570588 L20.9576769,3.04667647 L20.9596154,3.04570588 L20.9596154,3.04732353 L39.0790615,12.0262353 C39.0790615,33.7247059 21.2600769,40.8827941 20.9596154,41.0031471 L20.9596154,41.0031471 Z" id="Fill-145" fill="#3B3B3B" sketch:type="MSShapeGroup"></path>
                <path d="M20.9602615,0.0792647059 L20.9550923,0.0792647059 L20.9550923,0.0818529412 L20.9337692,0.0922058824 L20.9337692,3.07547059 L20.9547692,3.06479412 L20.9547692,3.06317647 L20.9576769,3.06414706 L20.9596154,3.06317647 L20.9596154,3.06479412 L39.0625846,12.0352941 C39.0625846,33.7140294 21.2597538,40.8653235 20.9596154,40.9853529 L20.9596154,40.9866471 L20.9576769,40.9866471 L20.9547692,40.9866471 L20.9547692,40.9853529 C20.9508923,40.9834118 20.9428154,40.9801765 20.9337692,40.9766176 L20.9337692,43.9602059 C20.9421692,43.9634412 20.9512154,43.9673235 20.9550923,43.9686176 L20.9550923,43.9708824 C20.9550923,43.9708824 20.9563846,43.9695882 20.9576769,43.9695882 C20.9589692,43.9695882 20.9602615,43.9708824 20.9602615,43.9708824 L20.9602615,43.9686176 C21.3078923,43.8301471 41.9121231,35.5555588 41.9121231,10.4626176 L20.9602615,0.0818529412 L20.9602615,0.0792647059" id="Fill-146" fill="#3B3B3B" sketch:type="MSShapeGroup"></path>
                <path d="M40.0544308,11.4875588 L20.9596154,2.02691176 L20.9596154,2.02464706 L20.9554154,2.02464706 L20.9554154,2.02691176 L20.9337692,2.03791176 L20.9337692,3.05767647 L20.9547692,3.04732353 L20.9547692,3.04570588 L20.9576769,3.04667647 L20.9596154,3.04570588 L20.9596154,3.04732353 L39.0790615,12.0262353 C39.0790615,33.7247059 21.2600769,40.8827941 20.9596154,41.0031471 L20.9596154,41.0041176 L20.9576769,41.0041176 L20.9547692,41.0041176 L20.9547692,41.0031471 C20.9508923,41.0012059 20.9428154,40.9979706 20.9337692,40.9940882 L20.9337692,42.0148235 C20.9428154,42.0183824 20.9515385,42.0216176 20.9554154,42.0235588 L20.9554154,42.0255 C20.9554154,42.0255 20.9563846,42.0242059 20.9576769,42.0242059 C20.9589692,42.0242059 20.9596154,42.0255 20.9596154,42.0255 L20.9596154,42.0235588 C21.2768769,41.8970588 40.0544308,34.3562353 40.0544308,11.4875588" id="Fill-147" fill="#595959" sketch:type="MSShapeGroup"></path>
                <path d="M27.6834923,23.6677941 C26.7433385,23.1100294 25.9595538,22.3345294 25.8900923,21.2044412 C25.9983231,20.0743529 26.8128,19.3247353 27.7739538,18.7999706 L28.959,19.1506765 L33.7169538,14.1566765 L26.9446154,15.4394706 L26.5908462,16.6358824 C25.6009385,17.1719706 24.4969846,17.446 23.4666923,16.8568529 C22.4567538,16.2308235 22.1718,15.1259706 22.1701846,13.9962059 L23.0431385,13.1210588 L20.9337692,6.54985294 L18.8250462,13.1210588 L19.7054308,14.0033235 C19.7038154,15.1033235 19.4304923,16.1800294 18.4809692,16.8115588 C17.4532615,17.3104412 16.3864615,16.9966176 15.4379077,16.4372353 L15.1290462,15.2395294 L8.40452308,13.7212059 L12.9867231,18.8785882 L14.1924462,18.5667059 C15.1326,19.1244706 15.9173538,19.9006176 15.9855231,21.0316765 C15.8772923,22.1607941 15.0624923,22.9094412 14.1019846,23.4345294 L12.9166154,23.0841471 L8.15866154,28.0781471 L14.9313231,26.7947059 L15.2844462,25.5989412 C16.2210462,25.0922941 17.2578,24.8192353 18.2383385,25.2870588 L18.5646462,25.4815 C19.4489077,26.1214412 19.7044615,27.1690294 19.7060769,28.2382941 L18.8328,29.1134412 L20.9415231,35.6849706 L23.0502462,29.1134412 L22.1708308,28.2315 C22.1721231,27.1489706 22.4354308,26.0884412 23.3478,25.4533529 L23.4492462,25.3960882 C24.4604769,24.9344118 25.5059538,25.2482353 26.4380308,25.7972647 L26.7472154,26.9949706 L33.4707692,28.5129706 L28.8892154,23.3559118 L27.6834923,23.6677941 L27.6834923,23.6677941 Z M20.9337692,22.6030588 C20.0895692,22.6030588 19.4046462,21.9168529 19.4046462,21.0717941 C19.4046462,20.2251176 20.0895692,19.5392353 20.9337692,19.5392353 C21.7792615,19.5392353 22.4641846,20.2251176 22.4641846,21.0717941 C22.4641846,21.9168529 21.7792615,22.6030588 20.9337692,22.6030588 L20.9337692,22.6030588 Z" id="Fill-148" fill="#242424" sketch:type="MSShapeGroup"></path>
                <path d="M22.4641846,21.0717941 C22.4641846,21.9168529 21.7792615,22.6030588 20.9337692,22.6030588 L20.9337692,35.6610294 L20.9415231,35.6849706 L23.0502462,29.1134412 L22.1708308,28.2315 C22.1721231,27.1489706 22.4354308,26.0884412 23.3478,25.4533529 L23.4492462,25.3960882 C24.4604769,24.9344118 25.5059538,25.2482353 26.4380308,25.7972647 L26.7472154,26.9949706 L33.4707692,28.5129706 L28.8892154,23.3559118 L27.6834923,23.6677941 C26.7433385,23.1100294 25.9595538,22.3345294 25.8900923,21.2044412 C25.9983231,20.0743529 26.8128,19.3247353 27.7739538,18.7999706 L28.959,19.1506765 L33.7169538,14.1566765 L26.9446154,15.4394706 L26.5908462,16.6358824 C25.6009385,17.1719706 24.4969846,17.446 23.4666923,16.8568529 C22.4567538,16.2308235 22.1718,15.1259706 22.1701846,13.9962059 L23.0431385,13.1210588 L20.9337692,6.54985294 L20.9337692,19.5392353 C21.7792615,19.5392353 22.4641846,20.2251176 22.4641846,21.0717941" id="Fill-149" fill="#1A1A1A" sketch:type="MSShapeGroup"></path>
                <path d="M20.9337692,19.1720294 C19.8886154,19.1720294 19.0369846,20.0235588 19.0369846,21.0717941 C19.0369846,22.1184118 19.8886154,22.9712353 20.9337692,22.9712353 C21.9805385,22.9712353 22.8315231,22.1184118 22.8315231,21.0717941 C22.8315231,20.0235588 21.9805385,19.1720294 20.9337692,19.1720294 L20.9337692,19.1720294 Z M20.9337692,22.6030588 C20.0895692,22.6030588 19.4046462,21.9168529 19.4046462,21.0717941 C19.4046462,20.2251176 20.0895692,19.5392353 20.9337692,19.5392353 C21.7792615,19.5392353 22.4641846,20.2251176 22.4641846,21.0717941 C22.4641846,21.9168529 21.7792615,22.6030588 20.9337692,22.6030588 L20.9337692,22.6030588 Z" id="Fill-150" fill="#3B3B3B" sketch:type="MSShapeGroup"></path>
                <path d="M27.6834923,23.6677941 C26.7433385,23.1100294 25.9595538,22.3345294 25.8900923,21.2044412 C25.9983231,20.0743529 26.8128,19.3247353 27.7739538,18.7999706 L28.959,19.1506765 L33.7169538,14.1566765 L26.9446154,15.4394706 L26.5908462,16.6358824 C25.6009385,17.1719706 24.4969846,17.446 23.4666923,16.8568529 C22.4567538,16.2308235 22.1718,15.1259706 22.1701846,13.9962059 L23.0431385,13.1210588 L20.9337692,6.54985294 L18.8250462,13.1210588 L19.7054308,14.0033235 C19.7038154,15.1033235 19.4304923,16.1800294 18.4809692,16.8115588 C17.4532615,17.3104412 16.3864615,16.9966176 15.4379077,16.4372353 L15.1290462,15.2395294 L8.40452308,13.7212059 L12.9867231,18.8785882 L14.1924462,18.5667059 C15.1326,19.1244706 15.9173538,19.9006176 15.9855231,21.0316765 C15.8772923,22.1607941 15.0624923,22.9094412 14.1019846,23.4345294 L12.9166154,23.0841471 L8.15866154,28.0781471 L14.9313231,26.7947059 L15.2844462,25.5989412 C16.2210462,25.0922941 17.2578,24.8192353 18.2383385,25.2870588 L18.5646462,25.4815 C19.4489077,26.1214412 19.7044615,27.1690294 19.7060769,28.2382941 L18.8328,29.1134412 L20.9415231,35.6849706 L23.0502462,29.1134412 L22.1708308,28.2315 C22.1721231,27.1489706 22.4354308,26.0884412 23.3478,25.4533529 L23.4492462,25.3960882 C24.4604769,24.9344118 25.5059538,25.2482353 26.4380308,25.7972647 L26.7472154,26.9949706 L33.4707692,28.5129706 L28.8892154,23.3559118 L27.6834923,23.6677941 L27.6834923,23.6677941 Z M27.0463846,26.686 L26.7556154,25.5575294 L26.6244462,25.4798824 C25.8532615,25.0262941 25.1512154,24.805 24.4788923,24.805 C24.0676154,24.805 23.6695846,24.8913824 23.2970769,25.0622059 L23.1681692,25.1330588 L23.1387692,25.1515 C22.2548308,25.7662059 21.8060769,26.8024706 21.8028462,28.2305294 L21.8028462,28.3838824 L22.6321846,29.2143824 L20.9415231,34.4837059 L19.2502154,29.2143824 L20.0730923,28.3913235 L20.0727692,28.2379706 C20.0711538,26.8309412 19.6366154,25.8034118 18.7798154,25.1835294 L18.4250769,24.9706471 L18.396,24.9554412 C18.0115385,24.7723235 17.5970308,24.6788235 17.1641077,24.6788235 C16.5237692,24.6788235 15.8520923,24.8739118 15.1103077,25.2763824 L14.9762308,25.3482059 L14.6437846,26.4753824 L9.21286154,27.5042059 L13.0277538,23.4998824 L14.1433385,23.8302059 L14.2774154,23.7570882 C15.5480769,23.0634412 16.2459231,22.1578824 16.3512462,21.0669412 L16.3538308,21.0381471 L16.3518923,21.0093529 C16.2856615,19.9158235 15.6220615,18.9879412 14.3795077,18.2502941 L14.2480154,18.1726471 L13.1117538,18.4664118 L9.43869231,14.3313824 L14.8295538,15.5481765 L15.1206462,16.6772941 L15.2518154,16.7542941 C16.0220308,17.2075588 16.7234308,17.4285294 17.3960769,17.4285294 C17.8312615,17.4285294 18.2496462,17.3317941 18.6412154,17.1422059 L18.6841846,17.1179412 C19.6030154,16.5064706 20.0698615,15.4588824 20.0727692,14.0039706 L20.0730923,13.8506176 L19.2431077,13.0201176 L20.9337692,7.75111765 L22.6254,13.0201176 L21.8028462,13.8441471 L21.8028462,13.9965294 C21.8044615,15.4980294 22.2997385,16.5653529 23.2844769,17.1765 C23.7251538,17.4282059 24.2052462,17.5553529 24.7121538,17.5553529 C25.3531385,17.5553529 26.0248154,17.3605882 26.7653077,16.9584412 L26.8997077,16.8859706 L27.2324769,15.7594412 L32.6634,14.7302941 L28.8478615,18.7346176 L27.7316308,18.4042941 L27.5985231,18.4774118 C26.3268923,19.1710588 25.6290462,20.0772647 25.5246923,21.1691765 L25.5224308,21.1976471 L25.5240462,21.2267647 C25.5906,22.3196471 26.2542,23.2468824 27.4961077,23.9842059 L27.6276,24.0621765 L28.7641846,23.7684118 L32.4375692,27.9031176 L27.0463846,26.686 L27.0463846,26.686 Z" id="Fill-151" fill="#3B3B3B" sketch:type="MSShapeGroup"></path>
                <path d="M14.8221231,15.5472059 L15.1167692,15.2369412 L8.40452308,13.7212059 L8.41195385,13.7286471 L9.50976923,14.3472353 L14.8221231,15.5472059" id="Fill-152" fill="#595959" sketch:type="MSShapeGroup"></path>
                <path d="M15.2518154,16.7542941 C16.0220308,17.2075588 16.7234308,17.4285294 17.3960769,17.4285294 C17.8312615,17.4285294 18.2496462,17.3317941 18.6412154,17.1422059 L18.6841846,17.1179412 C19.6030154,16.5064706 20.0698615,15.4588824 20.0727692,14.0039706 L20.0730923,13.8506176 L20.0672769,13.8447941 L19.7054308,14.0191765 C19.7009077,15.1136765 19.4262923,16.1822941 18.4809692,16.8115588 C17.4532615,17.3104412 16.3864615,16.9966176 15.4379077,16.4372353 L15.4304769,16.4077941 L15.1319538,16.6834412 L15.2518154,16.7542941" id="Fill-153" fill="#595959" sketch:type="MSShapeGroup"></path>
                <path d="M14.6521846,26.4446471 L14.6437846,26.4753824 L9.21286154,27.5042059 L9.22029231,27.4964412 L8.20809231,28.0267059 L8.15866154,28.0781471 L14.8909385,26.8024706 L14.6521846,26.4446471" id="Fill-154" fill="#595959" sketch:type="MSShapeGroup"></path>
                <path d="M20.0727692,28.2379706 C20.0711538,26.8309412 19.6366154,25.8034118 18.7798154,25.1835294 L18.4250769,24.9706471 L18.396,24.9554412 C18.0115385,24.7723235 17.5970308,24.6788235 17.1641077,24.6788235 C16.5237692,24.6788235 15.8520923,24.8739118 15.1103077,25.2763824 L14.9762308,25.3482059 L14.9691231,25.3734412 L15.2770154,25.6261176 L15.2844462,25.5989412 C16.2210462,25.0922941 17.2578,24.8192353 18.2383385,25.2870588 L18.5646462,25.4815 C19.4489077,26.1214412 19.7044615,27.1690294 19.7060769,28.2382941 L20.0730923,28.3877647 L20.0727692,28.2379706" id="Fill-155" fill="#595959" sketch:type="MSShapeGroup"></path>
                <path d="M28.7654769,23.7697059 L32.4375692,27.9031176 L32.4168923,27.8982647 L33.4572,28.5100588 L33.4707692,28.5129706 L28.8979385,23.3659412 L28.7654769,23.7697059" id="Fill-156" fill="#595959" sketch:type="MSShapeGroup"></path>
                <path d="M32.6530615,14.7322353 L32.6634,14.7302941 L28.8478615,18.7346176 L28.8297692,18.7287941 L28.9593231,19.1500294 L33.6998308,14.1744706 L32.6530615,14.7322353" id="Fill-157" fill="#595959" sketch:type="MSShapeGroup"></path>
                <path d="M20.9622,35.6192941 L20.9508923,34.4539412 L20.9415231,34.4837059 L19.2544154,29.2276471 L18.8408769,29.1053529 L18.8328,29.1134412 L20.9415231,35.6849706 L20.9622,35.6192941" id="Fill-158" fill="#595959" sketch:type="MSShapeGroup"></path>
                <path d="M27.6272769,24.0618529 L27.7067538,23.6616471 L27.6834923,23.6677941 C26.7433385,23.1100294 25.9595538,22.3345294 25.8900923,21.2044412 C25.9983231,20.0743529 26.8128,19.3247353 27.7739538,18.7999706 L27.7536,18.4107647 L27.7316308,18.4042941 L27.5985231,18.4774118 C26.3268923,19.1710588 25.6290462,20.0772647 25.5246923,21.1691765 L25.5224308,21.1976471 L25.5240462,21.2267647 C25.5906,22.3196471 26.2542,23.2468824 27.4961077,23.9842059 L27.6272769,24.0618529" id="Fill-159" fill="#595959" sketch:type="MSShapeGroup"></path>
                <path d="M23.0337692,29.0969412 L22.1708308,28.2315 L22.1708308,28.2253529 L21.8028462,28.3838824 L22.6321846,29.2143824 L22.6270154,29.2328235 L23.0337692,29.0969412" id="Fill-160" fill="#595959" sketch:type="MSShapeGroup"></path>
                <path d="M13.0277538,23.4998824 L14.1433385,23.8302059 L14.1569077,23.8234118 L14.0916462,23.4316176 L12.9166154,23.0841471 L12.9095077,23.0919118 L13.0235538,23.5047353 L13.0277538,23.4998824" id="Fill-161" fill="#595959" sketch:type="MSShapeGroup"></path>
                <path d="M27.0463846,26.686 L26.7601385,25.5746765 L26.4383538,25.7982353 L26.7472154,26.9949706 L27.0809538,26.6937647 L27.0463846,26.686" id="Fill-162" fill="#595959" sketch:type="MSShapeGroup"></path>
                <path d="M26.9400923,15.4527353 L26.5908462,16.6358824 L26.8887231,16.8921176 L26.8997077,16.8859706 L27.2292462,15.7707647 L26.9400923,15.4527353" id="Fill-163" fill="#595959" sketch:type="MSShapeGroup"></path>
                <path d="M14.2480154,18.1726471 L13.1608615,18.4541176 L13.0048154,18.8740588 L14.1924462,18.5667059 L14.2502769,18.1739412 L14.2480154,18.1726471" id="Fill-164" fill="#595959" sketch:type="MSShapeGroup"></path>
                <path d="M22.6176462,13.0272353 L21.8028462,13.8441471 L21.8028462,13.8506176 L22.1708308,14.0117353 C22.1708308,14.0065588 22.1701846,14.0013824 22.1701846,13.9962059 L23.0318308,13.1323824 L22.6176462,13.0272353" id="Fill-165" fill="#595959" sketch:type="MSShapeGroup"></path>
                <path d="M18.8263385,13.1187941 L19.2486,13.0256176 L19.2431077,13.0201176 L20.9318308,7.75823529 L20.9476615,6.59255882 L20.9337692,6.54985294 L18.8263385,13.1187941" id="Fill-166" fill="#595959" sketch:type="MSShapeGroup"></path>
                <path d="M2.83596923,12.0262353 L1.8606,11.4875588 L20.9554154,2.02691176 L20.9596154,3.04732353 L2.83596923,12.0262353" id="Fill-167" fill="#242424" sketch:type="MSShapeGroup"></path>
                <path d="M40.0544308,11.4875588 L39.0790615,12.0262353 C39.0790615,33.7247059 21.2600769,40.8827941 20.9596154,41.0031471 L20.9596154,41.0041176 L20.9576769,41.0041176 L20.9547692,41.0041176 L20.9547692,41.0031471 C20.9508923,41.0012059 20.9428154,40.9979706 20.9337692,40.9940882 L20.9337692,42.0148235 C20.9428154,42.0183824 20.9515385,42.0216176 20.9554154,42.0235588 L20.9554154,42.0255 C20.9554154,42.0255 20.9563846,42.0242059 20.9576769,42.0242059 C20.9589692,42.0242059 20.9596154,42.0255 20.9596154,42.0255 L20.9596154,42.0235588 C21.2768769,41.8970588 40.0544308,34.3562353 40.0544308,11.4875588" id="Fill-168" fill="#242424" sketch:type="MSShapeGroup"></path>
            </g>
            <polygon id="Star-36-Copy-3" fill="#222222" sketch:type="MSShapeGroup" points="30.4272054 11.2574463 28.0760644 12.4935143 28.5250924 9.87548028 26.6229793 8.02137831 29.2516349 7.6394123 30.4272054 5.25744629 31.6027759 7.6394123 34.2314315 8.02137831 32.3293184 9.87548028 32.7783464 12.4935143 "></polygon>
            <polygon id="Star-36-Copy-4" fill="#222222" sketch:type="MSShapeGroup" points="41.2604943 16.846012 38.7883583 18.1456908 39.2604943 15.392927 37.2604943 13.4434088 40.0244263 13.0417859 41.2604943 10.5372387 42.4965623 13.0417859 45.2604943 13.4434088 43.2604943 15.392927 43.7326302 18.1456908 "></polygon>
            <polygon id="Star-36-Copy" fill="#222222" sketch:type="MSShapeGroup" transform="translate(17.572795, 9.257446) scale(-1, 1) translate(-17.572795, -9.257446) " points="17.5727946 11.2574463 15.2216536 12.4935143 15.6706816 9.87548028 13.7685685 8.02137831 16.3972241 7.6394123 17.5727946 5.25744629 18.7483651 7.6394123 21.3770207 8.02137831 19.4749076 9.87548028 19.9239356 12.4935143 "></polygon>
            <polygon id="Star-36-Copy-2" fill="#222222" sketch:type="MSShapeGroup" transform="translate(6.739506, 14.341465) scale(-1, 1) translate(-6.739506, -14.341465) " points="6.73950571 16.846012 4.26736976 18.1456908 4.73950571 15.392927 2.73950571 13.4434088 5.50343773 13.0417859 6.73950571 10.5372387 7.97557369 13.0417859 10.7395057 13.4434088 8.73950571 15.392927 9.21164167 18.1456908 "></polygon>
        </g>
    </g>
</svg>