<svg xmlns="http://www.w3.org/2000/svg" viewBox="-12 19 48 48"><path fill="#FFF" d="M-8.9,31.5c0,24.9,20.6,33.1,21,33.3c0.4-0.1,21-8.4,21-33.3 L12,21.2L-8.9,31.5z"/><path fill="#368DA7" d="M27.3,49.3c0,0-0.8-3.4-0.8-3.9S26,42.8,26,42.5s-1.4-2.1-1.8-2.6s-2.8-2-3.1-2c-0.3,0-0.8-0.9-1.2-1.3 c-0.4-0.4-2.5-2.2-2.9-2.2s-3.7,2.6-4.1,2.8c-0.5,0.2-2.4,0.5-2.7,0.6c-0.3,0.2-1.3,1.2-1.4,1.5s-2.1,1.9-2.6,1.9 c-0.5,0-1.8-1.9-2.1-2.2c-0.3-0.4-1.4-3.9-1.4-4.1s0.1-1.1,0.1-1.1S2.3,33.2,2,33.1c-0.2-0.1-0.6,0.6-0.6,0.6S1,33.6,0.9,33.6 c-0.1,0-0.9,0-1.2,0.2c-0.2,0.2-0.5,0.6-0.5,0.6s-2,0.3-2.3,0.4c-0.3,0.1-0.6,0.8-0.6,0.8l-0.5,0.4l0.7,0.5l-0.5,0.5l0.7,0.5 l1.2-0.3c0,0,0.3,0.1,0.6,0.2c0.3,0.1,1.5,0.1,1.5,0.1s2.9,6.5,3.6,7.1C4.5,45.3,8,45.6,8,45.6l1.5,2.2c0,0,0.1,4.8,0.1,5 c0,0.2-0.3,1-0.3,1s0.1,0.6,0.3,0.8c0.2,0.2,0.1,3.4,0.1,3.8S9.3,60.8,9,60.8c-0.2,0-0.5,0.4-0.8,0.8c0.3,0.2,0.5,0.3,0.8,0.5l2,0 c0,0-0.5-0.7-0.5-1.1c0-0.3,0.6-5.3,0.7-6.1c0.2-0.8,0.4-6.9,0.4-6.9s1.3,5.3,1.5,5.8s1,6,1,6.6c0,0.5-0.4,0.9-0.8,1.1 c-0.4,0.2-0.5,1-0.5,1l1.7-0.1c0.3-0.1,0.5-0.3,0.8-0.5c-0.1-0.2-0.1-0.4-0.1-0.6c0-0.5-0.4-7.1-0.4-7.8c0-0.7-0.5-6.2-0.5-6.2 s4-0.6,4.5-0.7c0.5-0.1,2.5-2,2.5-1.8s1.1,4.5,1.3,4.8c0.1,0.3-0.5,5.6-0.7,6.9c1-1,2-2.2,2.9-3.4c0-1.1-0.1-2.8-0.1-2.8 s0.4,0.9,0.7,1.8c0.4-0.5,0.7-1.1,1.1-1.7c-0.3-0.7-0.4-1.9-0.4-1.9L27.3,49.3z"/><path opacity=".053" d="M12,21.2L12,21.2L12,21.2 L12,21.2l0,43.6l0,0v0l0,0l0,0v0c0.3-0.1,21-8.4,21-33.3L12,21.2L12,21.2"/><path fill="#4CCBF1" d="M12,21.2L12,21.2L12,21.2L12,21.2l-21,10.3 c0,24.9,20.6,33.1,21,33.3v0l0,0l0,0v0c0.3-0.1,21-8.4,21-33.3L12,21.2 M12,61.8L12,61.8L12,61.8L12,61.8 c-0.3-0.1-18.1-7.2-18.1-28.7L12,24.2v0l0,0l0,0v0l18.1,8.9C30.2,54.6,12.3,61.7,12,61.8"/><path fill="#46ADCB" d="M12,23.1L12,23.1L12,23.1L12,23.1l-19.1,9.4 c0,22.7,18.8,30.2,19.1,30.3v0l0,0l0,0v0c0.3-0.1,19.1-7.6,19.1-30.3L12,23.1 M12,61.8L12,61.8L12,61.8L12,61.8 c-0.3-0.1-18.1-7.2-18.1-28.8L12,24.2v0l0,0l0,0v0l18.1,8.9C30.2,54.6,12.3,61.7,12,61.8"/><path fill="#48B5D6" d="M12,24.2l18.1,8.9c0,21.5-17.8,28.6-18.1,28.7l0,3 c0.4-0.1,21-8.3,21-33.3l-16-7.9l-5-2.4L12,24.2z"/><path fill="#3C9DBB" d="M31.1,32.5L12,23.1v0h0v0l0,0v1l0,0v0l0,0l0,0v0l18.1,8.9 c0,21.5-17.8,28.6-18.1,28.8v0h0v0l0,0v1l0,0v0l0,0l0,0v0C12.4,62.7,31.1,55.2,31.1,32.5"/><path fill="#86DAF4" d="M-6.1,33.1l-1-0.5L12,23.1l0,1L-6.1,33.1"/><path fill="#86DBF4" d="M31.1,32.5l-1,0.5c0,21.5-17.8,28.6-18.1,28.8v0h0v0l0,0v1l0,0v0 l0,0l0,0v0C12.4,62.7,31.1,55.2,31.1,32.5"/></svg>