<svg xmlns="http://www.w3.org/2000/svg" viewBox="-12 18 48 48"><path fill="#E9EFF0" d="M-11.9,16.5c0,24.9,20.6,33.1,21,33.3c0.4-0.1,21-8.4,21-33.3L9,6.2L-11.9,16.5z" transform="translate(3 14)"/><path fill="#D9DFE0" d="M9,6.2L9,6.2L9,6.2L9,6.2l0,43.6l0,0v0l0,0l0,0v0c0.3-0.1,21-8.4,21-33.3L9,6.2L9,6.2" transform="translate(3 14)"/><path fill="#3498DB" d="M9,6.2L9,6.2L9,6.2L9,6.2l-21,10.3c0,24.9,20.6,33.1,21,33.3v0l0,0l0,0v0 c0.3-0.1,21-8.4,21-33.3L9,6.2 M9,46.8L9,46.8L9,46.8L9,46.8C8.7,46.7-9.1,39.6-9.1,18.1L9,9.2v0l0,0l0,0v0l18.1,8.9 C27.2,39.6,9.3,46.7,9,46.8" transform="translate(3 14)"/><path fill="#3483B8" d="M9,8.1L9,8.1L9,8.1L9,8.1l-19.1,9.4c0,22.7,18.8,30.2,19.1,30.3v0l0,0l0,0v0 c0.3-0.1,19.1-7.6,19.1-30.3L9,8.1 M9,46.8L9,46.8L9,46.8L9,46.8C8.7,46.7-9.1,39.6-9.1,18.1L9,9.2v0l0,0l0,0v0l18.1,8.9 C27.2,39.6,9.3,46.7,9,46.8" transform="translate(3 14)"/><path fill="#1478BA" d="M9,9.2l18.1,8.9C27.2,39.6,9.3,46.7,9,46.8l0,3c0.4-0.1,21-8.3,21-33.3L14,8.7L9,6.2L9,9.2 z" transform="translate(3 14)"/><path fill="#2A6A96" d="M28.1,17.5L9,8.1v0h0v0l0,0v1l0,0v0l0,0l0,0v0l18.1,8.9C27.2,39.6,9.3,46.7,9,46.8v0h0v0 l0,0v1l0,0v0l0,0l0,0v0C9.4,47.7,28.1,40.2,28.1,17.5" transform="translate(3 14)"/><path fill="#3AA8F2" d="M-9.1,18.1l-1-0.5L9,8.1l0,1L-9.1,18.1" transform="translate(3 14)"/><path fill="#3498DB" d="M28.1,17.5l-1,0.5C27.2,39.6,9.3,46.7,9,46.8v0h0v0l0,0v1l0,0v0l0,0l0,0v0 C9.4,47.7,28.1,40.2,28.1,17.5" transform="translate(3 14)"/><g><path fill="#3498DB" d="M1.2,11.6H-8c-1.5,0-2.9,0.9-3.3,2.7c-0.5,2-0.5,3.3,0,5.4c0.4,1.6,1.3,2.7,2.8,2.7H-7 v-2.4c0-2.5,1.8-3.6,3.6-3.6h4.5V11.6" transform="translate(13 24)"/><path fill="#3498DB" d="M-3.4,6.3C-5.7,6.7-6.1,7.5-6.1,9v1.3h6V6.2C-0.9,6.2-2.7,6.1-3.4,6.3L-3.4,6.3z M-3.9,9.1c-0.4,0-0.7-0.3-0.7-0.7c0-0.4,0.3-0.7,0.7-0.7c0.4,0,0.7,0.3,0.7,0.7C-3.2,8.8-3.5,9.1-3.9,9.1L-3.9,9.1z" transform="translate(13 24)"/><path fill="#1378BA" d="M-1,16.3h2.3c1.4,0,2.1-0.7,2.1-2.2v-5c0-1.4-0.7-2.3-2.1-2.7C0.5,6.2-0.2,6.2-1,6.2V16.3" transform="translate(13 24)"/><path fill="#3498DB" d="M-3.2,22.2H6c1.5,0,2.9-0.9,3.3-2.7c0.5-2,0.5-3.3,0-5.4c-0.4-1.6-1.3-2.7-2.8-2.7H5v2.4 c0,2.5-1.8,3.6-3.6,3.6h-4.5V22.2" transform="translate(13 24)"/><path fill="#3498DB" d="M1.4,27.5c2.2-0.4,2.6-1.2,2.6-2.7v-1.3h-6v4.1C-1.1,27.6,0.7,27.7,1.4,27.5L1.4,27.5z M1.9,24.7c0.4,0,0.7,0.3,0.7,0.7c0,0.4-0.3,0.7-0.7,0.7c-0.4,0-0.7-0.3-0.7-0.7C1.2,25,1.5,24.7,1.9,24.7L1.9,24.7z" transform="translate(13 24)"/><path fill="#1378BA" d="M-1.1,17.5h-2.3c-1.4,0-2.1,0.7-2.1,2.2v5c0,1.4,0.7,2.3,2.1,2.7c0.8,0.2,1.4,0.2,2.3,0.2 V17.5" transform="translate(13 24)"/></g></svg>