<svg xmlns="http://www.w3.org/2000/svg" viewBox="-12 18 48 48"><path fill="#FFF" d="M-11.9,16.5c0,24.9,20.6,33.1,21,33.3c0.4-0.1,21-8.4,21-33.3L9,6.2L-11.9,16.5z" transform="translate(3 14)"/><path opacity=".613" fill="#D9DFE0" d="M9,6.2L9,6.2L9,6.2L9,6.2l0,43.6l0,0v0l0,0 l0,0v0c0.3-0.1,21-8.4,21-33.3L9,6.2L9,6.2" transform="translate(3 14)"/><path fill="#E74C3C" d="M9,6.2L9,6.2L9,6.2L9,6.2l-21,10.3c0,24.9,20.6,33.1,21,33.3v0l0,0l0,0v0 c0.3-0.1,21-8.4,21-33.3L9,6.2 M9,46.8L9,46.8L9,46.8L9,46.8C8.7,46.7-9.1,39.6-9.1,18.1L9,9.2v0l0,0l0,0v0l18.1,8.9 C27.2,39.6,9.3,46.7,9,46.8" transform="translate(3 14)"/><path fill="#B3382B" d="M9,8.1L9,8.1L9,8.1L9,8.1l-19.1,9.4c0,22.7,18.8,30.2,19.1,30.3v0l0,0l0,0v0 c0.3-0.1,19.1-7.6,19.1-30.3L9,8.1 M9,46.8L9,46.8L9,46.8L9,46.8C8.7,46.7-9.1,39.6-9.1,18.1L9,9.2v0l0,0l0,0v0l18.1,8.9 C27.2,39.6,9.3,46.7,9,46.8" transform="translate(3 14)"/><path opacity=".307" fill="#AB382C" d="M9,9.2l18.1,8.9C27.2,39.6,9.3,46.7,9,46.8 l0,3c0.4-0.1,21-8.3,21-33.3L14,8.7L9,6.2L9,9.2z" transform="translate(3 14)"/><path fill="#A8372B" d="M28.1,17.5L9,8.1v0h0v0l0,0v1l0,0v0l0,0l0,0v0l18.1,8.9C27.2,39.6,9.3,46.7,9,46.8v0h0v0 l0,0v1l0,0v0l0,0l0,0v0C9.4,47.7,28.1,40.2,28.1,17.5" transform="translate(3 14)"/><path fill="#F85443" d="M-9.1,18.1l-1-0.5L9,8.1l0,1L-9.1,18.1" transform="translate(3 14)"/><path fill="#F75443" d="M28.1,17.5l-1,0.5C27.2,39.6,9.3,46.7,9,46.8v0h0v0l0,0v1l0,0v0l0,0l0,0v0 C9.4,47.7,28.1,40.2,28.1,17.5" transform="translate(3 14)"/><g><path fill="#CB4334" d="M-12,12.1c0,0,5.6-6.1,6.1-6.1H7.9c0.5,0,6.1,6.1,6.1,6.1 L1,27.9L-12,12.1z" transform="translate(11 26)"/><path fill="#F75443" d="M-6.1,6H1l-5.9,6.1H-12L-6.1,6z" transform="translate(11 26)"/><path fill="#F75443" d="M8.1,6H1l5.9,6.1H14L8.1,6z" transform="translate(11 26)"/><path fill="#E74C3C" d="M-4.9,12.1H6.9L1,28L-4.9,12.1z" transform="translate(11 26)"/></g></svg>