<?xml version="1.0" encoding="UTF-8" standalone="no"?>
<svg width="48px" height="60px" viewBox="0 0 48 60" version="1.1" xmlns="http://www.w3.org/2000/svg" xmlns:xlink="http://www.w3.org/1999/xlink" xmlns:sketch="http://www.bohemiancoding.com/sketch/ns">
    <!-- Generator: Sketch 3.3.3 (12072) - http://www.bohemiancoding.com/sketch -->
    <title>Soldier_5_star</title>
    <desc>Created with Sketch.</desc>
    <defs></defs>
    <g id="Levels-and-languages" stroke="none" stroke-width="1" fill="none" fill-rule="evenodd" sketch:type="MSPage">
        <g id="Soldier_5_star" sketch:type="MSArtboardGroup">
            <g id="Soldier-badge-big" sketch:type="MSLayerGroup" transform="translate(3.000000, 14.000000)">
                <path d="M20.8925954,0.112408759 L20.8925954,0.110160584 L20.8877863,0.110160584 L20.8877863,0.112408759 L0.095221374,10.4174015 C0.095221374,35.3275036 20.5434504,43.5416934 20.8877863,43.6791533 L20.8877863,43.6817226 C20.8877863,43.6817226 20.8890687,43.680438 20.8903511,43.680438 C20.8916336,43.680438 20.8925954,43.6817226 20.8925954,43.6817226 L20.8925954,43.6791533 C21.2378931,43.5416934 41.6848397,35.3275036 41.6848397,10.4174015 L20.8925954,0.112408759" id="Fill-33" fill="#3B3B3B" sketch:type="MSShapeGroup"></path>
                <path d="M20.8925954,0.110160584 L20.8877863,0.110160584 L20.8877863,0.112408759 L20.7736489,0.168934307 L20.7736489,43.6319416 C20.8352061,43.657635 20.8752824,43.6740146 20.8877863,43.6791533 L20.8877863,43.6817226 C20.8877863,43.6817226 20.8890687,43.680438 20.8903511,43.680438 C20.8916336,43.680438 20.8925954,43.6817226 20.8925954,43.6817226 L20.8925954,43.6791533 C21.2378931,43.5416934 41.6848397,35.3275036 41.6848397,10.4174015 L20.8925954,0.112408759 L20.8925954,0.110160584" id="Fill-34" fill="#1C1C1C" sketch:type="MSShapeGroup"></path>
                <path d="M20.7524885,33.704 L40.4043206,16.7460146 C40.4694046,16.2812847 40.5277557,15.8094891 40.5764885,15.3303066 L20.7524885,32.4369927 L20.7524885,33.704" id="Fill-35" fill="#3B3B3B" sketch:type="MSShapeGroup"></path>
                <path d="M20.7524885,31.370073 L40.6768397,14.1773139 C40.7085802,13.739562 40.7329466,13.2953869 40.7512214,12.8463942 L20.7524885,30.1033869 L20.7524885,31.370073" id="Fill-36" fill="#3B3B3B" sketch:type="MSShapeGroup"></path>
                <path d="M20.7524885,23.9681168 L37.5380611,9.48344526 L36.6057252,9.02128467 L20.7524885,22.7007883 L20.7524885,23.9681168" id="Fill-37" fill="#3B3B3B" sketch:type="MSShapeGroup"></path>
                <path d="M20.7524885,26.4350073 L39.3546412,10.3830365 L38.4216641,9.92055474 L20.7524885,25.168 L20.7524885,26.4350073" id="Fill-38" fill="#3B3B3B" sketch:type="MSShapeGroup"></path>
                <path d="M20.7524885,28.9693431 L40.7826412,11.6853723 C40.7848855,11.4881752 40.7900153,11.2938686 40.7900153,11.0944234 L40.2872977,10.8451971 L20.7524885,27.7023358 L20.7524885,28.9693431" id="Fill-39" fill="#3B3B3B" sketch:type="MSShapeGroup"></path>
                <path d="M20.7524885,41.172438 L37.4848397,26.7336934 C37.7881374,26.0849343 38.0773282,25.4159416 38.3479237,24.7218978 L20.7524885,39.906073 L20.7524885,41.172438" id="Fill-40" fill="#3B3B3B" sketch:type="MSShapeGroup"></path>
                <path d="M20.7524885,36.2383358 L39.8589618,19.7508613 C39.9714962,19.2482336 40.0760153,18.7372555 40.1699542,18.2153577 L20.7524885,34.9706861 L20.7524885,36.2383358" id="Fill-41" fill="#3B3B3B" sketch:type="MSShapeGroup"></path>
                <path d="M20.7524885,38.771708 L38.939771,23.0778394 C39.1244427,22.520292 39.2972519,21.9489343 39.4581985,21.3634453 L20.7524885,37.5047007 L20.7524885,38.771708" id="Fill-42" fill="#3B3B3B" sketch:type="MSShapeGroup"></path>
                <path d="M20.7524885,6.69635036 L24.8252061,3.18245255 L23.8928702,2.7199708 L20.7524885,5.4299854 L20.7524885,6.69635036" id="Fill-43" fill="#3B3B3B" sketch:type="MSShapeGroup"></path>
                <path d="M20.7524885,4.02937226 L22.8614656,2.2089927 L21.929771,1.74715328 L20.7524885,2.76268613 L20.7524885,4.02937226" id="Fill-44" fill="#3B3B3B" sketch:type="MSShapeGroup"></path>
                <path d="M20.7524885,42.24 L36.5255725,28.6279416 C36.5255725,28.6279416 29.5102901,39.785635 22.3767023,42.2746861 C21.3347176,42.8367299 20.7524885,42.24 20.7524885,42.24" id="Fill-45" fill="#3B3B3B" sketch:type="MSShapeGroup"></path>
                <path d="M20.7524885,21.6338686 L35.8205496,8.63170803 L34.8875725,8.16922628 L20.7524885,20.3668613 L20.7524885,21.6338686" id="Fill-46" fill="#3B3B3B" sketch:type="MSShapeGroup"></path>
                <path d="M20.7524885,9.23068613 L26.6905191,4.10645255 L25.757542,3.6439708 L20.7524885,7.96367883 L20.7524885,9.23068613" id="Fill-47" fill="#3B3B3B" sketch:type="MSShapeGroup"></path>
                <path d="M20.7524885,11.6314161 L28.457084,4.98259854 L27.5253893,4.52043796 L20.7524885,10.3647299 L20.7524885,11.6314161" id="Fill-48" fill="#3B3B3B" sketch:type="MSShapeGroup"></path>
                <path d="M20.7524885,16.6991241 L32.1880305,6.83124088 L31.2550534,6.36908029 L20.7524885,15.4327591 L20.7524885,16.6991241" id="Fill-49" fill="#3B3B3B" sketch:type="MSShapeGroup"></path>
                <path d="M20.7524885,19.2334599 L34.0527023,7.75588321 L33.1210076,7.29372263 L20.7524885,17.9661314 L20.7524885,19.2334599" id="Fill-50" fill="#3B3B3B" sketch:type="MSShapeGroup"></path>
                <path d="M20.7524885,13.9647007 L30.1755573,5.8340146 L29.2429008,5.37153285 L20.7524885,12.6983358 L20.7524885,13.9647007" id="Fill-51" fill="#3B3B3B" sketch:type="MSShapeGroup"></path>
                <path d="M20.8925954,0.112408759 L20.8925954,0.110160584 L20.8877863,0.110160584 L20.8877863,0.112408759 L0.095221374,10.4174015 C0.095221374,35.3275036 20.5434504,43.5416934 20.8877863,43.6791533 L20.8877863,43.6817226 C20.8877863,43.6817226 20.8890687,43.680438 20.8903511,43.680438 C20.8916336,43.680438 20.8925954,43.6817226 20.8925954,43.6817226 L20.8925954,43.6791533 C21.2378931,43.5416934 41.6848397,35.3275036 41.6848397,10.4174015 L20.8925954,0.112408759 L20.8925954,0.112408759 Z M20.8922748,41.0613139 L20.8922748,41.0632409 C20.8922748,41.0632409 20.8916336,41.0619562 20.8903511,41.0619562 C20.8890687,41.0619562 20.8877863,41.0632409 20.8877863,41.0632409 L20.8877863,41.0613139 C20.5848092,40.9402336 2.59438168,33.7133139 2.59438168,11.7968175 L20.8877863,2.73089051 L20.8877863,2.72832117 L20.8922748,2.72832117 L20.8922748,2.73089051 L39.1856794,11.7968175 C39.1856794,33.7133139 21.1958931,40.9402336 20.8922748,41.0613139 L20.8922748,41.0613139 Z" id="Fill-52" fill="#3498DB" sketch:type="MSShapeGroup"></path>
                <path d="M20.8925954,0.112408759 L20.8925954,0.110160584 L20.8877863,0.110160584 L20.8877863,0.112408759 L20.7736489,0.168934307 L20.7736489,2.78709489 L20.8877863,2.73089051 L20.8877863,2.72832117 L20.8922748,2.72832117 L20.8922748,2.73089051 L39.1856794,11.7968175 C39.1856794,33.7133139 21.1958931,40.9402336 20.8922748,41.0613139 L20.8922748,41.0632409 C20.8922748,41.0632409 20.8916336,41.0619562 20.8903511,41.0619562 C20.8890687,41.0619562 20.8877863,41.0632409 20.8877863,41.0632409 L20.8877863,41.0613139 C20.8765649,41.0564964 20.8358473,41.0401168 20.7736489,41.0144234 L20.7736489,43.6319416 C20.7781374,43.6338686 20.7832672,43.6357956 20.7867939,43.6377226 C20.7983359,43.642219 20.8069924,43.6457518 20.8162901,43.6496058 C20.8525191,43.6647007 20.8784885,43.6752993 20.8877863,43.6791533 L20.8877863,43.6817226 C20.8877863,43.6817226 20.8890687,43.680438 20.8903511,43.680438 C20.8916336,43.680438 20.8925954,43.6817226 20.8925954,43.6817226 L20.8925954,43.6791533 C21.2378931,43.5416934 41.6848397,35.3275036 41.6848397,10.4174015 L20.8925954,0.112408759" id="Fill-53" fill="#2977AB" sketch:type="MSShapeGroup"></path>
                <path d="M40.3905344,11.132 L20.8922748,1.46870073 L20.8922748,1.46613139 L20.8877863,1.46613139 L20.8877863,1.46870073 L1.38984733,11.132 C1.38984733,34.4911825 20.5646107,42.1943942 20.8877863,42.3228613 L20.8877863,42.3254307 C20.8877863,42.3254307 20.8890687,42.324146 20.8903511,42.324146 C20.8916336,42.324146 20.8922748,42.3254307 20.8922748,42.3254307 L20.8922748,42.3228613 C21.215771,42.1943942 40.3905344,34.4911825 40.3905344,11.132 L40.3905344,11.132 Z M20.8922748,41.0613139 L20.8922748,41.0632409 C20.8922748,41.0632409 20.8916336,41.0619562 20.8903511,41.0619562 C20.8890687,41.0619562 20.8877863,41.0632409 20.8877863,41.0632409 L20.8877863,41.0613139 C20.5848092,40.9402336 2.59438168,33.7133139 2.59438168,11.7968175 L20.8877863,2.73089051 L20.8877863,2.72832117 L20.8922748,2.72832117 L20.8922748,2.73089051 L39.1856794,11.7968175 C39.1856794,33.7133139 21.1958931,40.9402336 20.8922748,41.0613139 L20.8922748,41.0613139 Z" id="Fill-54" fill="#E9EFF0" sketch:type="MSShapeGroup"></path>
                <path d="M40.3905344,11.132 L20.8922748,1.46870073 L20.8922748,1.46613139 L20.8877863,1.46613139 L20.8877863,1.46870073 L20.7736489,1.52522628 L20.7736489,2.78709489 L20.8877863,2.73089051 L20.8877863,2.72832117 L20.8922748,2.72832117 L20.8922748,2.73089051 L39.1856794,11.7968175 C39.1856794,33.7133139 21.1958931,40.9402336 20.8922748,41.0613139 L20.8922748,41.0632409 C20.8922748,41.0632409 20.8916336,41.0619562 20.8903511,41.0619562 C20.8890687,41.0619562 20.8877863,41.0632409 20.8877863,41.0632409 L20.8877863,41.0613139 C20.8765649,41.0564964 20.8358473,41.0401168 20.7736489,41.0144234 L20.7736489,42.2756496 C20.8352061,42.3023066 20.8759237,42.318365 20.8877863,42.3228613 L20.8877863,42.3254307 C20.8877863,42.3254307 20.8890687,42.324146 20.8903511,42.324146 C20.8916336,42.324146 20.8922748,42.3254307 20.8922748,42.3254307 L20.8922748,42.3228613 C21.215771,42.1943942 40.3905344,34.4911825 40.3905344,11.132" id="Fill-55" fill="#BAC3C7" sketch:type="MSShapeGroup"></path>
                <path d="M20.8903511,15.0756204 C15.215542,15.0756204 10.5993893,19.7001168 10.5993893,25.3838248 C10.5993893,31.0681752 15.215542,35.6923504 20.8903511,35.6923504 C26.5641985,35.6923504 31.1803511,31.0681752 31.1803511,25.3838248 C31.1803511,19.7001168 26.5641985,15.0756204 20.8903511,15.0756204" id="Fill-56" fill="#3498DB" sketch:type="MSShapeGroup"></path>
                <path d="M20.8903511,15.0756204 C20.8512366,15.0756204 20.8124427,15.0781898 20.7736489,15.0788321 L20.7736489,35.6894599 C20.8124427,35.6901022 20.8512366,35.6923504 20.8903511,35.6923504 C26.5641985,35.6923504 31.1803511,31.0681752 31.1803511,25.3838248 C31.1803511,19.7001168 26.5641985,15.0756204 20.8903511,15.0756204" id="Fill-57" fill="#1378BA" sketch:type="MSShapeGroup"></path>
                <path d="M20.8903511,15.8560584 C15.6451603,15.8560584 11.3784733,20.1301606 11.3784733,25.3838248 C11.3784733,30.6378102 15.6451603,34.9122336 20.8903511,34.9122336 C26.1345802,34.9122336 30.4015878,30.6378102 30.4015878,25.3838248 C30.4015878,20.1301606 26.1345802,15.8560584 20.8903511,15.8560584 L20.8903511,15.8560584 Z M28.0265038,22.8019562 L22.7575878,22.8019562 L21.1320916,17.7891679 C24.3061374,17.8890511 26.9950992,19.9503066 28.0265038,22.8019562 L28.0265038,22.8019562 Z M20.6486107,17.7891679 L19.0224733,22.8019562 L13.7535573,22.8019562 C14.7849618,19.9503066 17.4736031,17.8890511 20.6486107,17.7891679 L20.6486107,17.7891679 Z M13.3021374,25.3838248 C13.3021374,24.6461022 13.4098626,23.9334307 13.6063969,23.2592993 L17.8682748,26.3604964 L16.2389313,31.3832409 C14.453771,29.9906569 13.3021374,27.8202044 13.3021374,25.3838248 L13.3021374,25.3838248 Z M16.6233435,31.6652263 L20.8903511,28.5604964 L25.1570382,31.6652263 C23.9403206,32.4970511 22.4712824,32.9852263 20.8903511,32.9852263 C19.3090992,32.9852263 17.8400611,32.4970511 16.6233435,31.6652263 L16.6233435,31.6652263 Z M25.5414504,31.3832409 L23.9121069,26.3604964 L28.1739847,23.2592993 C28.3708397,23.9334307 28.4779237,24.6461022 28.4779237,25.3838248 C28.4779237,27.8202044 27.3262901,29.9906569 25.5414504,31.3832409 L25.5414504,31.3832409 Z" id="Fill-58" fill="#E9EFF0" sketch:type="MSShapeGroup"></path>
                <path d="M20.8903511,15.8560584 C20.8515573,15.8560584 20.8124427,15.8586277 20.7736489,15.8586277 L20.7736489,28.6443212 L20.8903511,28.5604964 L25.1570382,31.6652263 C23.9403206,32.4970511 22.4712824,32.9852263 20.8903511,32.9852263 C20.850916,32.9852263 20.8124427,32.9813723 20.7736489,32.9807299 L20.7736489,34.9090219 C20.8124427,34.9096642 20.8515573,34.9122336 20.8903511,34.9122336 C26.1345802,34.9122336 30.4015878,30.6378102 30.4015878,25.3838248 C30.4015878,20.1301606 26.1345802,15.8560584 20.8903511,15.8560584 L20.8903511,15.8560584 Z M28.4779237,25.3838248 C28.4779237,27.8202044 27.3262901,29.9906569 25.5414504,31.3832409 L23.9121069,26.3604964 L28.1739847,23.2592993 C28.3708397,23.9334307 28.4779237,24.6461022 28.4779237,25.3838248 L28.4779237,25.3838248 Z M22.7575878,22.8019562 L21.1320916,17.7891679 C24.3061374,17.8890511 26.9950992,19.9503066 28.0265038,22.8019562 L22.7575878,22.8019562 L22.7575878,22.8019562 Z" id="Fill-59" fill="#BAC3C7" sketch:type="MSShapeGroup"></path>
                <path d="M21.6518015,14.4936642 C21.6518015,14.0726131 21.3103511,13.7308905 20.8903511,13.7308905 C20.4693893,13.7308905 20.1289008,14.0726131 20.1289008,14.4936642 C20.1289008,14.9150365 20.4693893,15.256438 20.8903511,15.256438 C21.3103511,15.256438 21.6518015,14.9150365 21.6518015,14.4936642" id="Fill-60" fill="#E9EFF0" sketch:type="MSShapeGroup"></path>
                <path d="M20.8903511,13.7308905 C20.8502748,13.7308905 20.8121221,13.7369927 20.7736489,13.7427737 L20.7736489,15.2445547 C20.8121221,15.2506569 20.8502748,15.256438 20.8903511,15.256438 C21.3103511,15.256438 21.6518015,14.9150365 21.6518015,14.4936642 C21.6518015,14.0726131 21.3103511,13.7308905 20.8903511,13.7308905" id="Fill-61" fill="#BAC3C7" sketch:type="MSShapeGroup"></path>
                <path d="M19.8082901,14.0520584 C19.8082901,13.6310073 19.4668397,13.2892847 19.0468397,13.2892847 C18.6258779,13.2892847 18.2853893,13.6310073 18.2853893,14.0520584 C18.2853893,14.4734307 18.6258779,14.8148321 19.0468397,14.8148321 C19.4668397,14.8148321 19.8082901,14.4734307 19.8082901,14.0520584" id="Fill-62" fill="#E9EFF0" sketch:type="MSShapeGroup"></path>
                <path d="M18.004855,13.2892847 C18.004855,12.8682336 17.6634046,12.5265109 17.2434046,12.5265109 C16.8224427,12.5265109 16.4819542,12.8682336 16.4819542,13.2892847 C16.4819542,13.7106569 16.8224427,14.0520584 17.2434046,14.0520584 C17.6634046,14.0520584 18.004855,13.7106569 18.004855,13.2892847" id="Fill-63" fill="#E9EFF0" sketch:type="MSShapeGroup"></path>
                <path d="M16.5220305,12.0447591 C16.5220305,11.623708 16.1805802,11.2819854 15.7605802,11.2819854 C15.3396183,11.2819854 14.9991298,11.623708 14.9991298,12.0447591 C14.9991298,12.4661314 15.3396183,12.8075328 15.7605802,12.8075328 C16.1805802,12.8075328 16.5220305,12.4661314 16.5220305,12.0447591" id="Fill-64" fill="#E9EFF0" sketch:type="MSShapeGroup"></path>
                <path d="M15.1594351,10.5192117 C15.1594351,10.0981606 14.8179847,9.75643796 14.3979847,9.75643796 C13.9770229,9.75643796 13.6365344,10.0981606 13.6365344,10.5192117 C13.6365344,10.9405839 13.9770229,11.2819854 14.3979847,11.2819854 C14.8179847,11.2819854 15.1594351,10.9405839 15.1594351,10.5192117" id="Fill-65" fill="#E9EFF0" sketch:type="MSShapeGroup"></path>
                <path d="M14.0372977,8.83308029 C14.0372977,8.4120292 13.6958473,8.07030657 13.2758473,8.07030657 C12.8548855,8.07030657 12.5143969,8.4120292 12.5143969,8.83308029 C12.5143969,9.25445255 12.8548855,9.59585401 13.2758473,9.59585401 C13.6958473,9.59585401 14.0372977,9.25445255 14.0372977,8.83308029" id="Fill-66" fill="#E9EFF0" sketch:type="MSShapeGroup"></path>
                <path d="M13.1956947,7.02651095 C13.1956947,6.60545985 12.8542443,6.26373723 12.4342443,6.26373723 C12.0132824,6.26373723 11.6727939,6.60545985 11.6727939,7.02651095 C11.6727939,7.44788321 12.0132824,7.78928467 12.4342443,7.78928467 C12.8542443,7.78928467 13.1956947,7.44788321 13.1956947,7.02651095" id="Fill-67" fill="#E9EFF0" sketch:type="MSShapeGroup"></path>
                <path d="M21.9724122,14.0520584 C21.9724122,13.6310073 22.3129008,13.2892847 22.7338626,13.2892847 C23.1538626,13.2892847 23.495313,13.6310073 23.495313,14.0520584 C23.495313,14.4734307 23.1538626,14.8148321 22.7338626,14.8148321 C22.3129008,14.8148321 21.9724122,14.4734307 21.9724122,14.0520584" id="Fill-68" fill="#BAC3C7" sketch:type="MSShapeGroup"></path>
                <path d="M23.7758473,13.2892847 C23.7758473,12.8682336 24.1163359,12.5265109 24.5372977,12.5265109 C24.9572977,12.5265109 25.2987481,12.8682336 25.2987481,13.2892847 C25.2987481,13.7106569 24.9572977,14.0520584 24.5372977,14.0520584 C24.1163359,14.0520584 23.7758473,13.7106569 23.7758473,13.2892847" id="Fill-69" fill="#BAC3C7" sketch:type="MSShapeGroup"></path>
                <path d="M25.2586718,12.0447591 C25.2586718,11.623708 25.5991603,11.2819854 26.0201221,11.2819854 C26.4401221,11.2819854 26.7815725,11.623708 26.7815725,12.0447591 C26.7815725,12.4661314 26.4401221,12.8075328 26.0201221,12.8075328 C25.5991603,12.8075328 25.2586718,12.4661314 25.2586718,12.0447591" id="Fill-70" fill="#BAC3C7" sketch:type="MSShapeGroup"></path>
                <path d="M26.6212672,10.5192117 C26.6212672,10.0981606 26.9617557,9.75643796 27.3827176,9.75643796 C27.8027176,9.75643796 28.1441679,10.0981606 28.1441679,10.5192117 C28.1441679,10.9405839 27.8027176,11.2819854 27.3827176,11.2819854 C26.9617557,11.2819854 26.6212672,10.9405839 26.6212672,10.5192117" id="Fill-71" fill="#BAC3C7" sketch:type="MSShapeGroup"></path>
                <path d="M27.7434046,8.83308029 C27.7434046,8.4120292 28.0838931,8.07030657 28.504855,8.07030657 C28.924855,8.07030657 29.2663053,8.4120292 29.2663053,8.83308029 C29.2663053,9.25445255 28.924855,9.59585401 28.504855,9.59585401 C28.0838931,9.59585401 27.7434046,9.25445255 27.7434046,8.83308029" id="Fill-72" fill="#BAC3C7" sketch:type="MSShapeGroup"></path>
                <path d="M28.5850076,7.02651095 C28.5850076,6.60545985 28.9254962,6.26373723 29.346458,6.26373723 C29.766458,6.26373723 30.1079084,6.60545985 30.1079084,7.02651095 C30.1079084,7.44788321 29.766458,7.78928467 29.346458,7.78928467 C28.9254962,7.78928467 28.5850076,7.44788321 28.5850076,7.02651095" id="Fill-73" fill="#BAC3C7" sketch:type="MSShapeGroup"></path>
                <path d="M13.7535573,22.8019562 C14.7849618,19.9503066 17.4736031,17.8890511 20.6486107,17.7891679 C15.1523817,16.467562 13.3996031,21.8002336 13.7535573,22.8019562" id="Fill-74" fill="#BAC3C7" sketch:type="MSShapeGroup"></path>
                <path d="M16.2389313,31.3832409 C14.453771,29.9906569 13.3021374,27.8202044 13.3021374,25.3838248 C13.3021374,24.6461022 13.4098626,23.9334307 13.6063969,23.2592993 C12.558,24.6104526 11.5875115,29.7809343 16.2389313,31.3832409" id="Fill-75" fill="#BAC3C7" sketch:type="MSShapeGroup"></path>
                <path d="M24.9999389,31.7651095 C23.814,32.5336642 22.404916,32.9852263 20.8903511,32.9852263 C19.3090992,32.9852263 17.8400611,32.4970511 16.6233435,31.6652263 C17.5274656,33.0411095 21.4549466,35.2892847 25.0618168,31.7965839 C25.0419389,31.7856642 25.0201374,31.775708 24.9999389,31.7651095" id="Fill-76" fill="#BAC3C7" sketch:type="MSShapeGroup"></path>
                <path d="M25.0618168,31.7965839 C25.0419389,31.7856642 25.0201374,31.775708 24.9999389,31.7651095 C24.9980153,31.7657518 24.9967328,31.7663942 24.9954504,31.7676788 C24.8482901,31.8624234 24.6988855,31.9526715 24.545313,32.0381022 C24.5446718,32.0381022 24.5440305,32.0384234 24.5433893,32.0384234 C24.3901374,32.123854 24.2336794,32.2035036 24.0736947,32.2783358 C24.0688855,32.2809051 24.0637557,32.2825109 24.058626,32.284438 C23.9034504,32.3567007 23.7463511,32.4238248 23.5860458,32.4851679 C23.5703359,32.4915912 23.5539847,32.4964088 23.5385954,32.5021898 C23.388229,32.5587153 23.2359389,32.6120292 23.0814046,32.6589197 C23.0487023,32.6688759 23.0150382,32.6765839 22.9816947,32.6858978 C22.842229,32.7260438 22.7024427,32.7649051 22.559771,32.7976642 C22.5020611,32.8108321 22.4430687,32.8195036 22.3850382,32.8313869 C22.2641679,32.8561168 22.1432977,32.8811679 22.0198626,32.8997956 C21.9259237,32.9136058 21.8307023,32.9219562 21.7354809,32.9325547 C21.6447481,32.9425109 21.5546565,32.9563212 21.4632824,32.9633869 C21.2741221,32.9768759 21.0830382,32.9852263 20.8903511,32.9852263 C20.850916,32.9852263 20.8124427,32.9813723 20.7736489,32.9807299 L20.7736489,33.6538978 C22.1105954,33.6757372 23.6116947,33.2010511 25.0618168,31.7965839" id="Fill-77" fill="#E9EFF0" sketch:type="MSShapeGroup"></path>
                <path d="M28.1739847,23.2592993 C28.3708397,23.9334307 28.4779237,24.6461022 28.4779237,25.3838248 C28.4779237,27.8202044 27.3262901,29.9906569 25.5414504,31.3832409 C27.586626,30.6323504 30.4041527,27.4476496 28.1739847,23.2592993" id="Fill-78" fill="#E9EFF0" sketch:type="MSShapeGroup"></path>
                <path d="M28.0265038,22.8019562 C27.9873893,20.676146 25.8578931,17.0296058 21.1320916,17.7891679 C24.3061374,17.8890511 26.9950992,19.9503066 28.0265038,22.8019562" id="Fill-79" fill="#E9EFF0" sketch:type="MSShapeGroup"></path>
                <path d="M13.6063969,23.2592993 L18.5694504,24.4498686 L17.8682748,26.3604964 L13.6063969,23.2592993" id="Fill-80" fill="#BAC3C7" sketch:type="MSShapeGroup"></path>
                <path d="M16.6233435,31.6652263 L20.7335725,26.055708 L20.8903511,28.5604964 L16.6233435,31.6652263" id="Fill-81" fill="#BAC3C7" sketch:type="MSShapeGroup"></path>
                <path d="M25.1570382,31.6652263 L20.8903511,28.5604964 L20.7335725,26.055708 L25.1570382,31.6652263" id="Fill-82" fill="#E9EFF0" sketch:type="MSShapeGroup"></path>
                <path d="M23.9121069,26.3604964 L23.298458,24.5301606 L28.1739847,23.2592993 L23.9121069,26.3604964" id="Fill-83" fill="#E9EFF0" sketch:type="MSShapeGroup"></path>
            </g>
            <polygon id="Star-40" fill="#3498DB" sketch:type="MSShapeGroup" points="24.0027503 8.02665181 21.6516093 9.26271978 22.1006373 6.6446858 20.1985242 4.79058383 22.8271798 4.40861782 24.0027503 2.02665181 25.1783208 4.40861782 27.8069764 4.79058383 25.9048633 6.6446858 26.3538913 9.26271978 "></polygon>
            <polygon id="Star-36-Copy-3" fill="#3498DB" sketch:type="MSShapeGroup" points="32.4272054 12.2574463 30.0760644 13.4935143 30.5250924 10.8754803 28.6229793 9.02137831 31.2516349 8.6394123 32.4272054 6.25744629 33.6027759 8.6394123 36.2314315 9.02137831 34.3293184 10.8754803 34.7783464 13.4935143 "></polygon>
            <polygon id="Star-36-Copy-4" fill="#3498DB" sketch:type="MSShapeGroup" points="41.2604943 16.846012 38.7883583 18.1456908 39.2604943 15.392927 37.2604943 13.4434088 40.0244263 13.0417859 41.2604943 10.5372387 42.4965623 13.0417859 45.2604943 13.4434088 43.2604943 15.392927 43.7326302 18.1456908 "></polygon>
            <polygon id="Star-36-Copy" fill="#3498DB" sketch:type="MSShapeGroup" transform="translate(15.572795, 10.257446) scale(-1, 1) translate(-15.572795, -10.257446) " points="15.5727946 12.2574463 13.2216536 13.4935143 13.6706816 10.8754803 11.7685685 9.02137831 14.3972241 8.6394123 15.5727946 6.25744629 16.7483651 8.6394123 19.3770207 9.02137831 17.4749076 10.8754803 17.9239356 13.4935143 "></polygon>
            <polygon id="Star-36-Copy-2" fill="#3498DB" sketch:type="MSShapeGroup" transform="translate(6.739506, 14.341465) scale(-1, 1) translate(-6.739506, -14.341465) " points="6.73950571 16.846012 4.26736976 18.1456908 4.73950571 15.392927 2.73950571 13.4434088 5.50343773 13.0417859 6.73950571 10.5372387 7.97557369 13.0417859 10.7395057 13.4434088 8.73950571 15.392927 9.21164167 18.1456908 "></polygon>
        </g>
    </g>
</svg>