<svg width="48" height="48" xmlns="http://www.w3.org/2000/svg">
  <defs>
    <linearGradient id="a" y2="104.079%" x2="96.633%" y1="4.545%" x1="19.673%">
      <stop offset="0%" stop-color="#FFA428"/>
      <stop offset="100%" stop-color="#FF1C1D"/>
    </linearGradient>
    <linearGradient id="b" y2="110.913%" x2="70.877%" y1="10.598%" x1="41.359%">
      <stop offset="0%" stop-color="#FFA829"/>
      <stop offset="100%" stop-color="#FF001B"/>
    </linearGradient>
  </defs>
  <rect fill="none" height="402" width="582" y="-1" x="-1"/>
  <g>
    <path fill="#FFF" d="m3.091108,12.535912c0,24.909781 20.604877,33.123971 20.951861,33.261431c0.3528,-0.13746 20.957031,-8.35165 20.957031,-33.261431l-20.952185,-10.304992l-20.956707,10.304992z"/>
    <path fill="url(#a)" d="m24.047815,2.23092l0,-0.00257l-0.004846,0l0,0.00257l-20.951861,10.304992c0,24.909781 20.604877,33.123971 20.951861,33.261431l0,0.002569l0.002585,-0.001284l0.002261,0.001284l0,-0.002569c0.347954,-0.13746 20.952185,-8.35165 20.952185,-33.261431l-20.952185,-10.304992m0,40.604934l0,0.001285l-0.004846,0l0,-0.001285c-0.299815,-0.119153 -18.102323,-7.217927 -18.102323,-28.738744l18.102323,-8.905022l0,-0.001606l0.002585,0.001284l0.002261,-0.001284l0,0.001606l18.102646,8.905022c0,21.520817 -17.80283,28.619591 -18.102646,28.738744"/>
    <path fill="#EF4734" d="m24.047815,4.16146l0,-0.001606l-0.0042,0l0,0.001606l-19.094815,9.391912c0,22.701752 18.777877,30.187854 19.094815,30.31311l0,0.001927l0.001939,-0.001285l0.002261,0.001285l0,-0.001927c0.316939,-0.125256 19.094493,-7.611358 19.094493,-30.31311l-19.094493,-9.391912m0,38.692058l0,0.001285l-0.004846,0l0,-0.001285c-0.299815,-0.119153 -18.119123,-7.224992 -18.119123,-28.765722l18.119123,-8.913051l0,-0.001927l0.002585,0.001284l0.002261,-0.001284l0,0.001927l18.119447,8.913051c0,21.54073 -17.818985,28.646569 -18.119447,28.765722"/>
    <path opacity=".096" d="m24.021969,5.202365l18.128492,8.894745c0,21.520817 -17.80283,28.619591 -18.102646,28.738744l-0.025846,2.95346c0.3738,-0.129431 20.978031,-8.343621 20.978031,-33.253402l-15.996442,-7.86759l-4.955743,-2.437402l-0.025846,2.971445z"/>
    <path fill="#EE4735" d="m43.142308,13.553372l-19.094493,-9.391912l0,-0.001606l-0.0042,0l0,0.001606l-0.021646,0.01092l0,1.012321l0.021,-0.009956l0,-0.001927l0.002585,0.001284l0.002261,-0.001284l0,0.001927l18.119447,8.913051c0,21.54073 -17.818985,28.646569 -18.119447,28.765722l0,0.001285l-0.004846,0l0,-0.001285l-0.021,-0.008671l0,1.012963l0.021646,0.008672l0,0.001927l0.001939,-0.001285l0.002261,0.001285l0,-0.001927c0.316939,-0.125256 19.094493,-7.611358 19.094493,-30.31311"/>
    <polyline points="5.923846244812012,14.08779525756836 4.948800086975098,13.553372383117676 24.043615341186523,4.161459922790527 24.047815322875977,5.174744606018066 5.923846244812012,14.08779525756836" fill="#EA845E"/>
    <path fill="#FF9268" d="m43.142308,13.553372l-0.975046,0.534424c0,21.54073 -17.818985,28.646569 -18.119447,28.765722l0,0.001285l-0.004846,0l0,-0.001285l-0.021,-0.008671l0,1.012963l0.021646,0.008672l0,0.001927l0.001939,-0.001285l0.002261,0.001285l0,-0.001927c0.316939,-0.125256 19.094493,-7.611358 19.094493,-30.31311"/>
    <path fill="url(#b)" d="m21.692229,18.164143c-0.603068,-0.531333 -6.260892,-5.311986 -6.260892,-5.311986c0,0 1.700825,2.820631 3.274744,4.603853c1.573918,1.783221 3.249279,3.714777 3.249279,3.714777c0,0 -3.600086,-2.380182 -5.195017,-3.625238c-1.594931,-1.245057 -4.539882,-3.635384 -4.539882,-3.635384c0,0 0.903981,2.604185 5.545823,7.020265c4.641842,4.41608 6.056247,5.635051 6.056247,5.635051c0,0 -1.665735,1.567694 -5.357222,1.257271c-3.691488,-0.310423 -5.196362,-0.98058 -6.788085,-1.822971c-1.591722,-0.84239 -1.677224,-0.993623 -1.677224,-0.993623c0,0 2.448093,4.863975 7.272423,6.651033c5.624079,2.083307 8.898029,0.677082 10.1946,0.169555c1.479213,-0.57902 2.774982,-1.423203 3.653084,-1.423203c1.117943,0 1.775872,0.442726 2.137237,0.728733c0.361365,0.286007 1.723702,1.598968 1.723702,1.598968c0,0 0.163758,-1.891393 -0.471399,-3.536114c-0.635157,-1.644721 -1.762209,-3.126305 -1.762209,-3.126305c0,0 1.35271,-5.288282 -0.913297,-8.723471c-2.266007,-3.435189 -6.359126,-6.629192 -6.359126,-6.629192c0,0 2.384841,4.414838 2.384841,7.2305c0,2.815662 -0.242532,3.51272 -0.392833,4.418254c-0.962673,-0.212409 -5.171726,-3.669439 -5.774794,-4.200773z"/>
    <path opacity=".053" d="m24.047815,2.10335l-0.004846,0l0,0.00257l-0.021,0.009956l0,43.548438l0.021,0.008029l0,0.002569l0.002585,-0.001284l0.002261,0.001284l0,-0.002569c0.347954,-0.13746 20.952185,-8.35165 20.952185,-33.261431l-20.952185,-10.304992l0,-0.00257"/>
  </g>
</svg>
